{
  "accessors": [
    {
      "bufferView": 0,
      "componentType": 5126,
      "count": 1459,
      "max": [
        -0.48180001974105835,
        -0.029199998825788498,
        1.8954999446868896
      ],
      "min": [
        -0.6053000092506409,
        -0.407399982213974,
        1.4406999349594116
      ],
      "name": "Scene/POSITION",
      "type": "VEC3"
    },
    {
      "bufferView": 0,
      "byteOffset": 12,
      "componentType": 5126,
      "count": 1459,
      "name": "Scene/NORMAL",
      "type": "VEC3"
    },
    {
      "bufferView": 0,
      "byteOffset": 24,
      "componentType": 5126,
      "count": 1459,
      "name": "Scene/TEXCOORD_0",
      "type": "VEC2"
    },
    {
      "bufferView": 0,
      "byteOffset": 32,
      "componentType": 5126,
      "count": 1459,
      "name": "Scene/COLOR_0",
      "type": "VEC4"
    },
    {
      "bufferView": 1,
      "componentType": 5123,
      "count": 2778,
      "name": "Scene/INDICES",
      "type": "SCALAR"
    },
    {
      "bufferView": 2,
      "componentType": 5126,
      "count": 660,
      "max": [
        -0.7727999687194824,
        0.10119999945163727,
        -0.8974999785423279
      ],
      "min": [
        -0.9404000043869019,
        -0.5378000140190125,
        -1.5331000089645386
      ],
      "name": "Scene/POSITION",
      "type": "VEC3"
    },
    {
      "bufferView": 2,
      "byteOffset": 12,
      "componentType": 5126,
      "count": 660,
      "name": "Scene/NORMAL",
      "type": "VEC3"
    },
    {
      "bufferView": 2,
      "byteOffset": 24,
      "componentType": 5126,
      "count": 660,
      "name": "Scene/TEXCOORD_0",
      "type": "VEC2"
    },
    {
      "bufferView": 2,
      "byteOffset": 32,
      "componentType": 5126,
      "count": 660,
      "name": "Scene/COLOR_0",
      "type": "VEC4"
    },
    {
      "bufferView": 3,
      "componentType": 5123,
      "count": 3780,
      "name": "Scene/INDICES",
      "type": "SCALAR"
    },
    {
      "bufferView": 4,
      "componentType": 5126,
      "count": 6823,
      "max": [
        -0.6240000128746033,
        -0.003700000001117587,
        -1.0018999576568604
      ],
      "min": [
        -0.9214999675750732,
        -0.43289998173713684,
        -1.4286999702453613
      ],
      "name": "Scene/POSITION",
      "type": "VEC3"
    },
    {
      "bufferView": 4,
      "byteOffset": 12,
      "componentType": 5126,
      "count": 6823,
      "name": "Scene/NORMAL",
      "type": "VEC3"
    },
    {
      "bufferView": 4,
      "byteOffset": 24,
      "componentType": 5126,
      "count": 6823,
      "name": "Scene/TEXCOORD_0",
      "type": "VEC2"
    },
    {
      "bufferView": 4,
      "byteOffset": 32,
      "componentType": 5126,
      "count": 6823,
      "name": "Scene/COLOR_0",
      "type": "VEC4"
    },
    {
      "bufferView": 5,
      "componentType": 5123,
      "count": 8868,
      "name": "Scene/INDICES",
      "type": "SCALAR"
    },
    {
      "bufferView": 6,
      "componentType": 5126,
      "count": 19608,
      "max": [
        0.7199999690055847,
        0.49879997968673706,
        1.806999921798706
      ],
      "min": [
        -0.7199999690055847,
        -0.45179998874664307,
        -2.2029998302459717
      ],
      "name": "Scene/POSITION",
      "type": "VEC3"
    },
    {
      "bufferView": 6,
      "byteOffset": 12,
      "componentType": 5126,
      "count": 19608,
      "name": "Scene/NORMAL",
      "type": "VEC3"
    },
    {
      "bufferView": 6,
      "byteOffset": 24,
      "componentType": 5126,
      "count": 19608,
      "name": "Scene/TEXCOORD_0",
      "type": "VEC2"
    },
    {
      "bufferView": 6,
      "byteOffset": 32,
      "componentType": 5126,
      "count": 19608,
      "name": "Scene/COLOR_0",
      "type": "VEC4"
    },
    {
      "bufferView": 7,
      "componentType": 5123,
      "count": 23784,
      "name": "Scene/INDICES",
      "type": "SCALAR"
    },
    {
      "bufferView": 8,
      "componentType": 5126,
      "count": 7398,
      "max": [
        0.7301999926567078,
        0.5453999638557434,
        2.1675000190734863
      ],
      "min": [
        -0.7301999926567078,
        -0.47749999165534973,
        -0.7409999966621399
      ],
      "name": "Scene/POSITION",
      "type": "VEC3"
    },
    {
      "bufferView": 8,
      "byteOffset": 12,
      "componentType": 5126,
      "count": 7398,
      "name": "Scene/NORMAL",
      "type": "VEC3"
    },
    {
      "bufferView": 8,
      "byteOffset": 24,
      "componentType": 5126,
      "count": 7398,
      "name": "Scene/TEXCOORD_0",
      "type": "VEC2"
    },
    {
      "bufferView": 8,
      "byteOffset": 32,
      "componentType": 5126,
      "count": 7398,
      "name": "Scene/COLOR_0",
      "type": "VEC4"
    },
    {
      "bufferView": 9,
      "componentType": 5123,
      "count": 8940,
      "name": "Scene/INDICES",
      "type": "SCALAR"
    },
    {
      "bufferView": 10,
      "componentType": 5126,
      "count": 12,
      "max": [
        -0.3646000027656555,
        0.1444000005722046,
        -0.2222999930381775
      ],
      "min": [
        -0.5094000101089478,
        0.0867999941110611,
        -0.2667999863624573
      ],
      "name": "Scene/POSITION",
      "type": "VEC3"
    },
    {
      "bufferView": 10,
      "byteOffset": 12,
      "componentType": 5126,
      "count": 12,
      "name": "Scene/NORMAL",
      "type": "VEC3"
    },
    {
      "bufferView": 10,
      "byteOffset": 24,
      "componentType": 5126,
      "count": 12,
      "name": "Scene/TEXCOORD_0",
      "type": "VEC2"
    },
    {
      "bufferView": 10,
      "byteOffset": 32,
      "componentType": 5126,
      "count": 12,
      "name": "Scene/COLOR_0",
      "type": "VEC4"
    },
    {
      "bufferView": 11,
      "componentType": 5123,
      "count": 30,
      "name": "Scene/INDICES",
      "type": "SCALAR"
    },
    {
      "bufferView": 12,
      "componentType": 5126,
      "count": 3292,
      "max": [
        0.6602999567985535,
        -0.2092999964952469,
        -1.7440999746322632
      ],
      "min": [
        -0.6602999567985535,
        -0.369299978017807,
        -2.1183998584747314
      ],
      "name": "Scene/POSITION",
      "type": "VEC3"
    },
    {
      "bufferView": 12,
      "byteOffset": 12,
      "componentType": 5126,
      "count": 3292,
      "name": "Scene/NORMAL",
      "type": "VEC3"
    },
    {
      "bufferView": 12,
      "byteOffset": 24,
      "componentType": 5126,
      "count": 3292,
      "name": "Scene/TEXCOORD_0",
      "type": "VEC2"
    },
    {
      "bufferView": 12,
      "byteOffset": 32,
      "componentType": 5126,
      "count": 3292,
      "name": "Scene/COLOR_0",
      "type": "VEC4"
    },
    {
      "bufferView": 13,
      "componentType": 5123,
      "count": 3432,
      "name": "Scene/INDICES",
      "type": "SCALAR"
    },
    {
      "bufferView": 14,
      "componentType": 5126,
      "count": 180,
      "max": [
        -0.13699999451637268,
        0.06459999829530716,
        -0.8779999613761902
      ],
      "min": [
        -0.6786999702453613,
        -0.30879998207092285,
        -1.337399959564209
      ],
      "name": "Scene/POSITION",
      "type": "VEC3"
    },
    {
      "bufferView": 14,
      "byteOffset": 12,
      "componentType": 5126,
      "count": 180,
      "name": "Scene/NORMAL",
      "type": "VEC3"
    },
    {
      "bufferView": 14,
      "byteOffset": 24,
      "componentType": 5126,
      "count": 180,
      "name": "Scene/TEXCOORD_0",
      "type": "VEC2"
    },
    {
      "bufferView": 14,
      "byteOffset": 32,
      "componentType": 5126,
      "count": 180,
      "name": "Scene/COLOR_0",
      "type": "VEC4"
    },
    {
      "bufferView": 15,
      "componentType": 5123,
      "count": 180,
      "name": "Scene/INDICES",
      "type": "SCALAR"
    },
    {
      "bufferView": 16,
      "componentType": 5126,
      "count": 329,
      "max": [
        -0.2513999938964844,
        -0.14299999177455902,
        -0.17260000109672546
      ],
      "min": [
        -0.7213999629020691,
        -0.45260000228881836,
        -0.8438999652862549
      ],
      "name": "Scene/POSITION",
      "type": "VEC3"
    },
    {
      "bufferView": 16,
      "byteOffset": 12,
      "componentType": 5126,
      "count": 329,
      "name": "Scene/NORMAL",
      "type": "VEC3"
    },
    {
      "bufferView": 16,
      "byteOffset": 24,
      "componentType": 5126,
      "count": 329,
      "name": "Scene/TEXCOORD_0",
      "type": "VEC2"
    },
    {
      "bufferView": 16,
      "byteOffset": 32,
      "componentType": 5126,
      "count": 329,
      "name": "Scene/COLOR_0",
      "type": "VEC4"
    },
    {
      "bufferView": 17,
      "componentType": 5123,
      "count": 372,
      "name": "Scene/INDICES",
      "type": "SCALAR"
    },
    {
      "bufferView": 18,
      "componentType": 5126,
      "count": 860,
      "max": [
        0.09699999541044235,
        0.08859999477863312,
        -0.19020000100135803
      ],
      "min": [
        -0.09699999541044235,
        -0.019600000232458115,
        -0.2166999876499176
      ],
      "name": "Scene/POSITION",
      "type": "VEC3"
    },
    {
      "bufferView": 18,
      "byteOffset": 12,
      "componentType": 5126,
      "count": 860,
      "name": "Scene/NORMAL",
      "type": "VEC3"
    },
    {
      "bufferView": 18,
      "byteOffset": 24,
      "componentType": 5126,
      "count": 860,
      "name": "Scene/TEXCOORD_0",
      "type": "VEC2"
    },
    {
      "bufferView": 18,
      "byteOffset": 32,
      "componentType": 5126,
      "count": 860,
      "name": "Scene/COLOR_0",
      "type": "VEC4"
    },
    {
      "bufferView": 19,
      "componentType": 5123,
      "count": 1356,
      "name": "Scene/INDICES",
      "type": "SCALAR"
    },
    {
      "bufferView": 20,
      "componentType": 5126,
      "count": 74,
      "max": [
        -0.05009999871253967,
        -0.12189999967813492,
        2.074899911880493
      ],
      "min": [
        -0.4773999750614166,
        -0.15869998931884766,
        1.8316999673843384
      ],
      "name": "Scene/POSITION",
      "type": "VEC3"
    },
    {
      "bufferView": 20,
      "byteOffset": 12,
      "componentType": 5126,
      "count": 74,
      "name": "Scene/NORMAL",
      "type": "VEC3"
    },
    {
      "bufferView": 20,
      "byteOffset": 24,
      "componentType": 5126,
      "count": 74,
      "name": "Scene/TEXCOORD_0",
      "type": "VEC2"
    },
    {
      "bufferView": 20,
      "byteOffset": 32,
      "componentType": 5126,
      "count": 74,
      "name": "Scene/COLOR_0",
      "type": "VEC4"
    },
    {
      "bufferView": 21,
      "componentType": 5123,
      "count": 84,
      "name": "Scene/INDICES",
      "type": "SCALAR"
    },
    {
      "bufferView": 22,
      "componentType": 5126,
      "count": 293,
      "max": [
        -0.4578999876976013,
        0.4122999906539917,
        2.19599986076355
      ],
      "min": [
        -0.48429998755455017,
        -0.1770000010728836,
        1.7919999361038208
      ],
      "name": "Scene/POSITION",
      "type": "VEC3"
    },
    {
      "bufferView": 22,
      "byteOffset": 12,
      "componentType": 5126,
      "count": 293,
      "name": "Scene/NORMAL",
      "type": "VEC3"
    },
    {
      "bufferView": 22,
      "byteOffset": 24,
      "componentType": 5126,
      "count": 293,
      "name": "Scene/TEXCOORD_0",
      "type": "VEC2"
    },
    {
      "bufferView": 22,
      "byteOffset": 32,
      "componentType": 5126,
      "count": 293,
      "name": "Scene/COLOR_0",
      "type": "VEC4"
    },
    {
      "bufferView": 23,
      "componentType": 5123,
      "count": 420,
      "name": "Scene/INDICES",
      "type": "SCALAR"
    },
    {
      "bufferView": 24,
      "componentType": 5126,
      "count": 194,
      "max": [
        0.46609997749328613,
        0.4104999899864197,
        2.182299852371216
      ],
      "min": [
        -0.46609997749328613,
        0.19499999284744263,
        1.8422999382019043
      ],
      "name": "Scene/POSITION",
      "type": "VEC3"
    },
    {
      "bufferView": 24,
      "byteOffset": 12,
      "componentType": 5126,
      "count": 194,
      "name": "Scene/NORMAL",
      "type": "VEC3"
    },
    {
      "bufferView": 24,
      "byteOffset": 24,
      "componentType": 5126,
      "count": 194,
      "name": "Scene/TEXCOORD_0",
      "type": "VEC2"
    },
    {
      "bufferView": 24,
      "byteOffset": 32,
      "componentType": 5126,
      "count": 194,
      "name": "Scene/COLOR_0",
      "type": "VEC4"
    },
    {
      "bufferView": 25,
      "componentType": 5123,
      "count": 336,
      "name": "Scene/INDICES",
      "type": "SCALAR"
    },
    {
      "bufferView": 26,
      "componentType": 5126,
      "count": 96,
      "max": [
        -0.0,
        0.09479999542236328,
        0.2712000012397766
      ],
      "min": [
        -0.21769998967647552,
        0.09479999542236328,
        0.2712000012397766
      ],
      "name": "Scene/POSITION",
      "type": "VEC3"
    },
    {
      "bufferView": 26,
      "byteOffset": 12,
      "componentType": 5126,
      "count": 96,
      "name": "Scene/NORMAL",
      "type": "VEC3"
    },
    {
      "bufferView": 26,
      "byteOffset": 24,
      "componentType": 5126,
      "count": 96,
      "name": "Scene/TEXCOORD_0",
      "type": "VEC2"
    },
    {
      "bufferView": 26,
      "byteOffset": 32,
      "componentType": 5126,
      "count": 96,
      "name": "Scene/COLOR_0",
      "type": "VEC4"
    },
    {
      "bufferView": 27,
      "componentType": 5123,
      "count": 420,
      "name": "Scene/INDICES",
      "type": "SCALAR"
    },
    {
      "bufferView": 28,
      "componentType": 5126,
      "count": 387,
      "max": [
        -0.027799999341368675,
        -0.06269999593496323,
        1.7968999147415161
      ],
      "min": [
        -0.5717999935150146,
        -0.3904999792575836,
        1.3324999809265137
      ],
      "name": "Scene/POSITION",
      "type": "VEC3"
    },
    {
      "bufferView": 28,
      "byteOffset": 12,
      "componentType": 5126,
      "count": 387,
      "name": "Scene/NORMAL",
      "type": "VEC3"
    },
    {
      "bufferView": 28,
      "byteOffset": 24,
      "componentType": 5126,
      "count": 387,
      "name": "Scene/TEXCOORD_0",
      "type": "VEC2"
    },
    {
      "bufferView": 28,
      "byteOffset": 32,
      "componentType": 5126,
      "count": 387,
      "name": "Scene/COLOR_0",
      "type": "VEC4"
    },
    {
      "bufferView": 29,
      "componentType": 5123,
      "count": 744,
      "name": "Scene/INDICES",
      "type": "SCALAR"
    },
    {
      "bufferView": 30,
      "componentType": 5126,
      "count": 63,
      "max": [
        -0.6608999967575073,
        -0.23160000145435333,
        -1.6902999877929688
      ],
      "min": [
        -0.7157999873161316,
        -0.3264999985694885,
        -2.0988998413085938
      ],
      "name": "Scene/POSITION",
      "type": "VEC3"
    },
    {
      "bufferView": 30,
      "byteOffset": 12,
      "componentType": 5126,
      "count": 63,
      "name": "Scene/NORMAL",
      "type": "VEC3"
    },
    {
      "bufferView": 30,
      "byteOffset": 24,
      "componentType": 5126,
      "count": 63,
      "name": "Scene/TEXCOORD_0",
      "type": "VEC2"
    },
    {
      "bufferView": 30,
      "byteOffset": 32,
      "componentType": 5126,
      "count": 63,
      "name": "Scene/COLOR_0",
      "type": "VEC4"
    },
    {
      "bufferView": 31,
      "componentType": 5123,
      "count": 108,
      "name": "Scene/INDICES",
      "type": "SCALAR"
    },
    {
      "bufferView": 32,
      "componentType": 5126,
      "count": 36,
      "max": [
        -0.6189000010490417,
        -0.3937000036239624,
        -1.5901999473571777
      ],
      "min": [
        -0.7123000025749207,
        -0.4016000032424927,
        -2.166100025177002
      ],
      "name": "Scene/POSITION",
      "type": "VEC3"
    },
    {
      "bufferView": 32,
      "byteOffset": 12,
      "componentType": 5126,
      "count": 36,
      "name": "Scene/NORMAL",
      "type": "VEC3"
    },
    {
      "bufferView": 32,
      "byteOffset": 24,
      "componentType": 5126,
      "count": 36,
      "name": "Scene/TEXCOORD_0",
      "type": "VEC2"
    },
    {
      "bufferView": 32,
      "byteOffset": 32,
      "componentType": 5126,
      "count": 36,
      "name": "Scene/COLOR_0",
      "type": "VEC4"
    },
    {
      "bufferView": 33,
      "componentType": 5123,
      "count": 60,
      "name": "Scene/INDICES",
      "type": "SCALAR"
    },
    {
      "bufferView": 34,
      "componentType": 5126,
      "count": 416,
      "max": [
        -0.6039999723434448,
        -0.1678999960422516,
        -1.586300015449524
      ],
      "min": [
        -0.6904999613761902,
        -0.3982999920845032,
        -2.166100025177002
      ],
      "name": "Scene/POSITION",
      "type": "VEC3"
    },
    {
      "bufferView": 34,
      "byteOffset": 12,
      "componentType": 5126,
      "count": 416,
      "name": "Scene/NORMAL",
      "type": "VEC3"
    },
    {
      "bufferView": 34,
      "byteOffset": 24,
      "componentType": 5126,
      "count": 416,
      "name": "Scene/TEXCOORD_0",
      "type": "VEC2"
    },
    {
      "bufferView": 34,
      "byteOffset": 32,
      "componentType": 5126,
      "count": 416,
      "name": "Scene/COLOR_0",
      "type": "VEC4"
    },
    {
      "bufferView": 35,
      "componentType": 5123,
      "count": 528,
      "name": "Scene/INDICES",
      "type": "SCALAR"
    },
    {
      "bufferView": 36,
      "componentType": 5126,
      "count": 66,
      "max": [
        0.7157999873161316,
        -0.23160000145435333,
        -1.6902999877929688
      ],
      "min": [
        0.6608999967575073,
        -0.3264999985694885,
        -2.0988998413085938
      ],
      "name": "Scene/POSITION",
      "type": "VEC3"
    },
    {
      "bufferView": 36,
      "byteOffset": 12,
      "componentType": 5126,
      "count": 66,
      "name": "Scene/NORMAL",
      "type": "VEC3"
    },
    {
      "bufferView": 36,
      "byteOffset": 24,
      "componentType": 5126,
      "count": 66,
      "name": "Scene/TEXCOORD_0",
      "type": "VEC2"
    },
    {
      "bufferView": 36,
      "byteOffset": 32,
      "componentType": 5126,
      "count": 66,
      "name": "Scene/COLOR_0",
      "type": "VEC4"
    },
    {
      "bufferView": 37,
      "componentType": 5123,
      "count": 108,
      "name": "Scene/INDICES",
      "type": "SCALAR"
    },
    {
      "bufferView": 38,
      "componentType": 5126,
      "count": 36,
      "max": [
        0.7123000025749207,
        -0.3937000036239624,
        -1.5901999473571777
      ],
      "min": [
        0.6189000010490417,
        -0.4016000032424927,
        -2.166100025177002
      ],
      "name": "Scene/POSITION",
      "type": "VEC3"
    },
    {
      "bufferView": 38,
      "byteOffset": 12,
      "componentType": 5126,
      "count": 36,
      "name": "Scene/NORMAL",
      "type": "VEC3"
    },
    {
      "bufferView": 38,
      "byteOffset": 24,
      "componentType": 5126,
      "count": 36,
      "name": "Scene/TEXCOORD_0",
      "type": "VEC2"
    },
    {
      "bufferView": 38,
      "byteOffset": 32,
      "componentType": 5126,
      "count": 36,
      "name": "Scene/COLOR_0",
      "type": "VEC4"
    },
    {
      "bufferView": 39,
      "componentType": 5123,
      "count": 60,
      "name": "Scene/INDICES",
      "type": "SCALAR"
    },
    {
      "bufferView": 40,
      "componentType": 5126,
      "count": 413,
      "max": [
        0.6904999613761902,
        -0.1678999960422516,
        -1.586300015449524
      ],
      "min": [
        0.6039999723434448,
        -0.3982999920845032,
        -2.166100025177002
      ],
      "name": "Scene/POSITION",
      "type": "VEC3"
    },
    {
      "bufferView": 40,
      "byteOffset": 12,
      "componentType": 5126,
      "count": 413,
      "name": "Scene/NORMAL",
      "type": "VEC3"
    },
    {
      "bufferView": 40,
      "byteOffset": 24,
      "componentType": 5126,
      "count": 413,
      "name": "Scene/TEXCOORD_0",
      "type": "VEC2"
    },
    {
      "bufferView": 40,
      "byteOffset": 32,
      "componentType": 5126,
      "count": 413,
      "name": "Scene/COLOR_0",
      "type": "VEC4"
    },
    {
      "bufferView": 41,
      "componentType": 5123,
      "count": 528,
      "name": "Scene/INDICES",
      "type": "SCALAR"
    },
    {
      "bufferView": 42,
      "componentType": 5126,
      "count": 296,
      "max": [
        0.48429998755455017,
        0.4122999906539917,
        2.19599986076355
      ],
      "min": [
        0.4578999876976013,
        -0.1770000010728836,
        1.7919999361038208
      ],
      "name": "Scene/POSITION",
      "type": "VEC3"
    },
    {
      "bufferView": 42,
      "byteOffset": 12,
      "componentType": 5126,
      "count": 296,
      "name": "Scene/NORMAL",
      "type": "VEC3"
    },
    {
      "bufferView": 42,
      "byteOffset": 24,
      "componentType": 5126,
      "count": 296,
      "name": "Scene/TEXCOORD_0",
      "type": "VEC2"
    },
    {
      "bufferView": 42,
      "byteOffset": 32,
      "componentType": 5126,
      "count": 296,
      "name": "Scene/COLOR_0",
      "type": "VEC4"
    },
    {
      "bufferView": 43,
      "componentType": 5123,
      "count": 420,
      "name": "Scene/INDICES",
      "type": "SCALAR"
    },
    {
      "bufferView": 44,
      "componentType": 5126,
      "count": 83,
      "max": [
        0.4773999750614166,
        -0.12189999967813492,
        2.074899911880493
      ],
      "min": [
        0.05009999871253967,
        -0.15869998931884766,
        1.8316999673843384
      ],
      "name": "Scene/POSITION",
      "type": "VEC3"
    },
    {
      "bufferView": 44,
      "byteOffset": 12,
      "componentType": 5126,
      "count": 83,
      "name": "Scene/NORMAL",
      "type": "VEC3"
    },
    {
      "bufferView": 44,
      "byteOffset": 24,
      "componentType": 5126,
      "count": 83,
      "name": "Scene/TEXCOORD_0",
      "type": "VEC2"
    },
    {
      "bufferView": 44,
      "byteOffset": 32,
      "componentType": 5126,
      "count": 83,
      "name": "Scene/COLOR_0",
      "type": "VEC4"
    },
    {
      "bufferView": 45,
      "componentType": 5123,
      "count": 84,
      "name": "Scene/INDICES",
      "type": "SCALAR"
    },
    {
      "bufferView": 46,
      "componentType": 5126,
      "count": 9,
      "max": [
        0.045499999076128006,
        -0.09919999539852142,
        2.1673998832702637
      ],
      "min": [
        -0.045499999076128006,
        -0.22349999845027924,
        2.1663999557495117
      ],
      "name": "Scene/POSITION",
      "type": "VEC3"
    },
    {
      "bufferView": 46,
      "byteOffset": 12,
      "componentType": 5126,
      "count": 9,
      "name": "Scene/NORMAL",
      "type": "VEC3"
    },
    {
      "bufferView": 46,
      "byteOffset": 24,
      "componentType": 5126,
      "count": 9,
      "name": "Scene/TEXCOORD_0",
      "type": "VEC2"
    },
    {
      "bufferView": 46,
      "byteOffset": 32,
      "componentType": 5126,
      "count": 9,
      "name": "Scene/COLOR_0",
      "type": "VEC4"
    },
    {
      "bufferView": 47,
      "componentType": 5123,
      "count": 12,
      "name": "Scene/INDICES",
      "type": "SCALAR"
    },
    {
      "bufferView": 48,
      "componentType": 5126,
      "count": 300,
      "max": [
        0.5166999697685242,
        0.14790000021457672,
        -0.21719999611377716
      ],
      "min": [
        0.21519999206066132,
        0.05179999768733978,
        -0.3312000036239624
      ],
      "name": "Scene/POSITION",
      "type": "VEC3"
    },
    {
      "bufferView": 48,
      "byteOffset": 12,
      "componentType": 5126,
      "count": 300,
      "name": "Scene/NORMAL",
      "type": "VEC3"
    },
    {
      "bufferView": 48,
      "byteOffset": 24,
      "componentType": 5126,
      "count": 300,
      "name": "Scene/TEXCOORD_0",
      "type": "VEC2"
    },
    {
      "bufferView": 48,
      "byteOffset": 32,
      "componentType": 5126,
      "count": 300,
      "name": "Scene/COLOR_0",
      "type": "VEC4"
    },
    {
      "bufferView": 49,
      "componentType": 5123,
      "count": 306,
      "name": "Scene/INDICES",
      "type": "SCALAR"
    },
    {
      "bufferView": 50,
      "componentType": 5126,
      "count": 328,
      "max": [
        0.7213999629020691,
        -0.14299999177455902,
        -0.17260000109672546
      ],
      "min": [
        0.2513999938964844,
        -0.45260000228881836,
        -0.8438999652862549
      ],
      "name": "Scene/POSITION",
      "type": "VEC3"
    },
    {
      "bufferView": 50,
      "byteOffset": 12,
      "componentType": 5126,
      "count": 328,
      "name": "Scene/NORMAL",
      "type": "VEC3"
    },
    {
      "bufferView": 50,
      "byteOffset": 24,
      "componentType": 5126,
      "count": 328,
      "name": "Scene/TEXCOORD_0",
      "type": "VEC2"
    },
    {
      "bufferView": 50,
      "byteOffset": 32,
      "componentType": 5126,
      "count": 328,
      "name": "Scene/COLOR_0",
      "type": "VEC4"
    },
    {
      "bufferView": 51,
      "componentType": 5123,
      "count": 372,
      "name": "Scene/INDICES",
      "type": "SCALAR"
    },
    {
      "bufferView": 52,
      "componentType": 5126,
      "count": 178,
      "max": [
        0.6786999702453613,
        0.06459999829530716,
        -0.8779999613761902
      ],
      "min": [
        0.13699999451637268,
        -0.30879998207092285,
        -1.337399959564209
      ],
      "name": "Scene/POSITION",
      "type": "VEC3"
    },
    {
      "bufferView": 52,
      "byteOffset": 12,
      "componentType": 5126,
      "count": 178,
      "name": "Scene/NORMAL",
      "type": "VEC3"
    },
    {
      "bufferView": 52,
      "byteOffset": 24,
      "componentType": 5126,
      "count": 178,
      "name": "Scene/TEXCOORD_0",
      "type": "VEC2"
    },
    {
      "bufferView": 52,
      "byteOffset": 32,
      "componentType": 5126,
      "count": 178,
      "name": "Scene/COLOR_0",
      "type": "VEC4"
    },
    {
      "bufferView": 53,
      "componentType": 5123,
      "count": 180,
      "name": "Scene/INDICES",
      "type": "SCALAR"
    },
    {
      "bufferView": 54,
      "componentType": 5126,
      "count": 300,
      "max": [
        -0.21519999206066132,
        0.14790000021457672,
        -0.21719999611377716
      ],
      "min": [
        -0.5166999697685242,
        0.05179999768733978,
        -0.3312000036239624
      ],
      "name": "Scene/POSITION",
      "type": "VEC3"
    },
    {
      "bufferView": 54,
      "byteOffset": 12,
      "componentType": 5126,
      "count": 300,
      "name": "Scene/NORMAL",
      "type": "VEC3"
    },
    {
      "bufferView": 54,
      "byteOffset": 24,
      "componentType": 5126,
      "count": 300,
      "name": "Scene/TEXCOORD_0",
      "type": "VEC2"
    },
    {
      "bufferView": 54,
      "byteOffset": 32,
      "componentType": 5126,
      "count": 300,
      "name": "Scene/COLOR_0",
      "type": "VEC4"
    },
    {
      "bufferView": 55,
      "componentType": 5123,
      "count": 306,
      "name": "Scene/INDICES",
      "type": "SCALAR"
    },
    {
      "bufferView": 56,
      "componentType": 5126,
      "count": 25,
      "max": [
        0.5094000101089478,
        0.1444000005722046,
        -0.2222999930381775
      ],
      "min": [
        0.3646000027656555,
        0.0867999941110611,
        -0.2667999863624573
      ],
      "name": "Scene/POSITION",
      "type": "VEC3"
    },
    {
      "bufferView": 56,
      "byteOffset": 12,
      "componentType": 5126,
      "count": 25,
      "name": "Scene/NORMAL",
      "type": "VEC3"
    },
    {
      "bufferView": 56,
      "byteOffset": 24,
      "componentType": 5126,
      "count": 25,
      "name": "Scene/TEXCOORD_0",
      "type": "VEC2"
    },
    {
      "bufferView": 56,
      "byteOffset": 32,
      "componentType": 5126,
      "count": 25,
      "name": "Scene/COLOR_0",
      "type": "VEC4"
    },
    {
      "bufferView": 57,
      "componentType": 5123,
      "count": 30,
      "name": "Scene/INDICES",
      "type": "SCALAR"
    },
    {
      "bufferView": 58,
      "componentType": 5126,
      "count": 96,
      "max": [
        -0.0,
        0.07919999957084656,
        0.460999995470047
      ],
      "min": [
        -0.21769998967647552,
        0.07919999957084656,
        0.460999995470047
      ],
      "name": "Scene/POSITION",
      "type": "VEC3"
    },
    {
      "bufferView": 58,
      "byteOffset": 12,
      "componentType": 5126,
      "count": 96,
      "name": "Scene/NORMAL",
      "type": "VEC3"
    },
    {
      "bufferView": 58,
      "byteOffset": 24,
      "componentType": 5126,
      "count": 96,
      "name": "Scene/TEXCOORD_0",
      "type": "VEC2"
    },
    {
      "bufferView": 58,
      "byteOffset": 32,
      "componentType": 5126,
      "count": 96,
      "name": "Scene/COLOR_0",
      "type": "VEC4"
    },
    {
      "bufferView": 59,
      "componentType": 5123,
      "count": 420,
      "name": "Scene/INDICES",
      "type": "SCALAR"
    },
    {
      "bufferView": 60,
      "componentType": 5126,
      "count": 58,
      "max": [
        0.3464999794960022,
        -0.03619999811053276,
        1.2563999891281128
      ],
      "min": [
        0.2304999977350235,
        -0.06749999523162842,
        0.9865999817848206
      ],
      "name": "Scene/POSITION",
      "type": "VEC3"
    },
    {
      "bufferView": 60,
      "byteOffset": 12,
      "componentType": 5126,
      "count": 58,
      "name": "Scene/NORMAL",
      "type": "VEC3"
    },
    {
      "bufferView": 60,
      "byteOffset": 24,
      "componentType": 5126,
      "count": 58,
      "name": "Scene/TEXCOORD_0",
      "type": "VEC2"
    },
    {
      "bufferView": 60,
      "byteOffset": 32,
      "componentType": 5126,
      "count": 58,
      "name": "Scene/COLOR_0",
      "type": "VEC4"
    },
    {
      "bufferView": 61,
      "componentType": 5123,
      "count": 60,
      "name": "Scene/INDICES",
      "type": "SCALAR"
    },
    {
      "bufferView": 62,
      "componentType": 5126,
      "count": 387,
      "max": [
        0.5717999935150146,
        -0.06269999593496323,
        1.7968999147415161
      ],
      "min": [
        0.027799999341368675,
        -0.3904999792575836,
        1.3324999809265137
      ],
      "name": "Scene/POSITION",
      "type": "VEC3"
    },
    {
      "bufferView": 62,
      "byteOffset": 12,
      "componentType": 5126,
      "count": 387,
      "name": "Scene/NORMAL",
      "type": "VEC3"
    },
    {
      "bufferView": 62,
      "byteOffset": 24,
      "componentType": 5126,
      "count": 387,
      "name": "Scene/TEXCOORD_0",
      "type": "VEC2"
    },
    {
      "bufferView": 62,
      "byteOffset": 32,
      "componentType": 5126,
      "count": 387,
      "name": "Scene/COLOR_0",
      "type": "VEC4"
    },
    {
      "bufferView": 63,
      "componentType": 5123,
      "count": 744,
      "name": "Scene/INDICES",
      "type": "SCALAR"
    },
    {
      "bufferView": 64,
      "componentType": 5126,
      "count": 660,
      "max": [
        -0.7444999814033508,
        0.10119999945163727,
        2.0251998901367188
      ],
      "min": [
        -0.9430999755859375,
        -0.5378000140190125,
        1.3895999193191528
      ],
      "name": "Scene/POSITION",
      "type": "VEC3"
    },
    {
      "bufferView": 64,
      "byteOffset": 12,
      "componentType": 5126,
      "count": 660,
      "name": "Scene/NORMAL",
      "type": "VEC3"
    },
    {
      "bufferView": 64,
      "byteOffset": 24,
      "componentType": 5126,
      "count": 660,
      "name": "Scene/TEXCOORD_0",
      "type": "VEC2"
    },
    {
      "bufferView": 64,
      "byteOffset": 32,
      "componentType": 5126,
      "count": 660,
      "name": "Scene/COLOR_0",
      "type": "VEC4"
    },
    {
      "bufferView": 65,
      "componentType": 5123,
      "count": 3780,
      "name": "Scene/INDICES",
      "type": "SCALAR"
    },
    {
      "bufferView": 66,
      "componentType": 5126,
      "count": 660,
      "max": [
        -0.5458999872207642,
        0.10119999945163727,
        2.0251998901367188
      ],
      "min": [
        -0.7444999814033508,
        -0.5378000140190125,
        1.3895999193191528
      ],
      "name": "Scene/POSITION",
      "type": "VEC3"
    },
    {
      "bufferView": 66,
      "byteOffset": 12,
      "componentType": 5126,
      "count": 660,
      "name": "Scene/NORMAL",
      "type": "VEC3"
    },
    {
      "bufferView": 66,
      "byteOffset": 24,
      "componentType": 5126,
      "count": 660,
      "name": "Scene/TEXCOORD_0",
      "type": "VEC2"
    },
    {
      "bufferView": 66,
      "byteOffset": 32,
      "componentType": 5126,
      "count": 660,
      "name": "Scene/COLOR_0",
      "type": "VEC4"
    },
    {
      "bufferView": 67,
      "componentType": 5123,
      "count": 3780,
      "name": "Scene/INDICES",
      "type": "SCALAR"
    },
    {
      "bufferView": 68,
      "componentType": 5126,
      "count": 106,
      "max": [
        -0.7536999583244324,
        -0.12939999997615814,
        1.663100004196167
      ],
      "min": [
        -0.7700999975204468,
        -0.30719998478889465,
        1.5561000108718872
      ],
      "name": "Scene/POSITION",
      "type": "VEC3"
    },
    {
      "bufferView": 68,
      "byteOffset": 12,
      "componentType": 5126,
      "count": 106,
      "name": "Scene/NORMAL",
      "type": "VEC3"
    },
    {
      "bufferView": 68,
      "byteOffset": 24,
      "componentType": 5126,
      "count": 106,
      "name": "Scene/TEXCOORD_0",
      "type": "VEC2"
    },
    {
      "bufferView": 68,
      "byteOffset": 32,
      "componentType": 5126,
      "count": 106,
      "name": "Scene/COLOR_0",
      "type": "VEC4"
    },
    {
      "bufferView": 69,
      "componentType": 5123,
      "count": 138,
      "name": "Scene/INDICES",
      "type": "SCALAR"
    },
    {
      "bufferView": 70,
      "componentType": 5126,
      "count": 260,
      "max": [
        -0.8696999549865723,
        -0.19550000131130219,
        1.730299949645996
      ],
      "min": [
        -0.9199000000953674,
        -0.24120000004768372,
        1.6845999956130981
      ],
      "name": "Scene/POSITION",
      "type": "VEC3"
    },
    {
      "bufferView": 70,
      "byteOffset": 12,
      "componentType": 5126,
      "count": 260,
      "name": "Scene/NORMAL",
      "type": "VEC3"
    },
    {
      "bufferView": 70,
      "byteOffset": 24,
      "componentType": 5126,
      "count": 260,
      "name": "Scene/TEXCOORD_0",
      "type": "VEC2"
    },
    {
      "bufferView": 70,
      "byteOffset": 32,
      "componentType": 5126,
      "count": 260,
      "name": "Scene/COLOR_0",
      "type": "VEC4"
    },
    {
      "bufferView": 71,
      "componentType": 5123,
      "count": 300,
      "name": "Scene/INDICES",
      "type": "SCALAR"
    },
    {
      "bufferView": 72,
      "componentType": 5126,
      "count": 364,
      "max": [
        -0.7556999921798706,
        -0.07149999588727951,
        1.8539999723434448
      ],
      "min": [
        -0.7683999538421631,
        -0.3650999963283539,
        1.560499906539917
      ],
      "name": "Scene/POSITION",
      "type": "VEC3"
    },
    {
      "bufferView": 72,
      "byteOffset": 12,
      "componentType": 5126,
      "count": 364,
      "name": "Scene/NORMAL",
      "type": "VEC3"
    },
    {
      "bufferView": 72,
      "byteOffset": 24,
      "componentType": 5126,
      "count": 364,
      "name": "Scene/TEXCOORD_0",
      "type": "VEC2"
    },
    {
      "bufferView": 72,
      "byteOffset": 32,
      "componentType": 5126,
      "count": 364,
      "name": "Scene/COLOR_0",
      "type": "VEC4"
    },
    {
      "bufferView": 73,
      "componentType": 5123,
      "count": 600,
      "name": "Scene/INDICES",
      "type": "SCALAR"
    },
    {
      "bufferView": 74,
      "componentType": 5126,
      "count": 263,
      "max": [
        -0.5978999733924866,
        -0.20679999887943268,
        1.718999981880188
      ],
      "min": [
        -0.8563999533653259,
        -0.2298000007867813,
        1.6958999633789063
      ],
      "name": "Scene/POSITION",
      "type": "VEC3"
    },
    {
      "bufferView": 74,
      "byteOffset": 12,
      "componentType": 5126,
      "count": 263,
      "name": "Scene/NORMAL",
      "type": "VEC3"
    },
    {
      "bufferView": 74,
      "byteOffset": 24,
      "componentType": 5126,
      "count": 263,
      "name": "Scene/TEXCOORD_0",
      "type": "VEC2"
    },
    {
      "bufferView": 74,
      "byteOffset": 32,
      "componentType": 5126,
      "count": 263,
      "name": "Scene/COLOR_0",
      "type": "VEC4"
    },
    {
      "bufferView": 75,
      "componentType": 5123,
      "count": 600,
      "name": "Scene/INDICES",
      "type": "SCALAR"
    },
    {
      "bufferView": 76,
      "componentType": 5126,
      "count": 6796,
      "max": [
        -0.5683000087738037,
        -0.003700000001117587,
        1.920799970626831
      ],
      "min": [
        -0.920699954032898,
        -0.43289998173713684,
        1.49399995803833
      ],
      "name": "Scene/POSITION",
      "type": "VEC3"
    },
    {
      "bufferView": 76,
      "byteOffset": 12,
      "componentType": 5126,
      "count": 6796,
      "name": "Scene/NORMAL",
      "type": "VEC3"
    },
    {
      "bufferView": 76,
      "byteOffset": 24,
      "componentType": 5126,
      "count": 6796,
      "name": "Scene/TEXCOORD_0",
      "type": "VEC2"
    },
    {
      "bufferView": 76,
      "byteOffset": 32,
      "componentType": 5126,
      "count": 6796,
      "name": "Scene/COLOR_0",
      "type": "VEC4"
    },
    {
      "bufferView": 77,
      "componentType": 5123,
      "count": 8868,
      "name": "Scene/INDICES",
      "type": "SCALAR"
    },
    {
      "bufferView": 78,
      "componentType": 5126,
      "count": 660,
      "max": [
        0.9430999755859375,
        0.10119999945163727,
        2.0251998901367188
      ],
      "min": [
        0.7444999814033508,
        -0.5378000140190125,
        1.3895999193191528
      ],
      "name": "Scene/POSITION",
      "type": "VEC3"
    },
    {
      "bufferView": 78,
      "byteOffset": 12,
      "componentType": 5126,
      "count": 660,
      "name": "Scene/NORMAL",
      "type": "VEC3"
    },
    {
      "bufferView": 78,
      "byteOffset": 24,
      "componentType": 5126,
      "count": 660,
      "name": "Scene/TEXCOORD_0",
      "type": "VEC2"
    },
    {
      "bufferView": 78,
      "byteOffset": 32,
      "componentType": 5126,
      "count": 660,
      "name": "Scene/COLOR_0",
      "type": "VEC4"
    },
    {
      "bufferView": 79,
      "componentType": 5123,
      "count": 3780,
      "name": "Scene/INDICES",
      "type": "SCALAR"
    },
    {
      "bufferView": 80,
      "componentType": 5126,
      "count": 660,
      "max": [
        0.7444999814033508,
        0.10119999945163727,
        2.0251998901367188
      ],
      "min": [
        0.5458999872207642,
        -0.5378000140190125,
        1.3895999193191528
      ],
      "name": "Scene/POSITION",
      "type": "VEC3"
    },
    {
      "bufferView": 80,
      "byteOffset": 12,
      "componentType": 5126,
      "count": 660,
      "name": "Scene/NORMAL",
      "type": "VEC3"
    },
    {
      "bufferView": 80,
      "byteOffset": 24,
      "componentType": 5126,
      "count": 660,
      "name": "Scene/TEXCOORD_0",
      "type": "VEC2"
    },
    {
      "bufferView": 80,
      "byteOffset": 32,
      "componentType": 5126,
      "count": 660,
      "name": "Scene/COLOR_0",
      "type": "VEC4"
    },
    {
      "bufferView": 81,
      "componentType": 5123,
      "count": 3780,
      "name": "Scene/INDICES",
      "type": "SCALAR"
    },
    {
      "bufferView": 82,
      "componentType": 5126,
      "count": 109,
      "max": [
        0.7700999975204468,
        -0.12939999997615814,
        1.663100004196167
      ],
      "min": [
        0.7536999583244324,
        -0.30719998478889465,
        1.5561000108718872
      ],
      "name": "Scene/POSITION",
      "type": "VEC3"
    },
    {
      "bufferView": 82,
      "byteOffset": 12,
      "componentType": 5126,
      "count": 109,
      "name": "Scene/NORMAL",
      "type": "VEC3"
    },
    {
      "bufferView": 82,
      "byteOffset": 24,
      "componentType": 5126,
      "count": 109,
      "name": "Scene/TEXCOORD_0",
      "type": "VEC2"
    },
    {
      "bufferView": 82,
      "byteOffset": 32,
      "componentType": 5126,
      "count": 109,
      "name": "Scene/COLOR_0",
      "type": "VEC4"
    },
    {
      "bufferView": 83,
      "componentType": 5123,
      "count": 138,
      "name": "Scene/INDICES",
      "type": "SCALAR"
    },
    {
      "bufferView": 84,
      "componentType": 5126,
      "count": 260,
      "max": [
        0.9199000000953674,
        -0.19550000131130219,
        1.730299949645996
      ],
      "min": [
        0.8696999549865723,
        -0.24120000004768372,
        1.6845999956130981
      ],
      "name": "Scene/POSITION",
      "type": "VEC3"
    },
    {
      "bufferView": 84,
      "byteOffset": 12,
      "componentType": 5126,
      "count": 260,
      "name": "Scene/NORMAL",
      "type": "VEC3"
    },
    {
      "bufferView": 84,
      "byteOffset": 24,
      "componentType": 5126,
      "count": 260,
      "name": "Scene/TEXCOORD_0",
      "type": "VEC2"
    },
    {
      "bufferView": 84,
      "byteOffset": 32,
      "componentType": 5126,
      "count": 260,
      "name": "Scene/COLOR_0",
      "type": "VEC4"
    },
    {
      "bufferView": 85,
      "componentType": 5123,
      "count": 300,
      "name": "Scene/INDICES",
      "type": "SCALAR"
    },
    {
      "bufferView": 86,
      "componentType": 5126,
      "count": 359,
      "max": [
        0.7683999538421631,
        -0.07149999588727951,
        1.8539999723434448
      ],
      "min": [
        0.7556999921798706,
        -0.3650999963283539,
        1.560499906539917
      ],
      "name": "Scene/POSITION",
      "type": "VEC3"
    },
    {
      "bufferView": 86,
      "byteOffset": 12,
      "componentType": 5126,
      "count": 359,
      "name": "Scene/NORMAL",
      "type": "VEC3"
    },
    {
      "bufferView": 86,
      "byteOffset": 24,
      "componentType": 5126,
      "count": 359,
      "name": "Scene/TEXCOORD_0",
      "type": "VEC2"
    },
    {
      "bufferView": 86,
      "byteOffset": 32,
      "componentType": 5126,
      "count": 359,
      "name": "Scene/COLOR_0",
      "type": "VEC4"
    },
    {
      "bufferView": 87,
      "componentType": 5123,
      "count": 600,
      "name": "Scene/INDICES",
      "type": "SCALAR"
    },
    {
      "bufferView": 88,
      "componentType": 5126,
      "count": 476,
      "max": [
        0.8563999533653259,
        -0.20679999887943268,
        1.718999981880188
      ],
      "min": [
        0.5978999733924866,
        -0.2298000007867813,
        1.6958999633789063
      ],
      "name": "Scene/POSITION",
      "type": "VEC3"
    },
    {
      "bufferView": 88,
      "byteOffset": 12,
      "componentType": 5126,
      "count": 476,
      "name": "Scene/NORMAL",
      "type": "VEC3"
    },
    {
      "bufferView": 88,
      "byteOffset": 24,
      "componentType": 5126,
      "count": 476,
      "name": "Scene/TEXCOORD_0",
      "type": "VEC2"
    },
    {
      "bufferView": 88,
      "byteOffset": 32,
      "componentType": 5126,
      "count": 476,
      "name": "Scene/COLOR_0",
      "type": "VEC4"
    },
    {
      "bufferView": 89,
      "componentType": 5123,
      "count": 600,
      "name": "Scene/INDICES",
      "type": "SCALAR"
    },
    {
      "bufferView": 90,
      "componentType": 5126,
      "count": 6778,
      "max": [
        0.920699954032898,
        -0.003700000001117587,
        1.920799970626831
      ],
      "min": [
        0.5683000087738037,
        -0.43289998173713684,
        1.49399995803833
      ],
      "name": "Scene/POSITION",
      "type": "VEC3"
    },
    {
      "bufferView": 90,
      "byteOffset": 12,
      "componentType": 5126,
      "count": 6778,
      "name": "Scene/NORMAL",
      "type": "VEC3"
    },
    {
      "bufferView": 90,
      "byteOffset": 24,
      "componentType": 5126,
      "count": 6778,
      "name": "Scene/TEXCOORD_0",
      "type": "VEC2"
    },
    {
      "bufferView": 90,
      "byteOffset": 32,
      "componentType": 5126,
      "count": 6778,
      "name": "Scene/COLOR_0",
      "type": "VEC4"
    },
    {
      "bufferView": 91,
      "componentType": 5123,
      "count": 8868,
      "name": "Scene/INDICES",
      "type": "SCALAR"
    },
    {
      "bufferView": 92,
      "componentType": 5126,
      "count": 660,
      "max": [
        0.9404000043869019,
        0.10119999945163727,
        -0.8974999785423279
      ],
      "min": [
        0.7727999687194824,
        -0.5378000140190125,
        -1.5331000089645386
      ],
      "name": "Scene/POSITION",
      "type": "VEC3"
    },
    {
      "bufferView": 92,
      "byteOffset": 12,
      "componentType": 5126,
      "count": 660,
      "name": "Scene/NORMAL",
      "type": "VEC3"
    },
    {
      "bufferView": 92,
      "byteOffset": 24,
      "componentType": 5126,
      "count": 660,
      "name": "Scene/TEXCOORD_0",
      "type": "VEC2"
    },
    {
      "bufferView": 92,
      "byteOffset": 32,
      "componentType": 5126,
      "count": 660,
      "name": "Scene/COLOR_0",
      "type": "VEC4"
    },
    {
      "bufferView": 93,
      "componentType": 5123,
      "count": 3780,
      "name": "Scene/INDICES",
      "type": "SCALAR"
    },
    {
      "bufferView": 94,
      "componentType": 5126,
      "count": 660,
      "max": [
        0.7727999687194824,
        0.10119999945163727,
        -0.8974999785423279
      ],
      "min": [
        0.6050999760627747,
        -0.5378000140190125,
        -1.5331000089645386
      ],
      "name": "Scene/POSITION",
      "type": "VEC3"
    },
    {
      "bufferView": 94,
      "byteOffset": 12,
      "componentType": 5126,
      "count": 660,
      "name": "Scene/NORMAL",
      "type": "VEC3"
    },
    {
      "bufferView": 94,
      "byteOffset": 24,
      "componentType": 5126,
      "count": 660,
      "name": "Scene/TEXCOORD_0",
      "type": "VEC2"
    },
    {
      "bufferView": 94,
      "byteOffset": 32,
      "componentType": 5126,
      "count": 660,
      "name": "Scene/COLOR_0",
      "type": "VEC4"
    },
    {
      "bufferView": 95,
      "componentType": 5123,
      "count": 3780,
      "name": "Scene/INDICES",
      "type": "SCALAR"
    },
    {
      "bufferView": 96,
      "componentType": 5126,
      "count": 126,
      "max": [
        0.7943999767303467,
        -0.12939999997615814,
        -1.2595999240875244
      ],
      "min": [
        0.7804999947547913,
        -0.30719998478889465,
        -1.3665999174118042
      ],
      "name": "Scene/POSITION",
      "type": "VEC3"
    },
    {
      "bufferView": 96,
      "byteOffset": 12,
      "componentType": 5126,
      "count": 126,
      "name": "Scene/NORMAL",
      "type": "VEC3"
    },
    {
      "bufferView": 96,
      "byteOffset": 24,
      "componentType": 5126,
      "count": 126,
      "name": "Scene/TEXCOORD_0",
      "type": "VEC2"
    },
    {
      "bufferView": 96,
      "byteOffset": 32,
      "componentType": 5126,
      "count": 126,
      "name": "Scene/COLOR_0",
      "type": "VEC4"
    },
    {
      "bufferView": 97,
      "componentType": 5123,
      "count": 138,
      "name": "Scene/INDICES",
      "type": "SCALAR"
    },
    {
      "bufferView": 98,
      "componentType": 5126,
      "count": 300,
      "max": [
        0.920799970626831,
        -0.19550000131130219,
        -1.1923999786376953
      ],
      "min": [
        0.8784999847412109,
        -0.24120000004768372,
        -1.2380999326705933
      ],
      "name": "Scene/POSITION",
      "type": "VEC3"
    },
    {
      "bufferView": 98,
      "byteOffset": 12,
      "componentType": 5126,
      "count": 300,
      "name": "Scene/NORMAL",
      "type": "VEC3"
    },
    {
      "bufferView": 98,
      "byteOffset": 24,
      "componentType": 5126,
      "count": 300,
      "name": "Scene/TEXCOORD_0",
      "type": "VEC2"
    },
    {
      "bufferView": 98,
      "byteOffset": 32,
      "componentType": 5126,
      "count": 300,
      "name": "Scene/COLOR_0",
      "type": "VEC4"
    },
    {
      "bufferView": 99,
      "componentType": 5123,
      "count": 300,
      "name": "Scene/INDICES",
      "type": "SCALAR"
    },
    {
      "bufferView": 100,
      "componentType": 5126,
      "count": 534,
      "max": [
        0.7928999662399292,
        -0.07149999588727951,
        -1.0686999559402466
      ],
      "min": [
        0.7821999788284302,
        -0.3650999963283539,
        -1.3622000217437744
      ],
      "name": "Scene/POSITION",
      "type": "VEC3"
    },
    {
      "bufferView": 100,
      "byteOffset": 12,
      "componentType": 5126,
      "count": 534,
      "name": "Scene/NORMAL",
      "type": "VEC3"
    },
    {
      "bufferView": 100,
      "byteOffset": 24,
      "componentType": 5126,
      "count": 534,
      "name": "Scene/TEXCOORD_0",
      "type": "VEC2"
    },
    {
      "bufferView": 100,
      "byteOffset": 32,
      "componentType": 5126,
      "count": 534,
      "name": "Scene/COLOR_0",
      "type": "VEC4"
    },
    {
      "bufferView": 101,
      "componentType": 5123,
      "count": 600,
      "name": "Scene/INDICES",
      "type": "SCALAR"
    },
    {
      "bufferView": 102,
      "componentType": 5126,
      "count": 476,
      "max": [
        0.8671999573707581,
        -0.20679999887943268,
        -1.2036999464035034
      ],
      "min": [
        0.6489999890327454,
        -0.2298000007867813,
        -1.2267999649047852
      ],
      "name": "Scene/POSITION",
      "type": "VEC3"
    },
    {
      "bufferView": 102,
      "byteOffset": 12,
      "componentType": 5126,
      "count": 476,
      "name": "Scene/NORMAL",
      "type": "VEC3"
    },
    {
      "bufferView": 102,
      "byteOffset": 24,
      "componentType": 5126,
      "count": 476,
      "name": "Scene/TEXCOORD_0",
      "type": "VEC2"
    },
    {
      "bufferView": 102,
      "byteOffset": 32,
      "componentType": 5126,
      "count": 476,
      "name": "Scene/COLOR_0",
      "type": "VEC4"
    },
    {
      "bufferView": 103,
      "componentType": 5123,
      "count": 600,
      "name": "Scene/INDICES",
      "type": "SCALAR"
    },
    {
      "bufferView": 104,
      "componentType": 5126,
      "count": 8332,
      "max": [
        0.9214999675750732,
        -0.003700000001117587,
        -1.0018999576568604
      ],
      "min": [
        0.6240000128746033,
        -0.43289998173713684,
        -1.4286999702453613
      ],
      "name": "Scene/POSITION",
      "type": "VEC3"
    },
    {
      "bufferView": 104,
      "byteOffset": 12,
      "componentType": 5126,
      "count": 8332,
      "name": "Scene/NORMAL",
      "type": "VEC3"
    },
    {
      "bufferView": 104,
      "byteOffset": 24,
      "componentType": 5126,
      "count": 8332,
      "name": "Scene/TEXCOORD_0",
      "type": "VEC2"
    },
    {
      "bufferView": 104,
      "byteOffset": 32,
      "componentType": 5126,
      "count": 8332,
      "name": "Scene/COLOR_0",
      "type": "VEC4"
    },
    {
      "bufferView": 105,
      "componentType": 5123,
      "count": 8868,
      "name": "Scene/INDICES",
      "type": "SCALAR"
    },
    {
      "bufferView": 106,
      "componentType": 5126,
      "count": 2356,
      "max": [
        0.655299961566925,
        -0.029199998825788498,
        -1.0271999835968018
      ],
      "min": [
        0.5383999943733215,
        -0.407399982213974,
        -1.4819999933242798
      ],
      "name": "Scene/POSITION",
      "type": "VEC3"
    },
    {
      "bufferView": 106,
      "byteOffset": 12,
      "componentType": 5126,
      "count": 2356,
      "name": "Scene/NORMAL",
      "type": "VEC3"
    },
    {
      "bufferView": 106,
      "byteOffset": 24,
      "componentType": 5126,
      "count": 2356,
      "name": "Scene/TEXCOORD_0",
      "type": "VEC2"
    },
    {
      "bufferView": 106,
      "byteOffset": 32,
      "componentType": 5126,
      "count": 2356,
      "name": "Scene/COLOR_0",
      "type": "VEC4"
    },
    {
      "bufferView": 107,
      "componentType": 5123,
      "count": 2778,
      "name": "Scene/INDICES",
      "type": "SCALAR"
    },
    {
      "bufferView": 108,
      "componentType": 5126,
      "count": 660,
      "max": [
        -0.6050999760627747,
        0.10119999945163727,
        -0.8974999785423279
      ],
      "min": [
        -0.7727999687194824,
        -0.5378000140190125,
        -1.5331000089645386
      ],
      "name": "Scene/POSITION",
      "type": "VEC3"
    },
    {
      "bufferView": 108,
      "byteOffset": 12,
      "componentType": 5126,
      "count": 660,
      "name": "Scene/NORMAL",
      "type": "VEC3"
    },
    {
      "bufferView": 108,
      "byteOffset": 24,
      "componentType": 5126,
      "count": 660,
      "name": "Scene/TEXCOORD_0",
      "type": "VEC2"
    },
    {
      "bufferView": 108,
      "byteOffset": 32,
      "componentType": 5126,
      "count": 660,
      "name": "Scene/COLOR_0",
      "type": "VEC4"
    },
    {
      "bufferView": 109,
      "componentType": 5123,
      "count": 3780,
      "name": "Scene/INDICES",
      "type": "SCALAR"
    },
    {
      "bufferView": 110,
      "componentType": 5126,
      "count": 106,
      "max": [
        -0.7804999947547913,
        -0.12939999997615814,
        -1.2595999240875244
      ],
      "min": [
        -0.7943999767303467,
        -0.30719998478889465,
        -1.3665999174118042
      ],
      "name": "Scene/POSITION",
      "type": "VEC3"
    },
    {
      "bufferView": 110,
      "byteOffset": 12,
      "componentType": 5126,
      "count": 106,
      "name": "Scene/NORMAL",
      "type": "VEC3"
    },
    {
      "bufferView": 110,
      "byteOffset": 24,
      "componentType": 5126,
      "count": 106,
      "name": "Scene/TEXCOORD_0",
      "type": "VEC2"
    },
    {
      "bufferView": 110,
      "byteOffset": 32,
      "componentType": 5126,
      "count": 106,
      "name": "Scene/COLOR_0",
      "type": "VEC4"
    },
    {
      "bufferView": 111,
      "componentType": 5123,
      "count": 138,
      "name": "Scene/INDICES",
      "type": "SCALAR"
    },
    {
      "bufferView": 112,
      "componentType": 5126,
      "count": 260,
      "max": [
        -0.8784999847412109,
        -0.19550000131130219,
        -1.1923999786376953
      ],
      "min": [
        -0.920799970626831,
        -0.24120000004768372,
        -1.2380999326705933
      ],
      "name": "Scene/POSITION",
      "type": "VEC3"
    },
    {
      "bufferView": 112,
      "byteOffset": 12,
      "componentType": 5126,
      "count": 260,
      "name": "Scene/NORMAL",
      "type": "VEC3"
    },
    {
      "bufferView": 112,
      "byteOffset": 24,
      "componentType": 5126,
      "count": 260,
      "name": "Scene/TEXCOORD_0",
      "type": "VEC2"
    },
    {
      "bufferView": 112,
      "byteOffset": 32,
      "componentType": 5126,
      "count": 260,
      "name": "Scene/COLOR_0",
      "type": "VEC4"
    },
    {
      "bufferView": 113,
      "componentType": 5123,
      "count": 300,
      "name": "Scene/INDICES",
      "type": "SCALAR"
    },
    {
      "bufferView": 114,
      "componentType": 5126,
      "count": 364,
      "max": [
        -0.7821999788284302,
        -0.07149999588727951,
        -1.0686999559402466
      ],
      "min": [
        -0.7928999662399292,
        -0.3650999963283539,
        -1.3622000217437744
      ],
      "name": "Scene/POSITION",
      "type": "VEC3"
    },
    {
      "bufferView": 114,
      "byteOffset": 12,
      "componentType": 5126,
      "count": 364,
      "name": "Scene/NORMAL",
      "type": "VEC3"
    },
    {
      "bufferView": 114,
      "byteOffset": 24,
      "componentType": 5126,
      "count": 364,
      "name": "Scene/TEXCOORD_0",
      "type": "VEC2"
    },
    {
      "bufferView": 114,
      "byteOffset": 32,
      "componentType": 5126,
      "count": 364,
      "name": "Scene/COLOR_0",
      "type": "VEC4"
    },
    {
      "bufferView": 115,
      "componentType": 5123,
      "count": 600,
      "name": "Scene/INDICES",
      "type": "SCALAR"
    },
    {
      "bufferView": 116,
      "componentType": 5126,
      "count": 251,
      "max": [
        -0.6489999890327454,
        -0.20679999887943268,
        -1.2036999464035034
      ],
      "min": [
        -0.8671999573707581,
        -0.2298000007867813,
        -1.2267999649047852
      ],
      "name": "Scene/POSITION",
      "type": "VEC3"
    },
    {
      "bufferView": 116,
      "byteOffset": 12,
      "componentType": 5126,
      "count": 251,
      "name": "Scene/NORMAL",
      "type": "VEC3"
    },
    {
      "bufferView": 116,
      "byteOffset": 24,
      "componentType": 5126,
      "count": 251,
      "name": "Scene/TEXCOORD_0",
      "type": "VEC2"
    },
    {
      "bufferView": 116,
      "byteOffset": 32,
      "componentType": 5126,
      "count": 251,
      "name": "Scene/COLOR_0",
      "type": "VEC4"
    },
    {
      "bufferView": 117,
      "componentType": 5123,
      "count": 600,
      "name": "Scene/INDICES",
      "type": "SCALAR"
    },
    {
      "bufferView": 118,
      "componentType": 5126,
      "count": 1548,
      "max": [
        -0.5383999943733215,
        -0.029199998825788498,
        -1.0271999835968018
      ],
      "min": [
        -0.655299961566925,
        -0.407399982213974,
        -1.4819999933242798
      ],
      "name": "Scene/POSITION",
      "type": "VEC3"
    },
    {
      "bufferView": 118,
      "byteOffset": 12,
      "componentType": 5126,
      "count": 1548,
      "name": "Scene/NORMAL",
      "type": "VEC3"
    },
    {
      "bufferView": 118,
      "byteOffset": 24,
      "componentType": 5126,
      "count": 1548,
      "name": "Scene/TEXCOORD_0",
      "type": "VEC2"
    },
    {
      "bufferView": 118,
      "byteOffset": 32,
      "componentType": 5126,
      "count": 1548,
      "name": "Scene/COLOR_0",
      "type": "VEC4"
    },
    {
      "bufferView": 119,
      "componentType": 5123,
      "count": 2778,
      "name": "Scene/INDICES",
      "type": "SCALAR"
    },
    {
      "bufferView": 120,
      "componentType": 5126,
      "count": 1456,
      "max": [
        0.6053000092506409,
        -0.029199998825788498,
        1.8954999446868896
      ],
      "min": [
        0.48180001974105835,
        -0.407399982213974,
        1.4406999349594116
      ],
      "name": "Scene/POSITION",
      "type": "VEC3"
    },
    {
      "bufferView": 120,
      "byteOffset": 12,
      "componentType": 5126,
      "count": 1456,
      "name": "Scene/NORMAL",
      "type": "VEC3"
    },
    {
      "bufferView": 120,
      "byteOffset": 24,
      "componentType": 5126,
      "count": 1456,
      "name": "Scene/TEXCOORD_0",
      "type": "VEC2"
    },
    {
      "bufferView": 120,
      "byteOffset": 32,
      "componentType": 5126,
      "count": 1456,
      "name": "Scene/COLOR_0",
      "type": "VEC4"
    },
    {
      "bufferView": 121,
      "componentType": 5123,
      "count": 2778,
      "name": "Scene/INDICES",
      "type": "SCALAR"
    }
  ],
  "asset": {
    "copyright": "Copyright (c) 2018-2020 Chukong Technologies Inc.",
    "generator": "FBX-glTF-conv",
    "version": "2.0"
  },
  "bufferViews": [
    {
      "buffer": 0,
      "byteLength": 70032,
      "byteStride": 48,
      "name": "Scene",
      "target": 34962
    },
    {
      "buffer": 0,
      "byteLength": 5556,
      "byteOffset": 70032,
      "target": 34963
    },
    {
      "buffer": 0,
      "byteLength": 31680,
      "byteOffset": 75588,
      "byteStride": 48,
      "name": "Scene",
      "target": 34962
    },
    {
      "buffer": 0,
      "byteLength": 7560,
      "byteOffset": 107268,
      "target": 34963
    },
    {
      "buffer": 0,
      "byteLength": 327504,
      "byteOffset": 114828,
      "byteStride": 48,
      "name": "Scene",
      "target": 34962
    },
    {
      "buffer": 0,
      "byteLength": 17736,
      "byteOffset": 442332,
      "target": 34963
    },
    {
      "buffer": 0,
      "byteLength": 941184,
      "byteOffset": 460068,
      "byteStride": 48,
      "name": "Scene",
      "target": 34962
    },
    {
      "buffer": 0,
      "byteLength": 47568,
      "byteOffset": 1401252,
      "target": 34963
    },
    {
      "buffer": 0,
      "byteLength": 355104,
      "byteOffset": 1448820,
      "byteStride": 48,
      "name": "Scene",
      "target": 34962
    },
    {
      "buffer": 0,
      "byteLength": 17880,
      "byteOffset": 1803924,
      "target": 34963
    },
    {
      "buffer": 0,
      "byteLength": 576,
      "byteOffset": 1821804,
      "byteStride": 48,
      "name": "Scene",
      "target": 34962
    },
    {
      "buffer": 0,
      "byteLength": 60,
      "byteOffset": 1822380,
      "target": 34963
    },
    {
      "buffer": 0,
      "byteLength": 158016,
      "byteOffset": 1822440,
      "byteStride": 48,
      "name": "Scene",
      "target": 34962
    },
    {
      "buffer": 0,
      "byteLength": 6864,
      "byteOffset": 1980456,
      "target": 34963
    },
    {
      "buffer": 0,
      "byteLength": 8640,
      "byteOffset": 1987320,
      "byteStride": 48,
      "name": "Scene",
      "target": 34962
    },
    {
      "buffer": 0,
      "byteLength": 360,
      "byteOffset": 1995960,
      "target": 34963
    },
    {
      "buffer": 0,
      "byteLength": 15792,
      "byteOffset": 1996320,
      "byteStride": 48,
      "name": "Scene",
      "target": 34962
    },
    {
      "buffer": 0,
      "byteLength": 744,
      "byteOffset": 2012112,
      "target": 34963
    },
    {
      "buffer": 0,
      "byteLength": 41280,
      "byteOffset": 2012856,
      "byteStride": 48,
      "name": "Scene",
      "target": 34962
    },
    {
      "buffer": 0,
      "byteLength": 2712,
      "byteOffset": 2054136,
      "target": 34963
    },
    {
      "buffer": 0,
      "byteLength": 3552,
      "byteOffset": 2056848,
      "byteStride": 48,
      "name": "Scene",
      "target": 34962
    },
    {
      "buffer": 0,
      "byteLength": 168,
      "byteOffset": 2060400,
      "target": 34963
    },
    {
      "buffer": 0,
      "byteLength": 14064,
      "byteOffset": 2060568,
      "byteStride": 48,
      "name": "Scene",
      "target": 34962
    },
    {
      "buffer": 0,
      "byteLength": 840,
      "byteOffset": 2074632,
      "target": 34963
    },
    {
      "buffer": 0,
      "byteLength": 9312,
      "byteOffset": 2075472,
      "byteStride": 48,
      "name": "Scene",
      "target": 34962
    },
    {
      "buffer": 0,
      "byteLength": 672,
      "byteOffset": 2084784,
      "target": 34963
    },
    {
      "buffer": 0,
      "byteLength": 4608,
      "byteOffset": 2085456,
      "byteStride": 48,
      "name": "Scene",
      "target": 34962
    },
    {
      "buffer": 0,
      "byteLength": 840,
      "byteOffset": 2090064,
      "target": 34963
    },
    {
      "buffer": 0,
      "byteLength": 18576,
      "byteOffset": 2090904,
      "byteStride": 48,
      "name": "Scene",
      "target": 34962
    },
    {
      "buffer": 0,
      "byteLength": 1488,
      "byteOffset": 2109480,
      "target": 34963
    },
    {
      "buffer": 0,
      "byteLength": 3024,
      "byteOffset": 2110968,
      "byteStride": 48,
      "name": "Scene",
      "target": 34962
    },
    {
      "buffer": 0,
      "byteLength": 216,
      "byteOffset": 2113992,
      "target": 34963
    },
    {
      "buffer": 0,
      "byteLength": 1728,
      "byteOffset": 2114208,
      "byteStride": 48,
      "name": "Scene",
      "target": 34962
    },
    {
      "buffer": 0,
      "byteLength": 120,
      "byteOffset": 2115936,
      "target": 34963
    },
    {
      "buffer": 0,
      "byteLength": 19968,
      "byteOffset": 2116056,
      "byteStride": 48,
      "name": "Scene",
      "target": 34962
    },
    {
      "buffer": 0,
      "byteLength": 1056,
      "byteOffset": 2136024,
      "target": 34963
    },
    {
      "buffer": 0,
      "byteLength": 3168,
      "byteOffset": 2137080,
      "byteStride": 48,
      "name": "Scene",
      "target": 34962
    },
    {
      "buffer": 0,
      "byteLength": 216,
      "byteOffset": 2140248,
      "target": 34963
    },
    {
      "buffer": 0,
      "byteLength": 1728,
      "byteOffset": 2140464,
      "byteStride": 48,
      "name": "Scene",
      "target": 34962
    },
    {
      "buffer": 0,
      "byteLength": 120,
      "byteOffset": 2142192,
      "target": 34963
    },
    {
      "buffer": 0,
      "byteLength": 19824,
      "byteOffset": 2142312,
      "byteStride": 48,
      "name": "Scene",
      "target": 34962
    },
    {
      "buffer": 0,
      "byteLength": 1056,
      "byteOffset": 2162136,
      "target": 34963
    },
    {
      "buffer": 0,
      "byteLength": 14208,
      "byteOffset": 2163192,
      "byteStride": 48,
      "name": "Scene",
      "target": 34962
    },
    {
      "buffer": 0,
      "byteLength": 840,
      "byteOffset": 2177400,
      "target": 34963
    },
    {
      "buffer": 0,
      "byteLength": 3984,
      "byteOffset": 2178240,
      "byteStride": 48,
      "name": "Scene",
      "target": 34962
    },
    {
      "buffer": 0,
      "byteLength": 168,
      "byteOffset": 2182224,
      "target": 34963
    },
    {
      "buffer": 0,
      "byteLength": 432,
      "byteOffset": 2182392,
      "byteStride": 48,
      "name": "Scene",
      "target": 34962
    },
    {
      "buffer": 0,
      "byteLength": 24,
      "byteOffset": 2182824,
      "target": 34963
    },
    {
      "buffer": 0,
      "byteLength": 14400,
      "byteOffset": 2182848,
      "byteStride": 48,
      "name": "Scene",
      "target": 34962
    },
    {
      "buffer": 0,
      "byteLength": 612,
      "byteOffset": 2197248,
      "target": 34963
    },
    {
      "buffer": 0,
      "byteLength": 15744,
      "byteOffset": 2197860,
      "byteStride": 48,
      "name": "Scene",
      "target": 34962
    },
    {
      "buffer": 0,
      "byteLength": 744,
      "byteOffset": 2213604,
      "target": 34963
    },
    {
      "buffer": 0,
      "byteLength": 8544,
      "byteOffset": 2214348,
      "byteStride": 48,
      "name": "Scene",
      "target": 34962
    },
    {
      "buffer": 0,
      "byteLength": 360,
      "byteOffset": 2222892,
      "target": 34963
    },
    {
      "buffer": 0,
      "byteLength": 14400,
      "byteOffset": 2223252,
      "byteStride": 48,
      "name": "Scene",
      "target": 34962
    },
    {
      "buffer": 0,
      "byteLength": 612,
      "byteOffset": 2237652,
      "target": 34963
    },
    {
      "buffer": 0,
      "byteLength": 1200,
      "byteOffset": 2238264,
      "byteStride": 48,
      "name": "Scene",
      "target": 34962
    },
    {
      "buffer": 0,
      "byteLength": 60,
      "byteOffset": 2239464,
      "target": 34963
    },
    {
      "buffer": 0,
      "byteLength": 4608,
      "byteOffset": 2239524,
      "byteStride": 48,
      "name": "Scene",
      "target": 34962
    },
    {
      "buffer": 0,
      "byteLength": 840,
      "byteOffset": 2244132,
      "target": 34963
    },
    {
      "buffer": 0,
      "byteLength": 2784,
      "byteOffset": 2244972,
      "byteStride": 48,
      "name": "Scene",
      "target": 34962
    },
    {
      "buffer": 0,
      "byteLength": 120,
      "byteOffset": 2247756,
      "target": 34963
    },
    {
      "buffer": 0,
      "byteLength": 18576,
      "byteOffset": 2247876,
      "byteStride": 48,
      "name": "Scene",
      "target": 34962
    },
    {
      "buffer": 0,
      "byteLength": 1488,
      "byteOffset": 2266452,
      "target": 34963
    },
    {
      "buffer": 0,
      "byteLength": 31680,
      "byteOffset": 2267940,
      "byteStride": 48,
      "name": "Scene",
      "target": 34962
    },
    {
      "buffer": 0,
      "byteLength": 7560,
      "byteOffset": 2299620,
      "target": 34963
    },
    {
      "buffer": 0,
      "byteLength": 31680,
      "byteOffset": 2307180,
      "byteStride": 48,
      "name": "Scene",
      "target": 34962
    },
    {
      "buffer": 0,
      "byteLength": 7560,
      "byteOffset": 2338860,
      "target": 34963
    },
    {
      "buffer": 0,
      "byteLength": 5088,
      "byteOffset": 2346420,
      "byteStride": 48,
      "name": "Scene",
      "target": 34962
    },
    {
      "buffer": 0,
      "byteLength": 276,
      "byteOffset": 2351508,
      "target": 34963
    },
    {
      "buffer": 0,
      "byteLength": 12480,
      "byteOffset": 2351784,
      "byteStride": 48,
      "name": "Scene",
      "target": 34962
    },
    {
      "buffer": 0,
      "byteLength": 600,
      "byteOffset": 2364264,
      "target": 34963
    },
    {
      "buffer": 0,
      "byteLength": 17472,
      "byteOffset": 2364864,
      "byteStride": 48,
      "name": "Scene",
      "target": 34962
    },
    {
      "buffer": 0,
      "byteLength": 1200,
      "byteOffset": 2382336,
      "target": 34963
    },
    {
      "buffer": 0,
      "byteLength": 12624,
      "byteOffset": 2383536,
      "byteStride": 48,
      "name": "Scene",
      "target": 34962
    },
    {
      "buffer": 0,
      "byteLength": 1200,
      "byteOffset": 2396160,
      "target": 34963
    },
    {
      "buffer": 0,
      "byteLength": 326208,
      "byteOffset": 2397360,
      "byteStride": 48,
      "name": "Scene",
      "target": 34962
    },
    {
      "buffer": 0,
      "byteLength": 17736,
      "byteOffset": 2723568,
      "target": 34963
    },
    {
      "buffer": 0,
      "byteLength": 31680,
      "byteOffset": 2741304,
      "byteStride": 48,
      "name": "Scene",
      "target": 34962
    },
    {
      "buffer": 0,
      "byteLength": 7560,
      "byteOffset": 2772984,
      "target": 34963
    },
    {
      "buffer": 0,
      "byteLength": 31680,
      "byteOffset": 2780544,
      "byteStride": 48,
      "name": "Scene",
      "target": 34962
    },
    {
      "buffer": 0,
      "byteLength": 7560,
      "byteOffset": 2812224,
      "target": 34963
    },
    {
      "buffer": 0,
      "byteLength": 5232,
      "byteOffset": 2819784,
      "byteStride": 48,
      "name": "Scene",
      "target": 34962
    },
    {
      "buffer": 0,
      "byteLength": 276,
      "byteOffset": 2825016,
      "target": 34963
    },
    {
      "buffer": 0,
      "byteLength": 12480,
      "byteOffset": 2825292,
      "byteStride": 48,
      "name": "Scene",
      "target": 34962
    },
    {
      "buffer": 0,
      "byteLength": 600,
      "byteOffset": 2837772,
      "target": 34963
    },
    {
      "buffer": 0,
      "byteLength": 17232,
      "byteOffset": 2838372,
      "byteStride": 48,
      "name": "Scene",
      "target": 34962
    },
    {
      "buffer": 0,
      "byteLength": 1200,
      "byteOffset": 2855604,
      "target": 34963
    },
    {
      "buffer": 0,
      "byteLength": 22848,
      "byteOffset": 2856804,
      "byteStride": 48,
      "name": "Scene",
      "target": 34962
    },
    {
      "buffer": 0,
      "byteLength": 1200,
      "byteOffset": 2879652,
      "target": 34963
    },
    {
      "buffer": 0,
      "byteLength": 325344,
      "byteOffset": 2880852,
      "byteStride": 48,
      "name": "Scene",
      "target": 34962
    },
    {
      "buffer": 0,
      "byteLength": 17736,
      "byteOffset": 3206196,
      "target": 34963
    },
    {
      "buffer": 0,
      "byteLength": 31680,
      "byteOffset": 3223932,
      "byteStride": 48,
      "name": "Scene",
      "target": 34962
    },
    {
      "buffer": 0,
      "byteLength": 7560,
      "byteOffset": 3255612,
      "target": 34963
    },
    {
      "buffer": 0,
      "byteLength": 31680,
      "byteOffset": 3263172,
      "byteStride": 48,
      "name": "Scene",
      "target": 34962
    },
    {
      "buffer": 0,
      "byteLength": 7560,
      "byteOffset": 3294852,
      "target": 34963
    },
    {
      "buffer": 0,
      "byteLength": 6048,
      "byteOffset": 3302412,
      "byteStride": 48,
      "name": "Scene",
      "target": 34962
    },
    {
      "buffer": 0,
      "byteLength": 276,
      "byteOffset": 3308460,
      "target": 34963
    },
    {
      "buffer": 0,
      "byteLength": 14400,
      "byteOffset": 3308736,
      "byteStride": 48,
      "name": "Scene",
      "target": 34962
    },
    {
      "buffer": 0,
      "byteLength": 600,
      "byteOffset": 3323136,
      "target": 34963
    },
    {
      "buffer": 0,
      "byteLength": 25632,
      "byteOffset": 3323736,
      "byteStride": 48,
      "name": "Scene",
      "target": 34962
    },
    {
      "buffer": 0,
      "byteLength": 1200,
      "byteOffset": 3349368,
      "target": 34963
    },
    {
      "buffer": 0,
      "byteLength": 22848,
      "byteOffset": 3350568,
      "byteStride": 48,
      "name": "Scene",
      "target": 34962
    },
    {
      "buffer": 0,
      "byteLength": 1200,
      "byteOffset": 3373416,
      "target": 34963
    },
    {
      "buffer": 0,
      "byteLength": 399936,
      "byteOffset": 3374616,
      "byteStride": 48,
      "name": "Scene",
      "target": 34962
    },
    {
      "buffer": 0,
      "byteLength": 17736,
      "byteOffset": 3774552,
      "target": 34963
    },
    {
      "buffer": 0,
      "byteLength": 113088,
      "byteOffset": 3792288,
      "byteStride": 48,
      "name": "Scene",
      "target": 34962
    },
    {
      "buffer": 0,
      "byteLength": 5556,
      "byteOffset": 3905376,
      "target": 34963
    },
    {
      "buffer": 0,
      "byteLength": 31680,
      "byteOffset": 3910932,
      "byteStride": 48,
      "name": "Scene",
      "target": 34962
    },
    {
      "buffer": 0,
      "byteLength": 7560,
      "byteOffset": 3942612,
      "target": 34963
    },
    {
      "buffer": 0,
      "byteLength": 5088,
      "byteOffset": 3950172,
      "byteStride": 48,
      "name": "Scene",
      "target": 34962
    },
    {
      "buffer": 0,
      "byteLength": 276,
      "byteOffset": 3955260,
      "target": 34963
    },
    {
      "buffer": 0,
      "byteLength": 12480,
      "byteOffset": 3955536,
      "byteStride": 48,
      "name": "Scene",
      "target": 34962
    },
    {
      "buffer": 0,
      "byteLength": 600,
      "byteOffset": 3968016,
      "target": 34963
    },
    {
      "buffer": 0,
      "byteLength": 17472,
      "byteOffset": 3968616,
      "byteStride": 48,
      "name": "Scene",
      "target": 34962
    },
    {
      "buffer": 0,
      "byteLength": 1200,
      "byteOffset": 3986088,
      "target": 34963
    },
    {
      "buffer": 0,
      "byteLength": 12048,
      "byteOffset": 3987288,
      "byteStride": 48,
      "name": "Scene",
      "target": 34962
    },
    {
      "buffer": 0,
      "byteLength": 1200,
      "byteOffset": 3999336,
      "target": 34963
    },
    {
      "buffer": 0,
      "byteLength": 74304,
      "byteOffset": 4000536,
      "byteStride": 48,
      "name": "Scene",
      "target": 34962
    },
    {
      "buffer": 0,
      "byteLength": 5556,
      "byteOffset": 4074840,
      "target": 34963
    },
    {
      "buffer": 0,
      "byteLength": 69888,
      "byteOffset": 4080396,
      "byteStride": 48,
      "name": "Scene",
      "target": 34962
    },
    {
      "buffer": 0,
      "byteLength": 5556,
      "byteOffset": 4150284,
      "target": 34963
    }
  ],
  "buffers": [
    {
      "byteLength": 4155840,
      "uri": "out.bin"
    }
  ],
  "extras": {
    "FBX-glTF-conv": {
      "animationFrameRate": 30.0,
      "fbxFileHeaderInfo": {
        "creationTimeStamp": {
          "day": 6,
          "hour": 19,
          "millisecond": 0,
          "minute": 44,
          "month": 10,
          "second": 26,
          "year": 2023
        },
        "creator": "3D Modeling APP",
        "sceneInfo": {
          "author": "Serhii Shevchenko",
          "comment": "",
          "keywords": "",
          "original": {
            "applicationName": "3D Modeling APP",
            "applicationVendor": "",
            "applicationVersion": "1.16.12",
            "fileName": ""
          },
          "revision": "",
          "subject": "",
          "title": "",
          "url": "D:\\GameByself\\Cocos\\Project1\\assets\\resources\\UI\\Formula F04 (2).fbx"
        }
      }
    }
  },
  "meshes": [
    {
      "name": "Scene",
      "primitives": [
        {
          "attributes": {
            "COLOR_0": 3,
            "NORMAL": 1,
            "POSITION": 0,
            "TEXCOORD_0": 2
          },
          "indices": 4
        }
      ]
    },
    {
      "name": "Scene",
      "primitives": [
        {
          "attributes": {
            "COLOR_0": 8,
            "NORMAL": 6,
            "POSITION": 5,
            "TEXCOORD_0": 7
          },
          "indices": 9
        }
      ]
    },
    {
      "name": "Scene",
      "primitives": [
        {
          "attributes": {
            "COLOR_0": 13,
            "NORMAL": 11,
            "POSITION": 10,
            "TEXCOORD_0": 12
          },
          "indices": 14
        }
      ]
    },
    {
      "name": "Scene",
      "primitives": [
        {
          "attributes": {
            "COLOR_0": 18,
            "NORMAL": 16,
            "POSITION": 15,
            "TEXCOORD_0": 17
          },
          "indices": 19
        }
      ]
    },
    {
      "name": "Scene",
      "primitives": [
        {
          "attributes": {
            "COLOR_0": 23,
            "NORMAL": 21,
            "POSITION": 20,
            "TEXCOORD_0": 22
          },
          "indices": 24
        }
      ]
    },
    {
      "name": "Scene",
      "primitives": [
        {
          "attributes": {
            "COLOR_0": 28,
            "NORMAL": 26,
            "POSITION": 25,
            "TEXCOORD_0": 27
          },
          "indices": 29
        }
      ]
    },
    {
      "name": "Scene",
      "primitives": [
        {
          "attributes": {
            "COLOR_0": 33,
            "NORMAL": 31,
            "POSITION": 30,
            "TEXCOORD_0": 32
          },
          "indices": 34
        }
      ]
    },
    {
      "name": "Scene",
      "primitives": [
        {
          "attributes": {
            "COLOR_0": 38,
            "NORMAL": 36,
            "POSITION": 35,
            "TEXCOORD_0": 37
          },
          "indices": 39
        }
      ]
    },
    {
      "name": "Scene",
      "primitives": [
        {
          "attributes": {
            "COLOR_0": 43,
            "NORMAL": 41,
            "POSITION": 40,
            "TEXCOORD_0": 42
          },
          "indices": 44
        }
      ]
    },
    {
      "name": "Scene",
      "primitives": [
        {
          "attributes": {
            "COLOR_0": 48,
            "NORMAL": 46,
            "POSITION": 45,
            "TEXCOORD_0": 47
          },
          "indices": 49
        }
      ]
    },
    {
      "name": "Scene",
      "primitives": [
        {
          "attributes": {
            "COLOR_0": 53,
            "NORMAL": 51,
            "POSITION": 50,
            "TEXCOORD_0": 52
          },
          "indices": 54
        }
      ]
    },
    {
      "name": "Scene",
      "primitives": [
        {
          "attributes": {
            "COLOR_0": 58,
            "NORMAL": 56,
            "POSITION": 55,
            "TEXCOORD_0": 57
          },
          "indices": 59
        }
      ]
    },
    {
      "name": "Scene",
      "primitives": [
        {
          "attributes": {
            "COLOR_0": 63,
            "NORMAL": 61,
            "POSITION": 60,
            "TEXCOORD_0": 62
          },
          "indices": 64
        }
      ]
    },
    {
      "name": "Scene",
      "primitives": [
        {
          "attributes": {
            "COLOR_0": 68,
            "NORMAL": 66,
            "POSITION": 65,
            "TEXCOORD_0": 67
          },
          "indices": 69
        }
      ]
    },
    {
      "name": "Scene",
      "primitives": [
        {
          "attributes": {
            "COLOR_0": 73,
            "NORMAL": 71,
            "POSITION": 70,
            "TEXCOORD_0": 72
          },
          "indices": 74
        }
      ]
    },
    {
      "name": "Scene",
      "primitives": [
        {
          "attributes": {
            "COLOR_0": 78,
            "NORMAL": 76,
            "POSITION": 75,
            "TEXCOORD_0": 77
          },
          "indices": 79
        }
      ]
    },
    {
      "name": "Scene",
      "primitives": [
        {
          "attributes": {
            "COLOR_0": 83,
            "NORMAL": 81,
            "POSITION": 80,
            "TEXCOORD_0": 82
          },
          "indices": 84
        }
      ]
    },
    {
      "name": "Scene",
      "primitives": [
        {
          "attributes": {
            "COLOR_0": 88,
            "NORMAL": 86,
            "POSITION": 85,
            "TEXCOORD_0": 87
          },
          "indices": 89
        }
      ]
    },
    {
      "name": "Scene",
      "primitives": [
        {
          "attributes": {
            "COLOR_0": 93,
            "NORMAL": 91,
            "POSITION": 90,
            "TEXCOORD_0": 92
          },
          "indices": 94
        }
      ]
    },
    {
      "name": "Scene",
      "primitives": [
        {
          "attributes": {
            "COLOR_0": 98,
            "NORMAL": 96,
            "POSITION": 95,
            "TEXCOORD_0": 97
          },
          "indices": 99
        }
      ]
    },
    {
      "name": "Scene",
      "primitives": [
        {
          "attributes": {
            "COLOR_0": 103,
            "NORMAL": 101,
            "POSITION": 100,
            "TEXCOORD_0": 102
          },
          "indices": 104
        }
      ]
    },
    {
      "name": "Scene",
      "primitives": [
        {
          "attributes": {
            "COLOR_0": 108,
            "NORMAL": 106,
            "POSITION": 105,
            "TEXCOORD_0": 107
          },
          "indices": 109
        }
      ]
    },
    {
      "name": "Scene",
      "primitives": [
        {
          "attributes": {
            "COLOR_0": 113,
            "NORMAL": 111,
            "POSITION": 110,
            "TEXCOORD_0": 112
          },
          "indices": 114
        }
      ]
    },
    {
      "name": "Scene",
      "primitives": [
        {
          "attributes": {
            "COLOR_0": 118,
            "NORMAL": 116,
            "POSITION": 115,
            "TEXCOORD_0": 117
          },
          "indices": 119
        }
      ]
    },
    {
      "name": "Scene",
      "primitives": [
        {
          "attributes": {
            "COLOR_0": 123,
            "NORMAL": 121,
            "POSITION": 120,
            "TEXCOORD_0": 122
          },
          "indices": 124
        }
      ]
    },
    {
      "name": "Scene",
      "primitives": [
        {
          "attributes": {
            "COLOR_0": 128,
            "NORMAL": 126,
            "POSITION": 125,
            "TEXCOORD_0": 127
          },
          "indices": 129
        }
      ]
    },
    {
      "name": "Scene",
      "primitives": [
        {
          "attributes": {
            "COLOR_0": 133,
            "NORMAL": 131,
            "POSITION": 130,
            "TEXCOORD_0": 132
          },
          "indices": 134
        }
      ]
    },
    {
      "name": "Scene",
      "primitives": [
        {
          "attributes": {
            "COLOR_0": 138,
            "NORMAL": 136,
            "POSITION": 135,
            "TEXCOORD_0": 137
          },
          "indices": 139
        }
      ]
    },
    {
      "name": "Scene",
      "primitives": [
        {
          "attributes": {
            "COLOR_0": 143,
            "NORMAL": 141,
            "POSITION": 140,
            "TEXCOORD_0": 142
          },
          "indices": 144
        }
      ]
    },
    {
      "name": "Scene",
      "primitives": [
        {
          "attributes": {
            "COLOR_0": 148,
            "NORMAL": 146,
            "POSITION": 145,
            "TEXCOORD_0": 147
          },
          "indices": 149
        }
      ]
    },
    {
      "name": "Scene",
      "primitives": [
        {
          "attributes": {
            "COLOR_0": 153,
            "NORMAL": 151,
            "POSITION": 150,
            "TEXCOORD_0": 152
          },
          "indices": 154
        }
      ]
    },
    {
      "name": "Scene",
      "primitives": [
        {
          "attributes": {
            "COLOR_0": 158,
            "NORMAL": 156,
            "POSITION": 155,
            "TEXCOORD_0": 157
          },
          "indices": 159
        }
      ]
    },
    {
      "name": "Scene",
      "primitives": [
        {
          "attributes": {
            "COLOR_0": 163,
            "NORMAL": 161,
            "POSITION": 160,
            "TEXCOORD_0": 162
          },
          "indices": 164
        }
      ]
    },
    {
      "name": "Scene",
      "primitives": [
        {
          "attributes": {
            "COLOR_0": 168,
            "NORMAL": 166,
            "POSITION": 165,
            "TEXCOORD_0": 167
          },
          "indices": 169
        }
      ]
    },
    {
      "name": "Scene",
      "primitives": [
        {
          "attributes": {
            "COLOR_0": 173,
            "NORMAL": 171,
            "POSITION": 170,
            "TEXCOORD_0": 172
          },
          "indices": 174
        }
      ]
    },
    {
      "name": "Scene",
      "primitives": [
        {
          "attributes": {
            "COLOR_0": 178,
            "NORMAL": 176,
            "POSITION": 175,
            "TEXCOORD_0": 177
          },
          "indices": 179
        }
      ]
    },
    {
      "name": "Scene",
      "primitives": [
        {
          "attributes": {
            "COLOR_0": 183,
            "NORMAL": 181,
            "POSITION": 180,
            "TEXCOORD_0": 182
          },
          "indices": 184
        }
      ]
    },
    {
      "name": "Scene",
      "primitives": [
        {
          "attributes": {
            "COLOR_0": 188,
            "NORMAL": 186,
            "POSITION": 185,
            "TEXCOORD_0": 187
          },
          "indices": 189
        }
      ]
    },
    {
      "name": "Scene",
      "primitives": [
        {
          "attributes": {
            "COLOR_0": 193,
            "NORMAL": 191,
            "POSITION": 190,
            "TEXCOORD_0": 192
          },
          "indices": 194
        }
      ]
    },
    {
      "name": "Scene",
      "primitives": [
        {
          "attributes": {
            "COLOR_0": 198,
            "NORMAL": 196,
            "POSITION": 195,
            "TEXCOORD_0": 197
          },
          "indices": 199
        }
      ]
    },
    {
      "name": "Scene",
      "primitives": [
        {
          "attributes": {
            "COLOR_0": 203,
            "NORMAL": 201,
            "POSITION": 200,
            "TEXCOORD_0": 202
          },
          "indices": 204
        }
      ]
    },
    {
      "name": "Scene",
      "primitives": [
        {
          "attributes": {
            "COLOR_0": 208,
            "NORMAL": 206,
            "POSITION": 205,
            "TEXCOORD_0": 207
          },
          "indices": 209
        }
      ]
    },
    {
      "name": "Scene",
      "primitives": [
        {
          "attributes": {
            "COLOR_0": 213,
            "NORMAL": 211,
            "POSITION": 210,
            "TEXCOORD_0": 212
          },
          "indices": 214
        }
      ]
    },
    {
      "name": "Scene",
      "primitives": [
        {
          "attributes": {
            "COLOR_0": 218,
            "NORMAL": 216,
            "POSITION": 215,
            "TEXCOORD_0": 217
          },
          "indices": 219
        }
      ]
    },
    {
      "name": "Scene",
      "primitives": [
        {
          "attributes": {
            "COLOR_0": 223,
            "NORMAL": 221,
            "POSITION": 220,
            "TEXCOORD_0": 222
          },
          "indices": 224
        }
      ]
    },
    {
      "name": "Scene",
      "primitives": [
        {
          "attributes": {
            "COLOR_0": 228,
            "NORMAL": 226,
            "POSITION": 225,
            "TEXCOORD_0": 227
          },
          "indices": 229
        }
      ]
    },
    {
      "name": "Scene",
      "primitives": [
        {
          "attributes": {
            "COLOR_0": 233,
            "NORMAL": 231,
            "POSITION": 230,
            "TEXCOORD_0": 232
          },
          "indices": 234
        }
      ]
    },
    {
      "name": "Scene",
      "primitives": [
        {
          "attributes": {
            "COLOR_0": 238,
            "NORMAL": 236,
            "POSITION": 235,
            "TEXCOORD_0": 237
          },
          "indices": 239
        }
      ]
    },
    {
      "name": "Scene",
      "primitives": [
        {
          "attributes": {
            "COLOR_0": 243,
            "NORMAL": 241,
            "POSITION": 240,
            "TEXCOORD_0": 242
          },
          "indices": 244
        }
      ]
    },
    {
      "name": "Scene",
      "primitives": [
        {
          "attributes": {
            "COLOR_0": 248,
            "NORMAL": 246,
            "POSITION": 245,
            "TEXCOORD_0": 247
          },
          "indices": 249
        }
      ]
    },
    {
      "name": "Scene",
      "primitives": [
        {
          "attributes": {
            "COLOR_0": 253,
            "NORMAL": 251,
            "POSITION": 250,
            "TEXCOORD_0": 252
          },
          "indices": 254
        }
      ]
    },
    {
      "name": "Scene",
      "primitives": [
        {
          "attributes": {
            "COLOR_0": 258,
            "NORMAL": 256,
            "POSITION": 255,
            "TEXCOORD_0": 257
          },
          "indices": 259
        }
      ]
    },
    {
      "name": "Scene",
      "primitives": [
        {
          "attributes": {
            "COLOR_0": 263,
            "NORMAL": 261,
            "POSITION": 260,
            "TEXCOORD_0": 262
          },
          "indices": 264
        }
      ]
    },
    {
      "name": "Scene",
      "primitives": [
        {
          "attributes": {
            "COLOR_0": 268,
            "NORMAL": 266,
            "POSITION": 265,
            "TEXCOORD_0": 267
          },
          "indices": 269
        }
      ]
    },
    {
      "name": "Scene",
      "primitives": [
        {
          "attributes": {
            "COLOR_0": 273,
            "NORMAL": 271,
            "POSITION": 270,
            "TEXCOORD_0": 272
          },
          "indices": 274
        }
      ]
    },
    {
      "name": "Scene",
      "primitives": [
        {
          "attributes": {
            "COLOR_0": 278,
            "NORMAL": 276,
            "POSITION": 275,
            "TEXCOORD_0": 277
          },
          "indices": 279
        }
      ]
    },
    {
      "name": "Scene",
      "primitives": [
        {
          "attributes": {
            "COLOR_0": 283,
            "NORMAL": 281,
            "POSITION": 280,
            "TEXCOORD_0": 282
          },
          "indices": 284
        }
      ]
    },
    {
      "name": "Scene",
      "primitives": [
        {
          "attributes": {
            "COLOR_0": 288,
            "NORMAL": 286,
            "POSITION": 285,
            "TEXCOORD_0": 287
          },
          "indices": 289
        }
      ]
    },
    {
      "name": "Scene",
      "primitives": [
        {
          "attributes": {
            "COLOR_0": 293,
            "NORMAL": 291,
            "POSITION": 290,
            "TEXCOORD_0": 292
          },
          "indices": 294
        }
      ]
    },
    {
      "name": "Scene",
      "primitives": [
        {
          "attributes": {
            "COLOR_0": 298,
            "NORMAL": 296,
            "POSITION": 295,
            "TEXCOORD_0": 297
          },
          "indices": 299
        }
      ]
    },
    {
      "name": "Scene",
      "primitives": [
        {
          "attributes": {
            "COLOR_0": 303,
            "NORMAL": 301,
            "POSITION": 300,
            "TEXCOORD_0": 302
          },
          "indices": 304
        }
      ]
    }
  ],
  "nodes": [
    {
      "mesh": 0,
      "name": "New_Game_Object"
    },
    {
      "mesh": 1,
      "name": "New_Game_Object"
    },
    {
      "mesh": 2,
      "name": "New_Game_Object"
    },
    {
      "mesh": 3,
      "name": "New_Game_Object"
    },
    {
      "mesh": 4,
      "name": "New_Game_Object"
    },
    {
      "mesh": 5,
      "name": "New_Game_Object"
    },
    {
      "mesh": 6,
      "name": "New_Game_Object"
    },
    {
      "mesh": 7,
      "name": "New_Game_Object"
    },
    {
      "mesh": 8,
      "name": "New_Game_Object"
    },
    {
      "mesh": 9,
      "name": "New_Game_Object"
    },
    {
      "mesh": 10,
      "name": "New_Game_Object"
    },
    {
      "mesh": 11,
      "name": "New_Game_Object"
    },
    {
      "mesh": 12,
      "name": "New_Game_Object"
    },
    {
      "mesh": 13,
      "name": "New_Game_Object"
    },
    {
      "mesh": 14,
      "name": "New_Game_Object"
    },
    {
      "mesh": 15,
      "name": "New_Game_Object"
    },
    {
      "mesh": 16,
      "name": "New_Game_Object"
    },
    {
      "mesh": 17,
      "name": "New_Game_Object"
    },
    {
      "mesh": 18,
      "name": "New_Game_Object"
    },
    {
      "mesh": 19,
      "name": "New_Game_Object"
    },
    {
      "mesh": 20,
      "name": "New_Game_Object"
    },
    {
      "mesh": 21,
      "name": "New_Game_Object"
    },
    {
      "mesh": 22,
      "name": "New_Game_Object"
    },
    {
      "mesh": 23,
      "name": "New_Game_Object"
    },
    {
      "mesh": 24,
      "name": "New_Game_Object"
    },
    {
      "mesh": 25,
      "name": "New_Game_Object"
    },
    {
      "mesh": 26,
      "name": "New_Game_Object"
    },
    {
      "mesh": 27,
      "name": "New_Game_Object"
    },
    {
      "mesh": 28,
      "name": "New_Game_Object"
    },
    {
      "mesh": 29,
      "name": "New_Game_Object"
    },
    {
      "mesh": 30,
      "name": "New_Game_Object"
    },
    {
      "mesh": 31,
      "name": "New_Game_Object"
    },
    {
      "mesh": 32,
      "name": "New_Game_Object"
    },
    {
      "mesh": 33,
      "name": "New_Game_Object"
    },
    {
      "mesh": 34,
      "name": "New_Game_Object"
    },
    {
      "mesh": 35,
      "name": "New_Game_Object"
    },
    {
      "mesh": 36,
      "name": "New_Game_Object"
    },
    {
      "mesh": 37,
      "name": "New_Game_Object"
    },
    {
      "mesh": 38,
      "name": "New_Game_Object"
    },
    {
      "mesh": 39,
      "name": "New_Game_Object"
    },
    {
      "mesh": 40,
      "name": "New_Game_Object"
    },
    {
      "mesh": 41,
      "name": "New_Game_Object"
    },
    {
      "mesh": 42,
      "name": "New_Game_Object"
    },
    {
      "mesh": 43,
      "name": "New_Game_Object"
    },
    {
      "mesh": 44,
      "name": "New_Game_Object"
    },
    {
      "mesh": 45,
      "name": "New_Game_Object"
    },
    {
      "mesh": 46,
      "name": "New_Game_Object"
    },
    {
      "mesh": 47,
      "name": "New_Game_Object"
    },
    {
      "mesh": 48,
      "name": "New_Game_Object"
    },
    {
      "mesh": 49,
      "name": "New_Game_Object"
    },
    {
      "mesh": 50,
      "name": "New_Game_Object"
    },
    {
      "mesh": 51,
      "name": "New_Game_Object"
    },
    {
      "mesh": 52,
      "name": "New_Game_Object"
    },
    {
      "mesh": 53,
      "name": "New_Game_Object"
    },
    {
      "mesh": 54,
      "name": "New_Game_Object"
    },
    {
      "mesh": 55,
      "name": "New_Game_Object"
    },
    {
      "mesh": 56,
      "name": "New_Game_Object"
    },
    {
      "mesh": 57,
      "name": "New_Game_Object"
    },
    {
      "mesh": 58,
      "name": "New_Game_Object"
    },
    {
      "mesh": 59,
      "name": "New_Game_Object"
    },
    {
      "mesh": 60,
      "name": "New_Game_Object_Clone_"
    }
  ],
  "scenes": [
    {
      "nodes": [
        0,
        1,
        2,
        3,
        4,
        5,
        6,
        7,
        8,
        9,
        10,
        11,
        12,
        13,
        14,
        15,
        16,
        17,
        18,
        19,
        20,
        21,
        22,
        23,
        24,
        25,
        26,
        27,
        28,
        29,
        30,
        31,
        32,
        33,
        34,
        35,
        36,
        37,
        38,
        39,
        40,
        41,
        42,
        43,
        44,
        45,
        46,
        47,
        48,
        49,
        50,
        51,
        52,
        53,
        54,
        55,
        56,
        57,
        58,
        59,
        60
      ]
    }
  ]
}