{
  "accessors": [
    {
      "bufferView": 0,
      "componentType": 5126,
      "count": 24,
      "max": [
        0.00012665000394918025,
        0.00046571000711992383,
        0.0012829999905079603
      ],
      "min": [
        -0.00012665000394918025,
        -0.00046571000711992383,
        -0.0012829999905079603
      ],
      "name": "Mesh.173/POSITION",
      "type": "VEC3"
    },
    {
      "bufferView": 0,
      "byteOffset": 12,
      "componentType": 5126,
      "count": 24,
      "name": "Mesh.173/NORMAL",
      "type": "VEC3"
    },
    {
      "bufferView": 0,
      "byteOffset": 24,
      "componentType": 5126,
      "count": 24,
      "name": "Mesh.173/TEXCOORD_0",
      "type": "VEC2"
    },
    {
      "bufferView": 1,
      "componentType": 5123,
      "count": 48,
      "name": "Mesh.173/INDICES",
      "type": "SCALAR"
    },
    {
      "bufferView": 2,
      "componentType": 5126,
      "count": 2238,
      "max": [
        0.0016440300969406962,
        0.0024637598544359207,
        0.0024713901802897453
      ],
      "min": [
        -0.0003250199952162802,
        -0.0024637598544359207,
        -0.0024713901802897453
      ],
      "name": "Mesh.198/POSITION",
      "type": "VEC3"
    },
    {
      "bufferView": 2,
      "byteOffset": 12,
      "componentType": 5126,
      "count": 2238,
      "name": "Mesh.198/NORMAL",
      "type": "VEC3"
    },
    {
      "bufferView": 2,
      "byteOffset": 24,
      "componentType": 5126,
      "count": 2238,
      "name": "Mesh.198/TEXCOORD_0",
      "type": "VEC2"
    },
    {
      "bufferView": 3,
      "componentType": 5123,
      "count": 5892,
      "name": "Mesh.198/INDICES",
      "type": "SCALAR"
    },
    {
      "bufferView": 4,
      "componentType": 5126,
      "count": 273,
      "max": [
        0.0015781100373715162,
        0.0034327199682593346,
        0.0034327199682593346
      ],
      "min": [
        -0.0016440300969406962,
        -0.0034327199682593346,
        -0.0034327199682593346
      ],
      "name": "Mesh.199/POSITION",
      "type": "VEC3"
    },
    {
      "bufferView": 4,
      "byteOffset": 12,
      "componentType": 5126,
      "count": 273,
      "name": "Mesh.199/NORMAL",
      "type": "VEC3"
    },
    {
      "bufferView": 4,
      "byteOffset": 24,
      "componentType": 5126,
      "count": 273,
      "name": "Mesh.199/TEXCOORD_0",
      "type": "VEC2"
    },
    {
      "bufferView": 5,
      "componentType": 5123,
      "count": 1008,
      "name": "Mesh.199/INDICES",
      "type": "SCALAR"
    },
    {
      "bufferView": 6,
      "componentType": 5126,
      "count": 24,
      "max": [
        0.00012665000394918025,
        0.00046571000711992383,
        0.0012829999905079603
      ],
      "min": [
        -0.00012665000394918025,
        -0.00046571000711992383,
        -0.0012829999905079603
      ],
      "name": "Mesh.174/POSITION",
      "type": "VEC3"
    },
    {
      "bufferView": 6,
      "byteOffset": 12,
      "componentType": 5126,
      "count": 24,
      "name": "Mesh.174/NORMAL",
      "type": "VEC3"
    },
    {
      "bufferView": 6,
      "byteOffset": 24,
      "componentType": 5126,
      "count": 24,
      "name": "Mesh.174/TEXCOORD_0",
      "type": "VEC2"
    },
    {
      "bufferView": 7,
      "componentType": 5123,
      "count": 48,
      "name": "Mesh.174/INDICES",
      "type": "SCALAR"
    },
    {
      "bufferView": 8,
      "componentType": 5126,
      "count": 2238,
      "max": [
        0.0003250199952162802,
        0.0024637598544359207,
        0.0024713901802897453
      ],
      "min": [
        -0.0016440300969406962,
        -0.0024637598544359207,
        -0.0024713901802897453
      ],
      "name": "Mesh.200/POSITION",
      "type": "VEC3"
    },
    {
      "bufferView": 8,
      "byteOffset": 12,
      "componentType": 5126,
      "count": 2238,
      "name": "Mesh.200/NORMAL",
      "type": "VEC3"
    },
    {
      "bufferView": 8,
      "byteOffset": 24,
      "componentType": 5126,
      "count": 2238,
      "name": "Mesh.200/TEXCOORD_0",
      "type": "VEC2"
    },
    {
      "bufferView": 9,
      "componentType": 5123,
      "count": 5892,
      "name": "Mesh.200/INDICES",
      "type": "SCALAR"
    },
    {
      "bufferView": 10,
      "componentType": 5126,
      "count": 273,
      "max": [
        0.0016440300969406962,
        0.0034327199682593346,
        0.0034327199682593346
      ],
      "min": [
        -0.0015781100373715162,
        -0.0034327199682593346,
        -0.0034327199682593346
      ],
      "name": "Mesh.201/POSITION",
      "type": "VEC3"
    },
    {
      "bufferView": 10,
      "byteOffset": 12,
      "componentType": 5126,
      "count": 273,
      "name": "Mesh.201/NORMAL",
      "type": "VEC3"
    },
    {
      "bufferView": 10,
      "byteOffset": 24,
      "componentType": 5126,
      "count": 273,
      "name": "Mesh.201/TEXCOORD_0",
      "type": "VEC2"
    },
    {
      "bufferView": 11,
      "componentType": 5123,
      "count": 1008,
      "name": "Mesh.201/INDICES",
      "type": "SCALAR"
    },
    {
      "bufferView": 12,
      "componentType": 5126,
      "count": 24,
      "max": [
        0.00012665000394918025,
        0.00046571000711992383,
        0.0012829999905079603
      ],
      "min": [
        -0.00012665000394918025,
        -0.00046571000711992383,
        -0.0012829999905079603
      ],
      "name": "Mesh.175/POSITION",
      "type": "VEC3"
    },
    {
      "bufferView": 12,
      "byteOffset": 12,
      "componentType": 5126,
      "count": 24,
      "name": "Mesh.175/NORMAL",
      "type": "VEC3"
    },
    {
      "bufferView": 12,
      "byteOffset": 24,
      "componentType": 5126,
      "count": 24,
      "name": "Mesh.175/TEXCOORD_0",
      "type": "VEC2"
    },
    {
      "bufferView": 13,
      "componentType": 5123,
      "count": 48,
      "name": "Mesh.175/INDICES",
      "type": "SCALAR"
    },
    {
      "bufferView": 14,
      "componentType": 5126,
      "count": 2238,
      "max": [
        0.0016440300969406962,
        0.0024637598544359207,
        0.0024713901802897453
      ],
      "min": [
        -0.0003250199952162802,
        -0.0024637598544359207,
        -0.0024713901802897453
      ],
      "name": "Mesh.202/POSITION",
      "type": "VEC3"
    },
    {
      "bufferView": 14,
      "byteOffset": 12,
      "componentType": 5126,
      "count": 2238,
      "name": "Mesh.202/NORMAL",
      "type": "VEC3"
    },
    {
      "bufferView": 14,
      "byteOffset": 24,
      "componentType": 5126,
      "count": 2238,
      "name": "Mesh.202/TEXCOORD_0",
      "type": "VEC2"
    },
    {
      "bufferView": 15,
      "componentType": 5123,
      "count": 5892,
      "name": "Mesh.202/INDICES",
      "type": "SCALAR"
    },
    {
      "bufferView": 16,
      "componentType": 5126,
      "count": 273,
      "max": [
        0.0015781100373715162,
        0.0034327199682593346,
        0.0034327199682593346
      ],
      "min": [
        -0.0016440300969406962,
        -0.0034327199682593346,
        -0.0034327199682593346
      ],
      "name": "Mesh.203/POSITION",
      "type": "VEC3"
    },
    {
      "bufferView": 16,
      "byteOffset": 12,
      "componentType": 5126,
      "count": 273,
      "name": "Mesh.203/NORMAL",
      "type": "VEC3"
    },
    {
      "bufferView": 16,
      "byteOffset": 24,
      "componentType": 5126,
      "count": 273,
      "name": "Mesh.203/TEXCOORD_0",
      "type": "VEC2"
    },
    {
      "bufferView": 17,
      "componentType": 5123,
      "count": 1008,
      "name": "Mesh.203/INDICES",
      "type": "SCALAR"
    },
    {
      "bufferView": 18,
      "componentType": 5126,
      "count": 24,
      "max": [
        0.00012665000394918025,
        0.00046571000711992383,
        0.0012829999905079603
      ],
      "min": [
        -0.00012665000394918025,
        -0.00046571000711992383,
        -0.0012829999905079603
      ],
      "name": "Mesh.176/POSITION",
      "type": "VEC3"
    },
    {
      "bufferView": 18,
      "byteOffset": 12,
      "componentType": 5126,
      "count": 24,
      "name": "Mesh.176/NORMAL",
      "type": "VEC3"
    },
    {
      "bufferView": 18,
      "byteOffset": 24,
      "componentType": 5126,
      "count": 24,
      "name": "Mesh.176/TEXCOORD_0",
      "type": "VEC2"
    },
    {
      "bufferView": 19,
      "componentType": 5123,
      "count": 48,
      "name": "Mesh.176/INDICES",
      "type": "SCALAR"
    },
    {
      "bufferView": 20,
      "componentType": 5126,
      "count": 2238,
      "max": [
        0.0003250199952162802,
        0.0024637598544359207,
        0.0024713901802897453
      ],
      "min": [
        -0.0016440300969406962,
        -0.0024637598544359207,
        -0.0024713901802897453
      ],
      "name": "Mesh.204/POSITION",
      "type": "VEC3"
    },
    {
      "bufferView": 20,
      "byteOffset": 12,
      "componentType": 5126,
      "count": 2238,
      "name": "Mesh.204/NORMAL",
      "type": "VEC3"
    },
    {
      "bufferView": 20,
      "byteOffset": 24,
      "componentType": 5126,
      "count": 2238,
      "name": "Mesh.204/TEXCOORD_0",
      "type": "VEC2"
    },
    {
      "bufferView": 21,
      "componentType": 5123,
      "count": 5892,
      "name": "Mesh.204/INDICES",
      "type": "SCALAR"
    },
    {
      "bufferView": 22,
      "componentType": 5126,
      "count": 273,
      "max": [
        0.0016440300969406962,
        0.0034327199682593346,
        0.0034327199682593346
      ],
      "min": [
        -0.0015781100373715162,
        -0.0034327199682593346,
        -0.0034327199682593346
      ],
      "name": "Mesh.205/POSITION",
      "type": "VEC3"
    },
    {
      "bufferView": 22,
      "byteOffset": 12,
      "componentType": 5126,
      "count": 273,
      "name": "Mesh.205/NORMAL",
      "type": "VEC3"
    },
    {
      "bufferView": 22,
      "byteOffset": 24,
      "componentType": 5126,
      "count": 273,
      "name": "Mesh.205/TEXCOORD_0",
      "type": "VEC2"
    },
    {
      "bufferView": 23,
      "componentType": 5123,
      "count": 1008,
      "name": "Mesh.205/INDICES",
      "type": "SCALAR"
    },
    {
      "bufferView": 24,
      "componentType": 5126,
      "count": 127,
      "max": [
        0.0019104599487036467,
        0.0043250797316432,
        0.0013535000616684556
      ],
      "min": [
        -0.0019107599509879947,
        -0.001048919977620244,
        -0.000699180003721267
      ],
      "name": "Mesh.181/POSITION",
      "type": "VEC3"
    },
    {
      "bufferView": 24,
      "byteOffset": 12,
      "componentType": 5126,
      "count": 127,
      "name": "Mesh.181/NORMAL",
      "type": "VEC3"
    },
    {
      "bufferView": 24,
      "byteOffset": 24,
      "componentType": 5126,
      "count": 127,
      "name": "Mesh.181/TEXCOORD_0",
      "type": "VEC2"
    },
    {
      "bufferView": 25,
      "componentType": 5123,
      "count": 297,
      "name": "Mesh.181/INDICES",
      "type": "SCALAR"
    },
    {
      "bufferView": 26,
      "componentType": 5126,
      "count": 5005,
      "max": [
        0.001995299942791462,
        0.004346140194684267,
        0.0012771999463438988
      ],
      "min": [
        -0.001995299942791462,
        -0.0046098199672997,
        -0.0013757699634879827
      ],
      "name": "Mesh.180/POSITION",
      "type": "VEC3"
    },
    {
      "bufferView": 26,
      "byteOffset": 12,
      "componentType": 5126,
      "count": 5005,
      "name": "Mesh.180/NORMAL",
      "type": "VEC3"
    },
    {
      "bufferView": 26,
      "byteOffset": 24,
      "componentType": 5126,
      "count": 5005,
      "name": "Mesh.180/TEXCOORD_0",
      "type": "VEC2"
    },
    {
      "bufferView": 27,
      "componentType": 5123,
      "count": 14178,
      "name": "Mesh.180/INDICES",
      "type": "SCALAR"
    },
    {
      "bufferView": 28,
      "componentType": 5126,
      "count": 10122,
      "max": [
        0.0019894998986274004,
        0.004877469968050718,
        0.0013751600636169314
      ],
      "min": [
        -0.0019894998986274004,
        -0.004643090069293976,
        -0.0013754699612036347
      ],
      "name": "Mesh.178/POSITION",
      "type": "VEC3"
    },
    {
      "bufferView": 28,
      "byteOffset": 12,
      "componentType": 5126,
      "count": 10122,
      "name": "Mesh.178/NORMAL",
      "type": "VEC3"
    },
    {
      "bufferView": 28,
      "byteOffset": 24,
      "componentType": 5126,
      "count": 10122,
      "name": "Mesh.178/TEXCOORD_0",
      "type": "VEC2"
    },
    {
      "bufferView": 29,
      "componentType": 5123,
      "count": 24249,
      "name": "Mesh.178/INDICES",
      "type": "SCALAR"
    },
    {
      "bufferView": 30,
      "componentType": 5126,
      "count": 4833,
      "max": [
        0.002035579876974225,
        0.004999849945306778,
        0.0013760800939053297
      ],
      "min": [
        -0.002035579876974225,
        -0.004999849945306778,
        -0.0013760800939053297
      ],
      "name": "Mesh.179/POSITION",
      "type": "VEC3"
    },
    {
      "bufferView": 30,
      "byteOffset": 12,
      "componentType": 5126,
      "count": 4833,
      "name": "Mesh.179/NORMAL",
      "type": "VEC3"
    },
    {
      "bufferView": 30,
      "byteOffset": 24,
      "componentType": 5126,
      "count": 4833,
      "name": "Mesh.179/TEXCOORD_0",
      "type": "VEC2"
    },
    {
      "bufferView": 31,
      "componentType": 5123,
      "count": 12906,
      "name": "Mesh.179/INDICES",
      "type": "SCALAR"
    },
    {
      "bufferView": 32,
      "componentType": 5126,
      "count": 12,
      "max": [
        0.0009506499627605081,
        0.0041505200788378716,
        -0.00014984999143052846
      ],
      "min": [
        0.000819419976323843,
        -0.00475966976955533,
        -0.0015570500399917364
      ],
      "name": "Mesh.185/POSITION",
      "type": "VEC3"
    },
    {
      "bufferView": 32,
      "byteOffset": 12,
      "componentType": 5126,
      "count": 12,
      "name": "Mesh.185/NORMAL",
      "type": "VEC3"
    },
    {
      "bufferView": 32,
      "byteOffset": 24,
      "componentType": 5126,
      "count": 12,
      "name": "Mesh.185/TEXCOORD_0",
      "type": "VEC2"
    },
    {
      "bufferView": 33,
      "componentType": 5123,
      "count": 18,
      "name": "Mesh.185/INDICES",
      "type": "SCALAR"
    },
    {
      "bufferView": 34,
      "componentType": 5126,
      "count": 198,
      "max": [
        0.000917389988899231,
        0.004518270026892424,
        0.0018881799187511206
      ],
      "min": [
        -0.00012573999993037432,
        -0.004999849945306778,
        -0.00432599987834692
      ],
      "name": "Mesh.183/POSITION",
      "type": "VEC3"
    },
    {
      "bufferView": 34,
      "byteOffset": 12,
      "componentType": 5126,
      "count": 198,
      "name": "Mesh.183/NORMAL",
      "type": "VEC3"
    },
    {
      "bufferView": 34,
      "byteOffset": 24,
      "componentType": 5126,
      "count": 198,
      "name": "Mesh.183/TEXCOORD_0",
      "type": "VEC2"
    },
    {
      "bufferView": 35,
      "componentType": 5123,
      "count": 621,
      "name": "Mesh.183/INDICES",
      "type": "SCALAR"
    },
    {
      "bufferView": 36,
      "componentType": 5126,
      "count": 501,
      "max": [
        0.0015274499310180545,
        0.004999849945306778,
        0.0049549899995327
      ],
      "min": [
        -0.0015274499310180545,
        -0.004992220085114241,
        -0.004946129862219095
      ],
      "name": "Mesh.182/POSITION",
      "type": "VEC3"
    },
    {
      "bufferView": 36,
      "byteOffset": 12,
      "componentType": 5126,
      "count": 501,
      "name": "Mesh.182/NORMAL",
      "type": "VEC3"
    },
    {
      "bufferView": 36,
      "byteOffset": 24,
      "componentType": 5126,
      "count": 501,
      "name": "Mesh.182/TEXCOORD_0",
      "type": "VEC2"
    },
    {
      "bufferView": 37,
      "componentType": 5123,
      "count": 1338,
      "name": "Mesh.182/INDICES",
      "type": "SCALAR"
    },
    {
      "bufferView": 38,
      "componentType": 5126,
      "count": 279,
      "max": [
        0.0008502499549649656,
        0.004999849945306778,
        0.0049549899995327
      ],
      "min": [
        -0.0013119899667799473,
        -0.004512470215559006,
        -0.0049549899995327
      ],
      "name": "Mesh.184/POSITION",
      "type": "VEC3"
    },
    {
      "bufferView": 38,
      "byteOffset": 12,
      "componentType": 5126,
      "count": 279,
      "name": "Mesh.184/NORMAL",
      "type": "VEC3"
    },
    {
      "bufferView": 38,
      "byteOffset": 24,
      "componentType": 5126,
      "count": 279,
      "name": "Mesh.184/TEXCOORD_0",
      "type": "VEC2"
    },
    {
      "bufferView": 39,
      "componentType": 5123,
      "count": 654,
      "name": "Mesh.184/INDICES",
      "type": "SCALAR"
    },
    {
      "bufferView": 40,
      "componentType": 5126,
      "count": 10,
      "max": [
        -0.0008325400413013995,
        0.00388226006180048,
        -0.00028137999470345676
      ],
      "min": [
        -0.0009268500143662095,
        -0.004611039999872446,
        -0.0014328398974612355
      ],
      "name": "Mesh.189/POSITION",
      "type": "VEC3"
    },
    {
      "bufferView": 40,
      "byteOffset": 12,
      "componentType": 5126,
      "count": 10,
      "name": "Mesh.189/NORMAL",
      "type": "VEC3"
    },
    {
      "bufferView": 40,
      "byteOffset": 24,
      "componentType": 5126,
      "count": 10,
      "name": "Mesh.189/TEXCOORD_0",
      "type": "VEC2"
    },
    {
      "bufferView": 41,
      "componentType": 5123,
      "count": 18,
      "name": "Mesh.189/INDICES",
      "type": "SCALAR"
    },
    {
      "bufferView": 42,
      "componentType": 5126,
      "count": 198,
      "max": [
        0.00012573999993037432,
        0.004518270026892424,
        0.0018881799187511206
      ],
      "min": [
        -0.000917389988899231,
        -0.004999849945306778,
        -0.00432599987834692
      ],
      "name": "Mesh.187/POSITION",
      "type": "VEC3"
    },
    {
      "bufferView": 42,
      "byteOffset": 12,
      "componentType": 5126,
      "count": 198,
      "name": "Mesh.187/NORMAL",
      "type": "VEC3"
    },
    {
      "bufferView": 42,
      "byteOffset": 24,
      "componentType": 5126,
      "count": 198,
      "name": "Mesh.187/TEXCOORD_0",
      "type": "VEC2"
    },
    {
      "bufferView": 43,
      "componentType": 5123,
      "count": 621,
      "name": "Mesh.187/INDICES",
      "type": "SCALAR"
    },
    {
      "bufferView": 44,
      "componentType": 5126,
      "count": 501,
      "max": [
        0.0015274499310180545,
        0.004999849945306778,
        0.0049549899995327
      ],
      "min": [
        -0.0015274499310180545,
        -0.004992220085114241,
        -0.004946129862219095
      ],
      "name": "Mesh.186/POSITION",
      "type": "VEC3"
    },
    {
      "bufferView": 44,
      "byteOffset": 12,
      "componentType": 5126,
      "count": 501,
      "name": "Mesh.186/NORMAL",
      "type": "VEC3"
    },
    {
      "bufferView": 44,
      "byteOffset": 24,
      "componentType": 5126,
      "count": 501,
      "name": "Mesh.186/TEXCOORD_0",
      "type": "VEC2"
    },
    {
      "bufferView": 45,
      "componentType": 5123,
      "count": 1338,
      "name": "Mesh.186/INDICES",
      "type": "SCALAR"
    },
    {
      "bufferView": 46,
      "componentType": 5126,
      "count": 279,
      "max": [
        0.0013119899667799473,
        0.004999849945306778,
        0.0049549899995327
      ],
      "min": [
        -0.0008502499549649656,
        -0.004512470215559006,
        -0.0049549899995327
      ],
      "name": "Mesh.188/POSITION",
      "type": "VEC3"
    },
    {
      "bufferView": 46,
      "byteOffset": 12,
      "componentType": 5126,
      "count": 279,
      "name": "Mesh.188/NORMAL",
      "type": "VEC3"
    },
    {
      "bufferView": 46,
      "byteOffset": 24,
      "componentType": 5126,
      "count": 279,
      "name": "Mesh.188/TEXCOORD_0",
      "type": "VEC2"
    },
    {
      "bufferView": 47,
      "componentType": 5123,
      "count": 654,
      "name": "Mesh.188/INDICES",
      "type": "SCALAR"
    },
    {
      "bufferView": 48,
      "componentType": 5126,
      "count": 16,
      "max": [
        0.002701499965041876,
        -0.0002078300021821633,
        0.0006689699948765337
      ],
      "min": [
        -0.002778710098937154,
        -0.003678089939057827,
        -0.000509659992530942
      ],
      "name": "Mesh.191/POSITION",
      "type": "VEC3"
    },
    {
      "bufferView": 48,
      "byteOffset": 12,
      "componentType": 5126,
      "count": 16,
      "name": "Mesh.191/NORMAL",
      "type": "VEC3"
    },
    {
      "bufferView": 48,
      "byteOffset": 24,
      "componentType": 5126,
      "count": 16,
      "name": "Mesh.191/TEXCOORD_0",
      "type": "VEC2"
    },
    {
      "bufferView": 49,
      "componentType": 5123,
      "count": 36,
      "name": "Mesh.191/INDICES",
      "type": "SCALAR"
    },
    {
      "bufferView": 50,
      "componentType": 5126,
      "count": 1057,
      "max": [
        0.004999849945306778,
        0.004166690167039633,
        0.0009204400121234357
      ],
      "min": [
        -0.004999849945306778,
        -0.004166690167039633,
        -0.0009204400121234357
      ],
      "name": "Mesh.190/POSITION",
      "type": "VEC3"
    },
    {
      "bufferView": 50,
      "byteOffset": 12,
      "componentType": 5126,
      "count": 1057,
      "name": "Mesh.190/NORMAL",
      "type": "VEC3"
    },
    {
      "bufferView": 50,
      "byteOffset": 24,
      "componentType": 5126,
      "count": 1057,
      "name": "Mesh.190/TEXCOORD_0",
      "type": "VEC2"
    },
    {
      "bufferView": 51,
      "componentType": 5123,
      "count": 2970,
      "name": "Mesh.190/INDICES",
      "type": "SCALAR"
    },
    {
      "bufferView": 52,
      "componentType": 5126,
      "count": 356,
      "max": [
        0.0017288699746131897,
        0.004817040171474218,
        0.0008197299903258681
      ],
      "min": [
        -0.0017288699746131897,
        -0.0024338499642908573,
        -0.00018737999198492616
      ],
      "name": "Mesh.192/POSITION",
      "type": "VEC3"
    },
    {
      "bufferView": 52,
      "byteOffset": 12,
      "componentType": 5126,
      "count": 356,
      "name": "Mesh.192/NORMAL",
      "type": "VEC3"
    },
    {
      "bufferView": 52,
      "byteOffset": 24,
      "componentType": 5126,
      "count": 356,
      "name": "Mesh.192/TEXCOORD_0",
      "type": "VEC2"
    },
    {
      "bufferView": 53,
      "componentType": 5123,
      "count": 1236,
      "name": "Mesh.192/INDICES",
      "type": "SCALAR"
    },
    {
      "bufferView": 54,
      "componentType": 5126,
      "count": 1838,
      "max": [
        0.0019403700716793537,
        0.004999849945306778,
        -0.00010314999963156879
      ],
      "min": [
        -0.0019403700716793537,
        -0.004999849945306778,
        -0.0008197299903258681
      ],
      "name": "Mesh.193/POSITION",
      "type": "VEC3"
    },
    {
      "bufferView": 54,
      "byteOffset": 12,
      "componentType": 5126,
      "count": 1838,
      "name": "Mesh.193/NORMAL",
      "type": "VEC3"
    },
    {
      "bufferView": 54,
      "byteOffset": 24,
      "componentType": 5126,
      "count": 1838,
      "name": "Mesh.193/TEXCOORD_0",
      "type": "VEC2"
    },
    {
      "bufferView": 55,
      "componentType": 5123,
      "count": 4308,
      "name": "Mesh.193/INDICES",
      "type": "SCALAR"
    },
    {
      "bufferView": 56,
      "componentType": 5126,
      "count": 148,
      "max": [
        0.004999849945306778,
        0.0015375199727714062,
        0.001832030015066266
      ],
      "min": [
        -0.004999849945306778,
        -0.0015375199727714062,
        -0.001832030015066266
      ],
      "name": "Mesh.194/POSITION",
      "type": "VEC3"
    },
    {
      "bufferView": 56,
      "byteOffset": 12,
      "componentType": 5126,
      "count": 148,
      "name": "Mesh.194/NORMAL",
      "type": "VEC3"
    },
    {
      "bufferView": 56,
      "byteOffset": 24,
      "componentType": 5126,
      "count": 148,
      "name": "Mesh.194/TEXCOORD_0",
      "type": "VEC2"
    },
    {
      "bufferView": 57,
      "componentType": 5123,
      "count": 642,
      "name": "Mesh.194/INDICES",
      "type": "SCALAR"
    },
    {
      "bufferView": 58,
      "componentType": 5126,
      "count": 3,
      "max": [
        0.00013611000031232834,
        8.60599975567311e-05,
        4.577999789034948e-05
      ],
      "min": [
        -0.00013611000031232834,
        -8.60599975567311e-05,
        -4.577999789034948e-05
      ],
      "name": "Mesh.195/POSITION",
      "type": "VEC3"
    },
    {
      "bufferView": 58,
      "byteOffset": 12,
      "componentType": 5126,
      "count": 3,
      "name": "Mesh.195/NORMAL",
      "type": "VEC3"
    },
    {
      "bufferView": 58,
      "byteOffset": 24,
      "componentType": 5126,
      "count": 3,
      "name": "Mesh.195/TEXCOORD_0",
      "type": "VEC2"
    },
    {
      "bufferView": 59,
      "componentType": 5123,
      "count": 3,
      "name": "Mesh.195/INDICES",
      "type": "SCALAR"
    },
    {
      "bufferView": 60,
      "componentType": 5126,
      "count": 384,
      "max": [
        0.0015500399749726057,
        0.004999849945306778,
        0.0003704899863805622
      ],
      "min": [
        -0.0015500399749726057,
        -0.004999849945306778,
        -0.0003704899863805622
      ],
      "name": "Mesh.196/POSITION",
      "type": "VEC3"
    },
    {
      "bufferView": 60,
      "byteOffset": 12,
      "componentType": 5126,
      "count": 384,
      "name": "Mesh.196/NORMAL",
      "type": "VEC3"
    },
    {
      "bufferView": 60,
      "byteOffset": 24,
      "componentType": 5126,
      "count": 384,
      "name": "Mesh.196/TEXCOORD_0",
      "type": "VEC2"
    },
    {
      "bufferView": 61,
      "componentType": 5123,
      "count": 1206,
      "name": "Mesh.196/INDICES",
      "type": "SCALAR"
    },
    {
      "bufferView": 62,
      "componentType": 5126,
      "count": 3,
      "max": [
        0.00013611000031232834,
        8.60599975567311e-05,
        4.577999789034948e-05
      ],
      "min": [
        -0.00013611000031232834,
        -8.60599975567311e-05,
        -4.577999789034948e-05
      ],
      "name": "Mesh.197/POSITION",
      "type": "VEC3"
    },
    {
      "bufferView": 62,
      "byteOffset": 12,
      "componentType": 5126,
      "count": 3,
      "name": "Mesh.197/NORMAL",
      "type": "VEC3"
    },
    {
      "bufferView": 62,
      "byteOffset": 24,
      "componentType": 5126,
      "count": 3,
      "name": "Mesh.197/TEXCOORD_0",
      "type": "VEC2"
    },
    {
      "bufferView": 63,
      "componentType": 5123,
      "count": 3,
      "name": "Mesh.197/INDICES",
      "type": "SCALAR"
    }
  ],
  "asset": {
    "copyright": "Copyright (c) 2018-2020 Chukong Technologies Inc.",
    "generator": "FBX-glTF-conv",
    "version": "2.0"
  },
  "bufferViews": [
    {
      "buffer": 0,
      "byteLength": 768,
      "byteStride": 32,
      "name": "Mesh.173",
      "target": 34962
    },
    {
      "buffer": 0,
      "byteLength": 96,
      "byteOffset": 768,
      "target": 34963
    },
    {
      "buffer": 0,
      "byteLength": 71616,
      "byteOffset": 864,
      "byteStride": 32,
      "name": "Mesh.198",
      "target": 34962
    },
    {
      "buffer": 0,
      "byteLength": 11784,
      "byteOffset": 72480,
      "target": 34963
    },
    {
      "buffer": 0,
      "byteLength": 8736,
      "byteOffset": 84264,
      "byteStride": 32,
      "name": "Mesh.199",
      "target": 34962
    },
    {
      "buffer": 0,
      "byteLength": 2016,
      "byteOffset": 93000,
      "target": 34963
    },
    {
      "buffer": 0,
      "byteLength": 768,
      "byteOffset": 95016,
      "byteStride": 32,
      "name": "Mesh.174",
      "target": 34962
    },
    {
      "buffer": 0,
      "byteLength": 96,
      "byteOffset": 95784,
      "target": 34963
    },
    {
      "buffer": 0,
      "byteLength": 71616,
      "byteOffset": 95880,
      "byteStride": 32,
      "name": "Mesh.200",
      "target": 34962
    },
    {
      "buffer": 0,
      "byteLength": 11784,
      "byteOffset": 167496,
      "target": 34963
    },
    {
      "buffer": 0,
      "byteLength": 8736,
      "byteOffset": 179280,
      "byteStride": 32,
      "name": "Mesh.201",
      "target": 34962
    },
    {
      "buffer": 0,
      "byteLength": 2016,
      "byteOffset": 188016,
      "target": 34963
    },
    {
      "buffer": 0,
      "byteLength": 768,
      "byteOffset": 190032,
      "byteStride": 32,
      "name": "Mesh.175",
      "target": 34962
    },
    {
      "buffer": 0,
      "byteLength": 96,
      "byteOffset": 190800,
      "target": 34963
    },
    {
      "buffer": 0,
      "byteLength": 71616,
      "byteOffset": 190896,
      "byteStride": 32,
      "name": "Mesh.202",
      "target": 34962
    },
    {
      "buffer": 0,
      "byteLength": 11784,
      "byteOffset": 262512,
      "target": 34963
    },
    {
      "buffer": 0,
      "byteLength": 8736,
      "byteOffset": 274296,
      "byteStride": 32,
      "name": "Mesh.203",
      "target": 34962
    },
    {
      "buffer": 0,
      "byteLength": 2016,
      "byteOffset": 283032,
      "target": 34963
    },
    {
      "buffer": 0,
      "byteLength": 768,
      "byteOffset": 285048,
      "byteStride": 32,
      "name": "Mesh.176",
      "target": 34962
    },
    {
      "buffer": 0,
      "byteLength": 96,
      "byteOffset": 285816,
      "target": 34963
    },
    {
      "buffer": 0,
      "byteLength": 71616,
      "byteOffset": 285912,
      "byteStride": 32,
      "name": "Mesh.204",
      "target": 34962
    },
    {
      "buffer": 0,
      "byteLength": 11784,
      "byteOffset": 357528,
      "target": 34963
    },
    {
      "buffer": 0,
      "byteLength": 8736,
      "byteOffset": 369312,
      "byteStride": 32,
      "name": "Mesh.205",
      "target": 34962
    },
    {
      "buffer": 0,
      "byteLength": 2016,
      "byteOffset": 378048,
      "target": 34963
    },
    {
      "buffer": 0,
      "byteLength": 4064,
      "byteOffset": 380064,
      "byteStride": 32,
      "name": "Mesh.181",
      "target": 34962
    },
    {
      "buffer": 0,
      "byteLength": 594,
      "byteOffset": 384128,
      "target": 34963
    },
    {
      "buffer": 0,
      "byteLength": 160160,
      "byteOffset": 384722,
      "byteStride": 32,
      "name": "Mesh.180",
      "target": 34962
    },
    {
      "buffer": 0,
      "byteLength": 28356,
      "byteOffset": 544882,
      "target": 34963
    },
    {
      "buffer": 0,
      "byteLength": 323904,
      "byteOffset": 573238,
      "byteStride": 32,
      "name": "Mesh.178",
      "target": 34962
    },
    {
      "buffer": 0,
      "byteLength": 48498,
      "byteOffset": 897142,
      "target": 34963
    },
    {
      "buffer": 0,
      "byteLength": 154656,
      "byteOffset": 945640,
      "byteStride": 32,
      "name": "Mesh.179",
      "target": 34962
    },
    {
      "buffer": 0,
      "byteLength": 25812,
      "byteOffset": 1100296,
      "target": 34963
    },
    {
      "buffer": 0,
      "byteLength": 384,
      "byteOffset": 1126108,
      "byteStride": 32,
      "name": "Mesh.185",
      "target": 34962
    },
    {
      "buffer": 0,
      "byteLength": 36,
      "byteOffset": 1126492,
      "target": 34963
    },
    {
      "buffer": 0,
      "byteLength": 6336,
      "byteOffset": 1126528,
      "byteStride": 32,
      "name": "Mesh.183",
      "target": 34962
    },
    {
      "buffer": 0,
      "byteLength": 1242,
      "byteOffset": 1132864,
      "target": 34963
    },
    {
      "buffer": 0,
      "byteLength": 16032,
      "byteOffset": 1134106,
      "byteStride": 32,
      "name": "Mesh.182",
      "target": 34962
    },
    {
      "buffer": 0,
      "byteLength": 2676,
      "byteOffset": 1150138,
      "target": 34963
    },
    {
      "buffer": 0,
      "byteLength": 8928,
      "byteOffset": 1152814,
      "byteStride": 32,
      "name": "Mesh.184",
      "target": 34962
    },
    {
      "buffer": 0,
      "byteLength": 1308,
      "byteOffset": 1161742,
      "target": 34963
    },
    {
      "buffer": 0,
      "byteLength": 320,
      "byteOffset": 1163050,
      "byteStride": 32,
      "name": "Mesh.189",
      "target": 34962
    },
    {
      "buffer": 0,
      "byteLength": 36,
      "byteOffset": 1163370,
      "target": 34963
    },
    {
      "buffer": 0,
      "byteLength": 6336,
      "byteOffset": 1163406,
      "byteStride": 32,
      "name": "Mesh.187",
      "target": 34962
    },
    {
      "buffer": 0,
      "byteLength": 1242,
      "byteOffset": 1169742,
      "target": 34963
    },
    {
      "buffer": 0,
      "byteLength": 16032,
      "byteOffset": 1170984,
      "byteStride": 32,
      "name": "Mesh.186",
      "target": 34962
    },
    {
      "buffer": 0,
      "byteLength": 2676,
      "byteOffset": 1187016,
      "target": 34963
    },
    {
      "buffer": 0,
      "byteLength": 8928,
      "byteOffset": 1189692,
      "byteStride": 32,
      "name": "Mesh.188",
      "target": 34962
    },
    {
      "buffer": 0,
      "byteLength": 1308,
      "byteOffset": 1198620,
      "target": 34963
    },
    {
      "buffer": 0,
      "byteLength": 512,
      "byteOffset": 1199928,
      "byteStride": 32,
      "name": "Mesh.191",
      "target": 34962
    },
    {
      "buffer": 0,
      "byteLength": 72,
      "byteOffset": 1200440,
      "target": 34963
    },
    {
      "buffer": 0,
      "byteLength": 33824,
      "byteOffset": 1200512,
      "byteStride": 32,
      "name": "Mesh.190",
      "target": 34962
    },
    {
      "buffer": 0,
      "byteLength": 5940,
      "byteOffset": 1234336,
      "target": 34963
    },
    {
      "buffer": 0,
      "byteLength": 11392,
      "byteOffset": 1240276,
      "byteStride": 32,
      "name": "Mesh.192",
      "target": 34962
    },
    {
      "buffer": 0,
      "byteLength": 2472,
      "byteOffset": 1251668,
      "target": 34963
    },
    {
      "buffer": 0,
      "byteLength": 58816,
      "byteOffset": 1254140,
      "byteStride": 32,
      "name": "Mesh.193",
      "target": 34962
    },
    {
      "buffer": 0,
      "byteLength": 8616,
      "byteOffset": 1312956,
      "target": 34963
    },
    {
      "buffer": 0,
      "byteLength": 4736,
      "byteOffset": 1321572,
      "byteStride": 32,
      "name": "Mesh.194",
      "target": 34962
    },
    {
      "buffer": 0,
      "byteLength": 1284,
      "byteOffset": 1326308,
      "target": 34963
    },
    {
      "buffer": 0,
      "byteLength": 96,
      "byteOffset": 1327592,
      "byteStride": 32,
      "name": "Mesh.195",
      "target": 34962
    },
    {
      "buffer": 0,
      "byteLength": 6,
      "byteOffset": 1327688,
      "target": 34963
    },
    {
      "buffer": 0,
      "byteLength": 12288,
      "byteOffset": 1327694,
      "byteStride": 32,
      "name": "Mesh.196",
      "target": 34962
    },
    {
      "buffer": 0,
      "byteLength": 2412,
      "byteOffset": 1339982,
      "target": 34963
    },
    {
      "buffer": 0,
      "byteLength": 96,
      "byteOffset": 1342394,
      "byteStride": 32,
      "name": "Mesh.197",
      "target": 34962
    },
    {
      "buffer": 0,
      "byteLength": 6,
      "byteOffset": 1342490,
      "target": 34963
    }
  ],
  "buffers": [
    {
      "byteLength": 1342496,
      "uri": "out.bin"
    }
  ],
  "extras": {
    "FBX-glTF-conv": {
      "animationFrameRate": 25.0,
      "fbxFileHeaderInfo": {
        "creationTimeStamp": {
          "day": 13,
          "hour": 10,
          "millisecond": 975,
          "minute": 48,
          "month": 8,
          "second": 21,
          "year": 2026
        },
        "creator": "Blender (stable FBX IO) - 4.5.1 LTS - 5.13.0",
        "sceneInfo": {
          "author": "",
          "comment": "",
          "keywords": "",
          "original": {
            "applicationName": "Blender (stable FBX IO)",
            "applicationVendor": "Blender Foundation",
            "applicationVersion": "4.5.1 LTS",
            "fileName": "/foobar.fbx"
          },
          "revision": "",
          "subject": "",
          "title": "",
          "url": "D:\\GameByself\\Cocos\\Project1\\assets\\resources\\UI\\source\\e1499.fbx"
        }
      }
    }
  },
  "images": [
    {
      "extras": {
        "FBX-glTF-conv": {
          "fileName": "D:\\GameByself\\Cocos\\Project1\\temp\\asset-db\\assets\\fbx.FBX-glTF-conv\\c185ea8d-74ff-4fc8-a0c0-ae72bfe40e9d\\output\\.fbm\\57B51964\\e1499.fbm/car_ford_mustang_mach_e1400_occ_Out.png",
          "relativeFileName": "..\\..\\..\\..\\temp\\asset-db\\assets\\fbx.FBX-glTF-conv\\c185ea8d-74ff-4fc8-a0c0-ae72bfe40e9d\\output\\.fbm\\57B51964\\e1499.fbm\\car_ford_mustang_mach_e1400_occ_Out.png"
        }
      },
      "name": "base_color_texture",
      "uri": "car_ford_mustang_mach_e1400_occ_Out.png"
    },
    {
      "extras": {
        "FBX-glTF-conv": {
          "fileName": "D:\\GameByself\\Cocos\\Project1\\temp\\asset-db\\assets\\fbx.FBX-glTF-conv\\c185ea8d-74ff-4fc8-a0c0-ae72bfe40e9d\\output\\.fbm\\57B51964\\e1499.fbm/car_ford_mustang_mach_e1400_df_Out.png",
          "relativeFileName": "..\\..\\..\\..\\temp\\asset-db\\assets\\fbx.FBX-glTF-conv\\c185ea8d-74ff-4fc8-a0c0-ae72bfe40e9d\\output\\.fbm\\57B51964\\e1499.fbm\\car_ford_mustang_mach_e1400_df_Out.png"
        }
      },
      "name": "base_color_texture",
      "uri": "car_ford_mustang_mach_e1400_df_Out.png"
    },
    {
      "extras": {
        "FBX-glTF-conv": {
          "fileName": "D:\\GameByself\\Cocos\\Project1\\temp\\asset-db\\assets\\fbx.FBX-glTF-conv\\c185ea8d-74ff-4fc8-a0c0-ae72bfe40e9d\\output\\.fbm\\57B51964\\e1499.fbm/car_tyres_new_occ_Out.png",
          "relativeFileName": "..\\..\\..\\..\\temp\\asset-db\\assets\\fbx.FBX-glTF-conv\\c185ea8d-74ff-4fc8-a0c0-ae72bfe40e9d\\output\\.fbm\\57B51964\\e1499.fbm\\car_tyres_new_occ_Out.png"
        }
      },
      "name": "base_color_texture",
      "uri": "car_tyres_new_occ_Out.png"
    },
    {
      "extras": {
        "FBX-glTF-conv": {
          "fileName": "D:\\GameByself\\Cocos\\Project1\\temp\\asset-db\\assets\\fbx.FBX-glTF-conv\\c185ea8d-74ff-4fc8-a0c0-ae72bfe40e9d\\output\\.fbm\\57B51964\\e1499.fbm/car_ford_mustang_mach_e1400_df_Out.png",
          "relativeFileName": "..\\..\\..\\..\\temp\\asset-db\\assets\\fbx.FBX-glTF-conv\\c185ea8d-74ff-4fc8-a0c0-ae72bfe40e9d\\output\\.fbm\\57B51964\\e1499.fbm\\car_ford_mustang_mach_e1400_df_Out.png"
        }
      },
      "name": "base_color_texture",
      "uri": "car_ford_mustang_mach_e1400_df_Out.png"
    },
    {
      "extras": {
        "FBX-glTF-conv": {
          "fileName": "D:\\GameByself\\Cocos\\Project1\\temp\\asset-db\\assets\\fbx.FBX-glTF-conv\\c185ea8d-74ff-4fc8-a0c0-ae72bfe40e9d\\output\\.fbm\\57B51964\\e1499.fbm/car_ford_mustang_mach_e1400_occ_Out.png",
          "relativeFileName": "..\\..\\..\\..\\temp\\asset-db\\assets\\fbx.FBX-glTF-conv\\c185ea8d-74ff-4fc8-a0c0-ae72bfe40e9d\\output\\.fbm\\57B51964\\e1499.fbm\\car_ford_mustang_mach_e1400_occ_Out.png"
        }
      },
      "name": "base_color_texture",
      "uri": "car_ford_mustang_mach_e1400_occ_Out.png"
    },
    {
      "extras": {
        "FBX-glTF-conv": {
          "fileName": "D:\\GameByself\\Cocos\\Project1\\temp\\asset-db\\assets\\fbx.FBX-glTF-conv\\c185ea8d-74ff-4fc8-a0c0-ae72bfe40e9d\\output\\.fbm\\57B51964\\e1499.fbm/car_ford_mustang_mach_e1400_glows_Out.png",
          "relativeFileName": "..\\..\\..\\..\\temp\\asset-db\\assets\\fbx.FBX-glTF-conv\\c185ea8d-74ff-4fc8-a0c0-ae72bfe40e9d\\output\\.fbm\\57B51964\\e1499.fbm\\car_ford_mustang_mach_e1400_glows_Out.png"
        }
      },
      "name": "base_color_texture",
      "uri": "car_ford_mustang_mach_e1400_glows_Out.png"
    }
  ],
  "materials": [
    {
      "extras": {
        "FBX-glTF-conv": {
          "raw": {
            "properties": {
              "ambient": {
                "value": [
                  0.05087608844041824,
                  0.05087608844041824,
                  0.05087608844041824
                ]
              },
              "ambientFactor": {
                "value": 0.0
              },
              "bump": {
                "value": [
                  0.0,
                  0.0,
                  0.0
                ]
              },
              "bumpFactor": {
                "value": 0.0
              },
              "diffuse": {
                "texture": {
                  "index": 0
                },
                "value": [
                  0.800000011920929,
                  0.800000011920929,
                  0.800000011920929
                ]
              },
              "diffuseFactor": {
                "value": 1.0
              },
              "displacementColor": {
                "value": [
                  0.0,
                  0.0,
                  0.0
                ]
              },
              "displacementFactor": {
                "value": 1.0
              },
              "emissive": {
                "value": [
                  1.0,
                  1.0,
                  1.0
                ]
              },
              "emissiveFactor": {
                "value": 0.0
              },
              "normalMap": {
                "value": [
                  0.0,
                  0.0,
                  0.0
                ]
              },
              "reflection": {
                "value": [
                  0.800000011920929,
                  0.800000011920929,
                  0.800000011920929
                ]
              },
              "reflectionFactor": {
                "value": 0.0
              },
              "shadingModel": "Phong",
              "shininess": {
                "value": 25.0
              },
              "specular": {
                "value": [
                  0.800000011920929,
                  0.800000011920929,
                  0.800000011920929
                ]
              },
              "specularFactor": {
                "value": 0.25
              },
              "transparencyFactor": {
                "value": 0.0
              },
              "transparentColor": {
                "value": [
                  0.0,
                  0.0,
                  0.0
                ]
              },
              "vectorDisplacementColor": {
                "value": [
                  0.0,
                  0.0,
                  0.0
                ]
              },
              "vectorDisplacementFactor": {
                "value": 1.0
              }
            },
            "type": "phong"
          }
        }
      },
      "name": "Material.001"
    },
    {
      "extras": {
        "FBX-glTF-conv": {
          "raw": {
            "properties": {
              "ambient": {
                "value": [
                  0.05087608844041824,
                  0.05087608844041824,
                  0.05087608844041824
                ]
              },
              "ambientFactor": {
                "value": 0.0
              },
              "bump": {
                "value": [
                  0.0,
                  0.0,
                  0.0
                ]
              },
              "bumpFactor": {
                "value": 0.0
              },
              "diffuse": {
                "texture": {
                  "index": 1
                },
                "value": [
                  0.800000011920929,
                  0.800000011920929,
                  0.800000011920929
                ]
              },
              "diffuseFactor": {
                "value": 1.0
              },
              "displacementColor": {
                "value": [
                  0.0,
                  0.0,
                  0.0
                ]
              },
              "displacementFactor": {
                "value": 1.0
              },
              "emissive": {
                "value": [
                  1.0,
                  1.0,
                  1.0
                ]
              },
              "emissiveFactor": {
                "value": 0.0
              },
              "normalMap": {
                "value": [
                  0.0,
                  0.0,
                  0.0
                ]
              },
              "reflection": {
                "value": [
                  0.800000011920929,
                  0.800000011920929,
                  0.800000011920929
                ]
              },
              "reflectionFactor": {
                "value": 0.0
              },
              "shadingModel": "Phong",
              "shininess": {
                "value": 25.0
              },
              "specular": {
                "value": [
                  0.800000011920929,
                  0.800000011920929,
                  0.800000011920929
                ]
              },
              "specularFactor": {
                "value": 0.25
              },
              "transparencyFactor": {
                "value": 0.0
              },
              "transparentColor": {
                "value": [
                  0.0,
                  0.0,
                  0.0
                ]
              },
              "vectorDisplacementColor": {
                "value": [
                  0.0,
                  0.0,
                  0.0
                ]
              },
              "vectorDisplacementFactor": {
                "value": 1.0
              }
            },
            "type": "phong"
          }
        }
      },
      "name": "Material.002"
    },
    {
      "extras": {
        "FBX-glTF-conv": {
          "raw": {
            "properties": {
              "ambient": {
                "value": [
                  0.05087608844041824,
                  0.05087608844041824,
                  0.05087608844041824
                ]
              },
              "ambientFactor": {
                "value": 0.0
              },
              "bump": {
                "value": [
                  0.0,
                  0.0,
                  0.0
                ]
              },
              "bumpFactor": {
                "value": 0.0
              },
              "diffuse": {
                "texture": {
                  "index": 2
                },
                "value": [
                  0.800000011920929,
                  0.800000011920929,
                  0.800000011920929
                ]
              },
              "diffuseFactor": {
                "value": 1.0
              },
              "displacementColor": {
                "value": [
                  0.0,
                  0.0,
                  0.0
                ]
              },
              "displacementFactor": {
                "value": 1.0
              },
              "emissive": {
                "value": [
                  1.0,
                  1.0,
                  1.0
                ]
              },
              "emissiveFactor": {
                "value": 0.0
              },
              "normalMap": {
                "value": [
                  0.0,
                  0.0,
                  0.0
                ]
              },
              "reflection": {
                "value": [
                  0.800000011920929,
                  0.800000011920929,
                  0.800000011920929
                ]
              },
              "reflectionFactor": {
                "value": 0.0
              },
              "shadingModel": "Phong",
              "shininess": {
                "value": 25.0
              },
              "specular": {
                "value": [
                  0.800000011920929,
                  0.800000011920929,
                  0.800000011920929
                ]
              },
              "specularFactor": {
                "value": 0.25
              },
              "transparencyFactor": {
                "value": 0.0
              },
              "transparentColor": {
                "value": [
                  0.0,
                  0.0,
                  0.0
                ]
              },
              "vectorDisplacementColor": {
                "value": [
                  0.0,
                  0.0,
                  0.0
                ]
              },
              "vectorDisplacementFactor": {
                "value": 1.0
              }
            },
            "type": "phong"
          }
        }
      },
      "name": "Material.006"
    },
    {
      "extras": {
        "FBX-glTF-conv": {
          "raw": {
            "properties": {
              "ambient": {
                "value": [
                  0.05087608844041824,
                  0.05087608844041824,
                  0.05087608844041824
                ]
              },
              "ambientFactor": {
                "value": 0.0
              },
              "bump": {
                "value": [
                  0.0,
                  0.0,
                  0.0
                ]
              },
              "bumpFactor": {
                "value": 0.0
              },
              "diffuse": {
                "texture": {
                  "index": 3
                },
                "value": [
                  0.800000011920929,
                  0.800000011920929,
                  0.800000011920929
                ]
              },
              "diffuseFactor": {
                "value": 1.0
              },
              "displacementColor": {
                "value": [
                  0.0,
                  0.0,
                  0.0
                ]
              },
              "displacementFactor": {
                "value": 1.0
              },
              "emissive": {
                "value": [
                  1.0,
                  1.0,
                  1.0
                ]
              },
              "emissiveFactor": {
                "value": 0.0
              },
              "normalMap": {
                "value": [
                  0.0,
                  0.0,
                  0.0
                ]
              },
              "reflection": {
                "value": [
                  0.800000011920929,
                  0.800000011920929,
                  0.800000011920929
                ]
              },
              "reflectionFactor": {
                "value": 0.0
              },
              "shadingModel": "Phong",
              "shininess": {
                "value": 25.0
              },
              "specular": {
                "value": [
                  0.800000011920929,
                  0.800000011920929,
                  0.800000011920929
                ]
              },
              "specularFactor": {
                "value": 0.25
              },
              "transparencyFactor": {
                "value": 0.0
              },
              "transparentColor": {
                "value": [
                  0.0,
                  0.0,
                  0.0
                ]
              },
              "vectorDisplacementColor": {
                "value": [
                  0.0,
                  0.0,
                  0.0
                ]
              },
              "vectorDisplacementFactor": {
                "value": 1.0
              }
            },
            "type": "phong"
          }
        }
      },
      "name": "Material.013"
    },
    {
      "extras": {
        "FBX-glTF-conv": {
          "raw": {
            "properties": {
              "ambient": {
                "value": [
                  0.05087608844041824,
                  0.05087608844041824,
                  0.05087608844041824
                ]
              },
              "ambientFactor": {
                "value": 0.0
              },
              "bump": {
                "value": [
                  0.0,
                  0.0,
                  0.0
                ]
              },
              "bumpFactor": {
                "value": 0.0
              },
              "diffuse": {
                "texture": {
                  "index": 4
                },
                "value": [
                  0.800000011920929,
                  0.800000011920929,
                  0.800000011920929
                ]
              },
              "diffuseFactor": {
                "value": 1.0
              },
              "displacementColor": {
                "value": [
                  0.0,
                  0.0,
                  0.0
                ]
              },
              "displacementFactor": {
                "value": 1.0
              },
              "emissive": {
                "value": [
                  1.0,
                  1.0,
                  1.0
                ]
              },
              "emissiveFactor": {
                "value": 0.0
              },
              "normalMap": {
                "value": [
                  0.0,
                  0.0,
                  0.0
                ]
              },
              "reflection": {
                "value": [
                  0.800000011920929,
                  0.800000011920929,
                  0.800000011920929
                ]
              },
              "reflectionFactor": {
                "value": 0.0
              },
              "shadingModel": "Phong",
              "shininess": {
                "value": 25.0
              },
              "specular": {
                "value": [
                  0.800000011920929,
                  0.800000011920929,
                  0.800000011920929
                ]
              },
              "specularFactor": {
                "value": 0.25
              },
              "transparencyFactor": {
                "value": 0.0
              },
              "transparentColor": {
                "value": [
                  0.0,
                  0.0,
                  0.0
                ]
              },
              "vectorDisplacementColor": {
                "value": [
                  0.0,
                  0.0,
                  0.0
                ]
              },
              "vectorDisplacementFactor": {
                "value": 1.0
              }
            },
            "type": "phong"
          }
        }
      },
      "name": "Material.012"
    },
    {
      "extras": {
        "FBX-glTF-conv": {
          "raw": {
            "properties": {
              "ambient": {
                "value": [
                  0.05087608844041824,
                  0.05087608844041824,
                  0.05087608844041824
                ]
              },
              "ambientFactor": {
                "value": 0.0
              },
              "bump": {
                "value": [
                  0.0,
                  0.0,
                  0.0
                ]
              },
              "bumpFactor": {
                "value": 0.0
              },
              "diffuse": {
                "texture": {
                  "index": 5
                },
                "value": [
                  0.800000011920929,
                  0.800000011920929,
                  0.800000011920929
                ]
              },
              "diffuseFactor": {
                "value": 1.0
              },
              "displacementColor": {
                "value": [
                  0.0,
                  0.0,
                  0.0
                ]
              },
              "displacementFactor": {
                "value": 1.0
              },
              "emissive": {
                "value": [
                  1.0,
                  1.0,
                  1.0
                ]
              },
              "emissiveFactor": {
                "value": 0.0
              },
              "normalMap": {
                "value": [
                  0.0,
                  0.0,
                  0.0
                ]
              },
              "reflection": {
                "value": [
                  0.800000011920929,
                  0.800000011920929,
                  0.800000011920929
                ]
              },
              "reflectionFactor": {
                "value": 0.0
              },
              "shadingModel": "Phong",
              "shininess": {
                "value": 25.0
              },
              "specular": {
                "value": [
                  0.800000011920929,
                  0.800000011920929,
                  0.800000011920929
                ]
              },
              "specularFactor": {
                "value": 0.25
              },
              "transparencyFactor": {
                "value": 0.0
              },
              "transparentColor": {
                "value": [
                  0.0,
                  0.0,
                  0.0
                ]
              },
              "vectorDisplacementColor": {
                "value": [
                  0.0,
                  0.0,
                  0.0
                ]
              },
              "vectorDisplacementFactor": {
                "value": 1.0
              }
            },
            "type": "phong"
          }
        }
      },
      "name": "Material.005"
    }
  ],
  "meshes": [
    {
      "name": "Mesh.173",
      "primitives": [
        {
          "attributes": {
            "NORMAL": 1,
            "POSITION": 0,
            "TEXCOORD_0": 2
          },
          "indices": 3,
          "material": 0
        }
      ]
    },
    {
      "name": "Mesh.198",
      "primitives": [
        {
          "attributes": {
            "NORMAL": 5,
            "POSITION": 4,
            "TEXCOORD_0": 6
          },
          "indices": 7,
          "material": 1
        }
      ]
    },
    {
      "name": "Mesh.199",
      "primitives": [
        {
          "attributes": {
            "NORMAL": 9,
            "POSITION": 8,
            "TEXCOORD_0": 10
          },
          "indices": 11,
          "material": 2
        }
      ]
    },
    {
      "name": "Mesh.174",
      "primitives": [
        {
          "attributes": {
            "NORMAL": 13,
            "POSITION": 12,
            "TEXCOORD_0": 14
          },
          "indices": 15,
          "material": 0
        }
      ]
    },
    {
      "name": "Mesh.200",
      "primitives": [
        {
          "attributes": {
            "NORMAL": 17,
            "POSITION": 16,
            "TEXCOORD_0": 18
          },
          "indices": 19,
          "material": 1
        }
      ]
    },
    {
      "name": "Mesh.201",
      "primitives": [
        {
          "attributes": {
            "NORMAL": 21,
            "POSITION": 20,
            "TEXCOORD_0": 22
          },
          "indices": 23,
          "material": 2
        }
      ]
    },
    {
      "name": "Mesh.175",
      "primitives": [
        {
          "attributes": {
            "NORMAL": 25,
            "POSITION": 24,
            "TEXCOORD_0": 26
          },
          "indices": 27,
          "material": 0
        }
      ]
    },
    {
      "name": "Mesh.202",
      "primitives": [
        {
          "attributes": {
            "NORMAL": 29,
            "POSITION": 28,
            "TEXCOORD_0": 30
          },
          "indices": 31,
          "material": 1
        }
      ]
    },
    {
      "name": "Mesh.203",
      "primitives": [
        {
          "attributes": {
            "NORMAL": 33,
            "POSITION": 32,
            "TEXCOORD_0": 34
          },
          "indices": 35,
          "material": 2
        }
      ]
    },
    {
      "name": "Mesh.176",
      "primitives": [
        {
          "attributes": {
            "NORMAL": 37,
            "POSITION": 36,
            "TEXCOORD_0": 38
          },
          "indices": 39,
          "material": 0
        }
      ]
    },
    {
      "name": "Mesh.204",
      "primitives": [
        {
          "attributes": {
            "NORMAL": 41,
            "POSITION": 40,
            "TEXCOORD_0": 42
          },
          "indices": 43,
          "material": 1
        }
      ]
    },
    {
      "name": "Mesh.205",
      "primitives": [
        {
          "attributes": {
            "NORMAL": 45,
            "POSITION": 44,
            "TEXCOORD_0": 46
          },
          "indices": 47,
          "material": 2
        }
      ]
    },
    {
      "name": "Mesh.181",
      "primitives": [
        {
          "attributes": {
            "NORMAL": 49,
            "POSITION": 48,
            "TEXCOORD_0": 50
          },
          "indices": 51,
          "material": 3
        }
      ]
    },
    {
      "name": "Mesh.180",
      "primitives": [
        {
          "attributes": {
            "NORMAL": 53,
            "POSITION": 52,
            "TEXCOORD_0": 54
          },
          "indices": 55,
          "material": 0
        }
      ]
    },
    {
      "name": "Mesh.178",
      "primitives": [
        {
          "attributes": {
            "NORMAL": 57,
            "POSITION": 56,
            "TEXCOORD_0": 58
          },
          "indices": 59,
          "material": 1
        }
      ]
    },
    {
      "name": "Mesh.179",
      "primitives": [
        {
          "attributes": {
            "NORMAL": 61,
            "POSITION": 60,
            "TEXCOORD_0": 62
          },
          "indices": 63,
          "material": 4
        }
      ]
    },
    {
      "name": "Mesh.185",
      "primitives": [
        {
          "attributes": {
            "NORMAL": 65,
            "POSITION": 64,
            "TEXCOORD_0": 66
          },
          "indices": 67,
          "material": 3
        }
      ]
    },
    {
      "name": "Mesh.183",
      "primitives": [
        {
          "attributes": {
            "NORMAL": 69,
            "POSITION": 68,
            "TEXCOORD_0": 70
          },
          "indices": 71,
          "material": 0
        }
      ]
    },
    {
      "name": "Mesh.182",
      "primitives": [
        {
          "attributes": {
            "NORMAL": 73,
            "POSITION": 72,
            "TEXCOORD_0": 74
          },
          "indices": 75,
          "material": 1
        }
      ]
    },
    {
      "name": "Mesh.184",
      "primitives": [
        {
          "attributes": {
            "NORMAL": 77,
            "POSITION": 76,
            "TEXCOORD_0": 78
          },
          "indices": 79,
          "material": 4
        }
      ]
    },
    {
      "name": "Mesh.189",
      "primitives": [
        {
          "attributes": {
            "NORMAL": 81,
            "POSITION": 80,
            "TEXCOORD_0": 82
          },
          "indices": 83,
          "material": 3
        }
      ]
    },
    {
      "name": "Mesh.187",
      "primitives": [
        {
          "attributes": {
            "NORMAL": 85,
            "POSITION": 84,
            "TEXCOORD_0": 86
          },
          "indices": 87,
          "material": 0
        }
      ]
    },
    {
      "name": "Mesh.186",
      "primitives": [
        {
          "attributes": {
            "NORMAL": 89,
            "POSITION": 88,
            "TEXCOORD_0": 90
          },
          "indices": 91,
          "material": 1
        }
      ]
    },
    {
      "name": "Mesh.188",
      "primitives": [
        {
          "attributes": {
            "NORMAL": 93,
            "POSITION": 92,
            "TEXCOORD_0": 94
          },
          "indices": 95,
          "material": 4
        }
      ]
    },
    {
      "name": "Mesh.191",
      "primitives": [
        {
          "attributes": {
            "NORMAL": 97,
            "POSITION": 96,
            "TEXCOORD_0": 98
          },
          "indices": 99,
          "material": 3
        }
      ]
    },
    {
      "name": "Mesh.190",
      "primitives": [
        {
          "attributes": {
            "NORMAL": 101,
            "POSITION": 100,
            "TEXCOORD_0": 102
          },
          "indices": 103,
          "material": 0
        }
      ]
    },
    {
      "name": "Mesh.192",
      "primitives": [
        {
          "attributes": {
            "NORMAL": 105,
            "POSITION": 104,
            "TEXCOORD_0": 106
          },
          "indices": 107
        }
      ]
    },
    {
      "name": "Mesh.193",
      "primitives": [
        {
          "attributes": {
            "NORMAL": 109,
            "POSITION": 108,
            "TEXCOORD_0": 110
          },
          "indices": 111
        }
      ]
    },
    {
      "name": "Mesh.194",
      "primitives": [
        {
          "attributes": {
            "NORMAL": 113,
            "POSITION": 112,
            "TEXCOORD_0": 114
          },
          "indices": 115,
          "material": 5
        }
      ]
    },
    {
      "name": "Mesh.195",
      "primitives": [
        {
          "attributes": {
            "NORMAL": 117,
            "POSITION": 116,
            "TEXCOORD_0": 118
          },
          "indices": 119,
          "material": 5
        }
      ]
    },
    {
      "name": "Mesh.196",
      "primitives": [
        {
          "attributes": {
            "NORMAL": 121,
            "POSITION": 120,
            "TEXCOORD_0": 122
          },
          "indices": 123,
          "material": 5
        }
      ]
    },
    {
      "name": "Mesh.197",
      "primitives": [
        {
          "attributes": {
            "NORMAL": 125,
            "POSITION": 124,
            "TEXCOORD_0": 126
          },
          "indices": 127,
          "material": 5
        }
      ]
    }
  ],
  "nodes": [
    {
      "children": [
        1,
        3
      ],
      "name": "bone_wheel_BL_steer.006",
      "rotation": [
        -0.7071068286895752,
        0.0,
        0.0,
        0.7071067094802856
      ],
      "scale": [
        100.0,
        100.0,
        100.0
      ],
      "translation": [
        0.8450539112091064,
        0.34330299496650696,
        -1.4221299886703491
      ]
    },
    {
      "children": [
        2
      ],
      "name": "bone_caliper_BL.006",
      "rotation": [
        -2.3647002578286447e-08,
        0.173647940158844,
        0.9848077893257141,
        -4.3563781559896597e-07
      ]
    },
    {
      "mesh": 0,
      "name": "bone_caliper_BL_carpaint",
      "translation": [
        -0.0010881596244871616,
        -0.0013101089280098677,
        -9.780943219084293e-05
      ]
    },
    {
      "children": [
        4
      ],
      "name": "bone_wheel_BL_rotation.006"
    },
    {
      "children": [
        5,
        6
      ],
      "name": "wheelBL"
    },
    {
      "mesh": 1,
      "name": "wheelBL_rims",
      "translation": [
        4.3519736209418625e-05,
        0.0,
        0.0
      ]
    },
    {
      "mesh": 2,
      "name": "wheelBL_tires",
      "translation": [
        4.3519736209418625e-05,
        0.0,
        0.0
      ]
    },
    {
      "children": [
        8,
        10
      ],
      "name": "bone_wheel_BR_steer.006",
      "rotation": [
        -0.7071068286895752,
        0.0,
        0.0,
        0.7071067094802856
      ],
      "scale": [
        100.0,
        100.0,
        100.0
      ],
      "translation": [
        -0.8450530171394348,
        0.34330299496650696,
        -1.4221299886703491
      ]
    },
    {
      "children": [
        9
      ],
      "name": "bone_caliper_BR.006",
      "rotation": [
        0.9848077893257141,
        0.0,
        0.0,
        0.17364786565303802
      ]
    },
    {
      "mesh": 3,
      "name": "bone_caliper_BR_carpaint",
      "translation": [
        -0.0010881590424105525,
        -0.0013101112563163042,
        -9.780943219084293e-05
      ]
    },
    {
      "children": [
        11
      ],
      "name": "bone_wheel_BR_rotation.006"
    },
    {
      "children": [
        12,
        13
      ],
      "name": "wheelBR"
    },
    {
      "mesh": 4,
      "name": "wheelBR_rims",
      "translation": [
        -4.3519736209418625e-05,
        0.0,
        0.0
      ]
    },
    {
      "mesh": 5,
      "name": "wheelBR_tires",
      "translation": [
        -4.3519736209418625e-05,
        0.0,
        0.0
      ]
    },
    {
      "children": [
        15,
        17
      ],
      "name": "bone_wheel_FL_steer.006",
      "rotation": [
        -0.7071068286895752,
        0.0,
        0.0,
        0.7071067094802856
      ],
      "scale": [
        100.0,
        100.0,
        100.0
      ],
      "translation": [
        0.8450530171394348,
        0.34330299496650696,
        1.4230200052261353
      ]
    },
    {
      "children": [
        16
      ],
      "name": "bone_caliper_FL.006",
      "rotation": [
        -2.3647002578286447e-08,
        0.173647940158844,
        0.9848077893257141,
        -4.3563781559896597e-07
      ]
    },
    {
      "mesh": 6,
      "name": "bone_caliper_FL_carpaint",
      "translation": [
        -0.0010881596244871616,
        -0.0013101089280098677,
        -9.780943219084293e-05
      ]
    },
    {
      "children": [
        18
      ],
      "name": "bone_wheel_FL_rotation.006"
    },
    {
      "children": [
        19,
        20
      ],
      "name": "wheelFL.001"
    },
    {
      "mesh": 7,
      "name": "wheelFL_rims.001",
      "translation": [
        4.3519736209418625e-05,
        0.0,
        0.0
      ]
    },
    {
      "mesh": 8,
      "name": "wheelFL_tires",
      "translation": [
        4.3519736209418625e-05,
        0.0,
        0.0
      ]
    },
    {
      "children": [
        22,
        24
      ],
      "name": "bone_wheel_FR_steer.006",
      "rotation": [
        -0.7071068286895752,
        0.0,
        0.0,
        0.7071067094802856
      ],
      "scale": [
        100.0,
        100.0,
        100.0
      ],
      "translation": [
        -0.8450539112091064,
        0.34330299496650696,
        1.4230200052261353
      ]
    },
    {
      "children": [
        23
      ],
      "name": "bone_caliper_FR.006",
      "rotation": [
        0.9848077893257141,
        0.0,
        0.0,
        0.17364786565303802
      ]
    },
    {
      "mesh": 9,
      "name": "bone_caliper_FR_carpaint",
      "translation": [
        -0.0010881590424105525,
        -0.001310110092163086,
        -9.780973050510511e-05
      ]
    },
    {
      "children": [
        25
      ],
      "name": "bone_wheel_FR_rotation.006"
    },
    {
      "children": [
        26,
        27
      ],
      "name": "wheelFR"
    },
    {
      "mesh": 10,
      "name": "wheelFR_rims",
      "translation": [
        -4.3519736209418625e-05,
        0.0,
        0.0
      ]
    },
    {
      "mesh": 11,
      "name": "wheelFR_tires",
      "translation": [
        -4.3519736209418625e-05,
        0.0,
        0.0
      ]
    },
    {
      "name": "car_shadow.006",
      "rotation": [
        -0.7071068286895752,
        0.0,
        0.0,
        0.7071067094802856
      ],
      "scale": [
        100.0,
        100.0,
        100.0
      ],
      "translation": [
        0.0,
        0.0,
        -0.004732000175863504
      ]
    },
    {
      "children": [
        30,
        31,
        32,
        33
      ],
      "name": "chassis.006",
      "rotation": [
        -0.7071068286895752,
        0.0,
        0.0,
        0.7071067094802856
      ],
      "scale": [
        100.0,
        100.0,
        100.0
      ]
    },
    {
      "mesh": 12,
      "name": "chassis_Logo",
      "scale": [
        5.022190093994141,
        5.022190093994141,
        5.022190093994141
      ],
      "translation": [
        0.0,
        0.0005836499622091651,
        0.008034500293433666
      ]
    },
    {
      "mesh": 13,
      "name": "chassis_carpaint.006",
      "scale": [
        5.022190093994141,
        5.022190093994141,
        5.022190093994141
      ],
      "translation": [
        0.0,
        0.0005836499622091651,
        0.008034500293433666
      ]
    },
    {
      "mesh": 14,
      "name": "chassis_details.002",
      "scale": [
        5.022190093994141,
        5.022190093994141,
        5.022190093994141
      ],
      "translation": [
        0.0,
        0.0005836499622091651,
        0.008034500293433666
      ]
    },
    {
      "mesh": 15,
      "name": "chassis_tiled_carbon.001",
      "scale": [
        5.022190093994141,
        5.022190093994141,
        5.022190093994141
      ],
      "translation": [
        0.0,
        0.0005836499622091651,
        0.008034500293433666
      ]
    },
    {
      "children": [
        35
      ],
      "name": "detach_door_L",
      "rotation": [
        0.7071071863174438,
        0.0,
        0.0,
        0.7071064114570618
      ],
      "scale": [
        100.0,
        100.0,
        100.0
      ],
      "translation": [
        0.8740000128746033,
        0.7471749782562256,
        0.8526580333709717
      ]
    },
    {
      "children": [
        36,
        37,
        38,
        39
      ],
      "name": "detach_door_L_pivot",
      "rotation": [
        1.0,
        0.0,
        0.0,
        -4.331257628109597e-07
      ],
      "translation": [
        0.0,
        0.0,
        -2.336054127916043e-10
      ]
    },
    {
      "mesh": 16,
      "name": "detach_door_L_pivot_Logo",
      "scale": [
        1.2091480493545532,
        1.2091480493545532,
        1.2091480493545532
      ],
      "translation": [
        -0.001072270330041647,
        0.006026859860867262,
        0.0004562099347822368
      ]
    },
    {
      "mesh": 17,
      "name": "detach_door_L_pivot_carpaint",
      "scale": [
        1.2091480493545532,
        1.2091480493545532,
        1.2091480493545532
      ],
      "translation": [
        -0.001072270330041647,
        0.006026859860867262,
        0.0004562099347822368
      ]
    },
    {
      "mesh": 18,
      "name": "detach_door_L_pivot_details",
      "scale": [
        1.2091480493545532,
        1.2091480493545532,
        1.2091480493545532
      ],
      "translation": [
        -0.001072270330041647,
        0.006026859860867262,
        0.0004562099347822368
      ]
    },
    {
      "mesh": 19,
      "name": "detach_door_L_pivot_tiled_carbon",
      "scale": [
        1.2091480493545532,
        1.2091480493545532,
        1.2091480493545532
      ],
      "translation": [
        -0.001072270330041647,
        0.006026859860867262,
        0.0004562099347822368
      ]
    },
    {
      "children": [
        41,
        42,
        43,
        44
      ],
      "name": "detach_door_R",
      "rotation": [
        -0.7071068286895752,
        0.0,
        0.0,
        0.7071067094802856
      ],
      "scale": [
        100.0,
        100.0,
        100.0
      ],
      "translation": [
        -0.8740000128746033,
        0.7471749782562256,
        0.8526580333709717
      ]
    },
    {
      "mesh": 20,
      "name": "detach_door_R_Logo",
      "scale": [
        1.2091480493545532,
        1.2091480493545532,
        1.2091480493545532
      ],
      "translation": [
        0.001072270330041647,
        0.006026859860867262,
        0.0004562199173960835
      ]
    },
    {
      "mesh": 21,
      "name": "detach_door_R_carpaint",
      "scale": [
        1.2091480493545532,
        1.2091480493545532,
        1.2091480493545532
      ],
      "translation": [
        0.001072270330041647,
        0.006026859860867262,
        0.0004562199173960835
      ]
    },
    {
      "mesh": 22,
      "name": "detach_door_R_details",
      "scale": [
        1.2091480493545532,
        1.2091480493545532,
        1.2091480493545532
      ],
      "translation": [
        0.001072270330041647,
        0.006026859860867262,
        0.0004562199173960835
      ]
    },
    {
      "mesh": 23,
      "name": "detach_door_R_tiled_carbon",
      "scale": [
        1.2091480493545532,
        1.2091480493545532,
        1.2091480493545532
      ],
      "translation": [
        0.001072270330041647,
        0.006026859860867262,
        0.0004562199173960835
      ]
    },
    {
      "children": [
        46
      ],
      "name": "detach_hood",
      "rotation": [
        0.5000000596046448,
        0.5000000596046448,
        -0.4999999701976776,
        -0.4999999403953552
      ],
      "scale": [
        100.0,
        100.0,
        100.0
      ],
      "translation": [
        -0.7388820052146912,
        0.9890429973602295,
        0.9416589140892029
      ]
    },
    {
      "children": [
        47,
        48
      ],
      "name": "detach_hood_pivot",
      "rotation": [
        -4.679240477566973e-24,
        0.7071067690849304,
        4.67924008313652e-24,
        0.7071068286895752
      ],
      "translation": [
        3.820602514914562e-11,
        0.0,
        0.0
      ]
    },
    {
      "mesh": 24,
      "name": "detach_hood_pivot_Logo",
      "scale": [
        1.5487329959869385,
        1.5487329959869385,
        1.5487329959869385
      ],
      "translation": [
        0.0073888301849365234,
        -0.006408950313925743,
        -0.0011517602251842618
      ]
    },
    {
      "mesh": 25,
      "name": "detach_hood_pivot_carpaint",
      "scale": [
        1.5487329959869385,
        1.5487329959869385,
        1.5487329959869385
      ],
      "translation": [
        0.0073888301849365234,
        -0.006408950313925743,
        -0.0011517602251842618
      ]
    },
    {
      "name": "engine_dummy_1.006",
      "rotation": [
        2.3823992023608298e-07,
        0.9978567957878113,
        0.06543562561273575,
        -2.9896784781158203e-07
      ],
      "scale": [
        100.0,
        99.99999237060547,
        99.99999237060547
      ],
      "translation": [
        0.0,
        0.971930980682373,
        1.6391501426696777
      ]
    },
    {
      "name": "engine_dummy_2.005",
      "rotation": [
        2.3757037581617624e-07,
        0.9757377505302429,
        -0.21894267201423645,
        -3.7502985605897265e-07
      ],
      "scale": [
        100.0,
        100.0,
        100.0
      ],
      "translation": [
        -0.0016560000367462635,
        1.2008299827575684,
        -1.9171299934387207
      ]
    },
    {
      "name": "glass_window_F.005",
      "rotation": [
        2.7196807650398114e-07,
        0.9600779414176941,
        0.27973270416259766,
        -3.718942025443539e-07
      ],
      "scale": [
        100.0,
        100.0,
        100.0
      ],
      "translation": [
        0.0,
        1.2255799770355225,
        0.65727698802948
      ]
    },
    {
      "name": "glass_window_L.006",
      "rotation": [
        0.6152953505516052,
        0.788296639919281,
        -5.518758143807645e-07,
        -3.5510113320924575e-06
      ],
      "scale": [
        100.00000762939453,
        100.00000762939453,
        100.0
      ],
      "translation": [
        0.7136139869689941,
        1.188830018043518,
        0.05313799902796745
      ]
    },
    {
      "name": "glass_window_R.006",
      "rotation": [
        -0.5757756233215332,
        0.8176077604293823,
        -6.14868440607097e-07,
        1.9486004987356864e-07
      ],
      "scale": [
        100.0,
        100.0,
        100.0
      ],
      "translation": [
        -0.7116519808769226,
        1.1996899843215942,
        0.07787799835205078
      ]
    },
    {
      "children": [
        55,
        56
      ],
      "name": "glasses.006",
      "rotation": [
        -0.7071068286895752,
        0.0,
        0.0,
        0.7071067094802856
      ],
      "scale": [
        100.0,
        100.0,
        100.0
      ]
    },
    {
      "mesh": 26,
      "name": "glasses_glass.002",
      "scale": [
        4.380370140075684,
        4.380370140075684,
        4.380370140075684
      ],
      "translation": [
        0.0,
        0.0001347499928670004,
        0.01042397040873766
      ]
    },
    {
      "mesh": 27,
      "name": "glasses_glass_light",
      "scale": [
        4.380370140075684,
        4.380370140075684,
        4.380370140075684
      ],
      "translation": [
        0.0,
        0.0001347499928670004,
        0.01042397040873766
      ]
    },
    {
      "name": "lights_BL.006",
      "rotation": [
        3.0626614488937776e-07,
        0.7071068286895752,
        0.7071067690849304,
        -3.062661733110872e-07
      ],
      "scale": [
        92.81600189208984,
        92.81600189208984,
        92.81600189208984
      ],
      "translation": [
        0.6192870140075684,
        0.9261219501495361,
        -2.1321699619293213
      ]
    },
    {
      "name": "lights_BR.006",
      "rotation": [
        3.0626614488937776e-07,
        0.7071068286895752,
        0.7071067690849304,
        -3.062661733110872e-07
      ],
      "scale": [
        92.81600189208984,
        92.81600189208984,
        92.81600189208984
      ],
      "translation": [
        -0.6268380284309387,
        0.9313300251960754,
        -2.1321699619293213
      ]
    },
    {
      "name": "lights_FL.006",
      "rotation": [
        -0.7071068286895752,
        0.0,
        0.0,
        0.7071067094802856
      ],
      "scale": [
        93.65709686279297,
        93.65709686279297,
        93.65709686279297
      ],
      "translation": [
        0.6853520274162292,
        0.7674739956855774,
        2.0061299800872803
      ]
    },
    {
      "name": "lights_FR.006",
      "rotation": [
        -0.7071068286895752,
        0.0,
        0.0,
        0.7071067094802856
      ],
      "scale": [
        93.65709686279297,
        93.65709686279297,
        93.65709686279297
      ],
      "translation": [
        -0.6845260858535767,
        0.7674739956855774,
        2.0061299800872803
      ]
    },
    {
      "children": [
        62
      ],
      "name": "lights_brakes.006",
      "rotation": [
        -0.7071068286895752,
        0.0,
        0.0,
        0.7071067094802856
      ],
      "scale": [
        100.0,
        100.0,
        100.0
      ],
      "translation": [
        0.0,
        1.0151400566101074,
        -2.357369899749756
      ]
    },
    {
      "mesh": 28,
      "name": "lights_brakes_glows.003",
      "scale": [
        1.5571939945220947,
        1.5571939945220947,
        1.5571939945220947
      ],
      "translation": [
        0.0,
        -0.003513209754601121,
        0.0008349394774995744
      ]
    },
    {
      "children": [
        64
      ],
      "name": "lights_position_back.006",
      "rotation": [
        -0.7071068286895752,
        0.0,
        0.0,
        0.7071067094802856
      ],
      "scale": [
        100.0,
        100.0,
        100.0
      ],
      "translation": [
        0.0,
        0.8061490058898926,
        -2.095550060272217
      ]
    },
    {
      "mesh": 29,
      "name": "lights_position_back_glows.004",
      "translation": [
        0.00018878000264521688,
        0.0002792406012304127,
        0.0005124598974362016
      ]
    },
    {
      "children": [
        66
      ],
      "name": "lights_position_front_and_back.006",
      "rotation": [
        -0.7071068286895752,
        0.0,
        0.0,
        0.7071067094802856
      ],
      "scale": [
        100.0,
        100.0,
        100.0
      ]
    },
    {
      "mesh": 30,
      "name": "lights_position_front_and_back_glows.004",
      "scale": [
        6.520009994506836,
        6.520009994506836,
        6.520009994506836
      ],
      "translation": [
        0.0,
        -0.010195950046181679,
        0.007787340320646763
      ]
    },
    {
      "children": [
        68
      ],
      "name": "lights_reverse.006",
      "rotation": [
        -0.7071068286895752,
        0.0,
        0.0,
        0.7071067094802856
      ],
      "scale": [
        100.0,
        100.0,
        100.0
      ],
      "translation": [
        0.0,
        0.8295509815216064,
        -2.317889928817749
      ]
    },
    {
      "mesh": 31,
      "name": "lights_reverse_glows.004",
      "translation": [
        0.00018878000264521688,
        -0.0019441604381427169,
        0.0002784198441077024
      ]
    },
    {
      "name": "nitro_dummy_1.006",
      "rotation": [
        -0.7071068286895752,
        0.0,
        0.0,
        0.7071067094802856
      ],
      "scale": [
        100.0,
        100.0,
        100.0
      ],
      "translation": [
        0.4191429913043976,
        0.2102459967136383,
        -2.2317299842834473
      ]
    },
    {
      "name": "nitro_dummy_2.004",
      "rotation": [
        -0.7071068286895752,
        0.0,
        0.0,
        0.7071067094802856
      ],
      "scale": [
        100.0,
        100.0,
        100.0
      ],
      "translation": [
        -0.42282500863075256,
        0.21419300138950348,
        -2.2317299842834473
      ]
    }
  ],
  "samplers": [
    {}
  ],
  "scenes": [
    {
      "name": "Scene",
      "nodes": [
        0,
        7,
        14,
        21,
        28,
        29,
        34,
        40,
        45,
        49,
        50,
        51,
        52,
        53,
        54,
        57,
        58,
        59,
        60,
        61,
        63,
        65,
        67,
        69,
        70
      ]
    }
  ],
  "textures": [
    {
      "name": "base_color_texture",
      "sampler": 0,
      "source": 0
    },
    {
      "name": "base_color_texture",
      "sampler": 0,
      "source": 1
    },
    {
      "name": "base_color_texture",
      "sampler": 0,
      "source": 2
    },
    {
      "name": "base_color_texture",
      "sampler": 0,
      "source": 3
    },
    {
      "name": "base_color_texture",
      "sampler": 0,
      "source": 4
    },
    {
      "name": "base_color_texture",
      "sampler": 0,
      "source": 5
    }
  ]
}