{
  "accessors": [
    {
      "bufferView": 0,
      "componentType": 5126,
      "count": 1549,
      "max": [
        -0.022933196276426315,
        0.0017117309616878629,
        -0.034478988498449326
      ],
      "min": [
        -0.025909842923283577,
        -0.00715419789776206,
        -0.04335033521056175
      ],
      "name": "whell/POSITION",
      "type": "VEC3"
    },
    {
      "bufferView": 0,
      "byteOffset": 12,
      "componentType": 5126,
      "count": 1549,
      "name": "whell/NORMAL",
      "type": "VEC3"
    },
    {
      "bufferView": 0,
      "byteOffset": 24,
      "componentType": 5126,
      "count": 1549,
      "name": "whell/TEXCOORD_0",
      "type": "VEC2"
    },
    {
      "bufferView": 0,
      "byteOffset": 32,
      "componentType": 5126,
      "count": 1549,
      "name": "whell/TEXCOORD_1",
      "type": "VEC2"
    },
    {
      "bufferView": 1,
      "componentType": 5123,
      "count": 3702,
      "name": "whell/INDICES",
      "type": "SCALAR"
    },
    {
      "bufferView": 2,
      "componentType": 5126,
      "count": 1920,
      "max": [
        0.020979804918169975,
        0.016750343143939972,
        0.037047505378723145
      ],
      "min": [
        -0.021469902247190475,
        -0.006380502600222826,
        -0.03333275020122528
      ],
      "name": "car2/POSITION",
      "type": "VEC3"
    },
    {
      "bufferView": 2,
      "byteOffset": 12,
      "componentType": 5126,
      "count": 1920,
      "name": "car2/NORMAL",
      "type": "VEC3"
    },
    {
      "bufferView": 2,
      "byteOffset": 24,
      "componentType": 5126,
      "count": 1920,
      "name": "car2/TEXCOORD_0",
      "type": "VEC2"
    },
    {
      "bufferView": 3,
      "componentType": 5123,
      "count": 4320,
      "name": "car2/INDICES",
      "type": "SCALAR"
    },
    {
      "bufferView": 4,
      "componentType": 5126,
      "count": 1549,
      "max": [
        -0.022933196276426315,
        0.0017117309616878629,
        -0.034478988498449326
      ],
      "min": [
        -0.025909842923283577,
        -0.00715419789776206,
        -0.04335033521056175
      ],
      "name": "whell1/POSITION",
      "type": "VEC3"
    },
    {
      "bufferView": 4,
      "byteOffset": 12,
      "componentType": 5126,
      "count": 1549,
      "name": "whell1/NORMAL",
      "type": "VEC3"
    },
    {
      "bufferView": 4,
      "byteOffset": 24,
      "componentType": 5126,
      "count": 1549,
      "name": "whell1/TEXCOORD_0",
      "type": "VEC2"
    },
    {
      "bufferView": 4,
      "byteOffset": 32,
      "componentType": 5126,
      "count": 1549,
      "name": "whell1/TEXCOORD_1",
      "type": "VEC2"
    },
    {
      "bufferView": 5,
      "componentType": 5123,
      "count": 3702,
      "name": "whell1/INDICES",
      "type": "SCALAR"
    },
    {
      "bufferView": 6,
      "componentType": 5126,
      "count": 1549,
      "max": [
        -0.022933196276426315,
        0.0017117309616878629,
        -0.034478988498449326
      ],
      "min": [
        -0.025909842923283577,
        -0.00715419789776206,
        -0.04335033521056175
      ],
      "name": "whell2/POSITION",
      "type": "VEC3"
    },
    {
      "bufferView": 6,
      "byteOffset": 12,
      "componentType": 5126,
      "count": 1549,
      "name": "whell2/NORMAL",
      "type": "VEC3"
    },
    {
      "bufferView": 6,
      "byteOffset": 24,
      "componentType": 5126,
      "count": 1549,
      "name": "whell2/TEXCOORD_0",
      "type": "VEC2"
    },
    {
      "bufferView": 6,
      "byteOffset": 32,
      "componentType": 5126,
      "count": 1549,
      "name": "whell2/TEXCOORD_1",
      "type": "VEC2"
    },
    {
      "bufferView": 7,
      "componentType": 5123,
      "count": 3702,
      "name": "whell2/INDICES",
      "type": "SCALAR"
    },
    {
      "bufferView": 8,
      "componentType": 5126,
      "count": 1549,
      "max": [
        -0.022933196276426315,
        0.0017117309616878629,
        -0.034478988498449326
      ],
      "min": [
        -0.025909842923283577,
        -0.00715419789776206,
        -0.04335033521056175
      ],
      "name": "whell3/POSITION",
      "type": "VEC3"
    },
    {
      "bufferView": 8,
      "byteOffset": 12,
      "componentType": 5126,
      "count": 1549,
      "name": "whell3/NORMAL",
      "type": "VEC3"
    },
    {
      "bufferView": 8,
      "byteOffset": 24,
      "componentType": 5126,
      "count": 1549,
      "name": "whell3/TEXCOORD_0",
      "type": "VEC2"
    },
    {
      "bufferView": 8,
      "byteOffset": 32,
      "componentType": 5126,
      "count": 1549,
      "name": "whell3/TEXCOORD_1",
      "type": "VEC2"
    },
    {
      "bufferView": 9,
      "componentType": 5123,
      "count": 3702,
      "name": "whell3/INDICES",
      "type": "SCALAR"
    },
    {
      "bufferView": 10,
      "componentType": 5126,
      "count": 1549,
      "max": [
        -0.022933196276426315,
        0.0017117309616878629,
        -0.034478988498449326
      ],
      "min": [
        -0.025909842923283577,
        -0.00715419789776206,
        -0.04335033521056175
      ],
      "name": "whell4/POSITION",
      "type": "VEC3"
    },
    {
      "bufferView": 10,
      "byteOffset": 12,
      "componentType": 5126,
      "count": 1549,
      "name": "whell4/NORMAL",
      "type": "VEC3"
    },
    {
      "bufferView": 10,
      "byteOffset": 24,
      "componentType": 5126,
      "count": 1549,
      "name": "whell4/TEXCOORD_0",
      "type": "VEC2"
    },
    {
      "bufferView": 10,
      "byteOffset": 32,
      "componentType": 5126,
      "count": 1549,
      "name": "whell4/TEXCOORD_1",
      "type": "VEC2"
    },
    {
      "bufferView": 11,
      "componentType": 5123,
      "count": 3702,
      "name": "whell4/INDICES",
      "type": "SCALAR"
    }
  ],
  "asset": {
    "copyright": "Copyright (c) 2018-2020 Chukong Technologies Inc.",
    "generator": "FBX-glTF-conv",
    "version": "2.0"
  },
  "bufferViews": [
    {
      "buffer": 0,
      "byteLength": 61960,
      "byteStride": 40,
      "name": "whell",
      "target": 34962
    },
    {
      "buffer": 0,
      "byteLength": 7404,
      "byteOffset": 61960,
      "target": 34963
    },
    {
      "buffer": 0,
      "byteLength": 61440,
      "byteOffset": 69364,
      "byteStride": 32,
      "name": "car2",
      "target": 34962
    },
    {
      "buffer": 0,
      "byteLength": 8640,
      "byteOffset": 130804,
      "target": 34963
    },
    {
      "buffer": 0,
      "byteLength": 61960,
      "byteOffset": 139444,
      "byteStride": 40,
      "name": "whell1",
      "target": 34962
    },
    {
      "buffer": 0,
      "byteLength": 7404,
      "byteOffset": 201404,
      "target": 34963
    },
    {
      "buffer": 0,
      "byteLength": 61960,
      "byteOffset": 208808,
      "byteStride": 40,
      "name": "whell2",
      "target": 34962
    },
    {
      "buffer": 0,
      "byteLength": 7404,
      "byteOffset": 270768,
      "target": 34963
    },
    {
      "buffer": 0,
      "byteLength": 61960,
      "byteOffset": 278172,
      "byteStride": 40,
      "name": "whell3",
      "target": 34962
    },
    {
      "buffer": 0,
      "byteLength": 7404,
      "byteOffset": 340132,
      "target": 34963
    },
    {
      "buffer": 0,
      "byteLength": 61960,
      "byteOffset": 347536,
      "byteStride": 40,
      "name": "whell4",
      "target": 34962
    },
    {
      "buffer": 0,
      "byteLength": 7404,
      "byteOffset": 409496,
      "target": 34963
    }
  ],
  "buffers": [
    {
      "byteLength": 416900,
      "uri": "out.bin"
    }
  ],
  "extras": {
    "FBX-glTF-conv": {
      "animationFrameRate": 24.0,
      "fbxFileHeaderInfo": {
        "creationTimeStamp": {
          "day": 5,
          "hour": 18,
          "millisecond": 575,
          "minute": 59,
          "month": 12,
          "second": 56,
          "year": 2019
        },
        "creator": "FBX SDK/FBX Plugins version 2019.2",
        "sceneInfo": {
          "author": "",
          "comment": "",
          "keywords": "",
          "original": {
            "applicationName": "Maya",
            "applicationVendor": "Autodesk",
            "applicationVersion": "201900",
            "fileName": "C:\\Users\\Osvaldo\\Desktop\\car.fbx"
          },
          "revision": "",
          "subject": "",
          "title": "",
          "url": "D:\\GameByself\\Cocos\\Project1\\assets\\resources\\UI\\lowpoly-race-car\\source\\car.fbx"
        }
      }
    }
  },
  "materials": [
    {
      "extras": {
        "FBX-glTF-conv": {
          "raw": {
            "properties": {
              "ambient": {
                "value": [
                  0.0,
                  0.0,
                  0.0
                ]
              },
              "ambientFactor": {
                "value": 1.0
              },
              "bump": {
                "value": [
                  0.0,
                  0.0,
                  0.0
                ]
              },
              "bumpFactor": {
                "value": 1.0
              },
              "diffuse": {
                "value": [
                  0.5,
                  0.5,
                  0.5
                ]
              },
              "diffuseFactor": {
                "value": 0.800000011920929
              },
              "displacementColor": {
                "value": [
                  0.0,
                  0.0,
                  0.0
                ]
              },
              "displacementFactor": {
                "value": 1.0
              },
              "emissive": {
                "value": [
                  0.0,
                  0.0,
                  0.0
                ]
              },
              "emissiveFactor": {
                "value": 1.0
              },
              "normalMap": {
                "value": [
                  0.0,
                  0.0,
                  0.0
                ]
              },
              "shadingModel": "Lambert",
              "transparencyFactor": {
                "value": 1.0
              },
              "transparentColor": {
                "value": [
                  0.0,
                  0.0,
                  0.0
                ]
              },
              "vectorDisplacementColor": {
                "value": [
                  0.0,
                  0.0,
                  0.0
                ]
              },
              "vectorDisplacementFactor": {
                "value": 1.0
              }
            },
            "type": "lambert"
          }
        }
      },
      "name": "lambert1"
    },
    {
      "extras": {
        "FBX-glTF-conv": {
          "raw": {
            "properties": {
              "ambient": {
                "value": [
                  0.0,
                  0.0,
                  0.0
                ]
              },
              "ambientFactor": {
                "value": 1.0
              },
              "bump": {
                "value": [
                  0.0,
                  0.0,
                  0.0
                ]
              },
              "bumpFactor": {
                "value": 1.0
              },
              "diffuse": {
                "value": [
                  0.5,
                  0.5,
                  0.5
                ]
              },
              "diffuseFactor": {
                "value": 0.800000011920929
              },
              "displacementColor": {
                "value": [
                  0.0,
                  0.0,
                  0.0
                ]
              },
              "displacementFactor": {
                "value": 1.0
              },
              "emissive": {
                "value": [
                  0.0,
                  0.0,
                  0.0
                ]
              },
              "emissiveFactor": {
                "value": 1.0
              },
              "normalMap": {
                "value": [
                  0.0,
                  0.0,
                  0.0
                ]
              },
              "shadingModel": "Lambert",
              "transparencyFactor": {
                "value": 1.0
              },
              "transparentColor": {
                "value": [
                  0.0,
                  0.0,
                  0.0
                ]
              },
              "vectorDisplacementColor": {
                "value": [
                  0.0,
                  0.0,
                  0.0
                ]
              },
              "vectorDisplacementFactor": {
                "value": 1.0
              }
            },
            "type": "lambert"
          }
        }
      },
      "name": "anisotropic2"
    },
    {
      "extras": {
        "FBX-glTF-conv": {
          "raw": {
            "properties": {
              "ambient": {
                "value": [
                  0.0,
                  0.0,
                  0.0
                ]
              },
              "ambientFactor": {
                "value": 1.0
              },
              "bump": {
                "value": [
                  0.0,
                  0.0,
                  0.0
                ]
              },
              "bumpFactor": {
                "value": 1.0
              },
              "diffuse": {
                "value": [
                  0.5,
                  0.5,
                  0.5
                ]
              },
              "diffuseFactor": {
                "value": 0.800000011920929
              },
              "displacementColor": {
                "value": [
                  0.0,
                  0.0,
                  0.0
                ]
              },
              "displacementFactor": {
                "value": 1.0
              },
              "emissive": {
                "value": [
                  0.0,
                  0.0,
                  0.0
                ]
              },
              "emissiveFactor": {
                "value": 1.0
              },
              "normalMap": {
                "value": [
                  0.0,
                  0.0,
                  0.0
                ]
              },
              "shadingModel": "Lambert",
              "transparencyFactor": {
                "value": 1.0
              },
              "transparentColor": {
                "value": [
                  0.0,
                  0.0,
                  0.0
                ]
              },
              "vectorDisplacementColor": {
                "value": [
                  0.0,
                  0.0,
                  0.0
                ]
              },
              "vectorDisplacementFactor": {
                "value": 1.0
              }
            },
            "type": "lambert"
          }
        }
      },
      "name": "anisotropic3"
    }
  ],
  "meshes": [
    {
      "name": "whell",
      "primitives": [
        {
          "attributes": {
            "NORMAL": 1,
            "POSITION": 0,
            "TEXCOORD_0": 2,
            "TEXCOORD_1": 3
          },
          "indices": 4,
          "material": 0
        }
      ]
    },
    {
      "name": "car2",
      "primitives": [
        {
          "attributes": {
            "NORMAL": 6,
            "POSITION": 5,
            "TEXCOORD_0": 7
          },
          "indices": 8,
          "material": 1
        }
      ]
    },
    {
      "name": "whell1",
      "primitives": [
        {
          "attributes": {
            "NORMAL": 10,
            "POSITION": 9,
            "TEXCOORD_0": 11,
            "TEXCOORD_1": 12
          },
          "indices": 13,
          "material": 2
        }
      ]
    },
    {
      "name": "whell2",
      "primitives": [
        {
          "attributes": {
            "NORMAL": 15,
            "POSITION": 14,
            "TEXCOORD_0": 16,
            "TEXCOORD_1": 17
          },
          "indices": 18,
          "material": 2
        }
      ]
    },
    {
      "name": "whell3",
      "primitives": [
        {
          "attributes": {
            "NORMAL": 20,
            "POSITION": 19,
            "TEXCOORD_0": 21,
            "TEXCOORD_1": 22
          },
          "indices": 23,
          "material": 2
        }
      ]
    },
    {
      "name": "whell4",
      "primitives": [
        {
          "attributes": {
            "NORMAL": 25,
            "POSITION": 24,
            "TEXCOORD_0": 26,
            "TEXCOORD_1": 27
          },
          "indices": 28,
          "material": 2
        }
      ]
    }
  ],
  "nodes": [
    {
      "mesh": 0,
      "name": "whell",
      "rotation": [
        0.0,
        0.0,
        0.9999473094940186,
        0.010266035795211792
      ],
      "scale": [
        1.1298835277557373,
        1.1298835277557373,
        1.1298835277557373
      ],
      "translation": [
        -0.04651660472154617,
        -0.006341072265058756,
        0.024206874892115593
      ]
    },
    {
      "children": [
        2
      ],
      "name": "car"
    },
    {
      "name": "transform1"
    },
    {
      "name": "right1",
      "rotation": [
        6.123234262925839e-17,
        1.0,
        6.123234262925839e-17,
        6.123234262925839e-17
      ],
      "translation": [
        10.00100040435791,
        0.0,
        0.0
      ]
    },
    {
      "name": "right2",
      "rotation": [
        6.123234262925839e-17,
        1.0,
        6.123234262925839e-17,
        6.123234262925839e-17
      ],
      "translation": [
        10.00100040435791,
        0.0,
        0.0
      ]
    },
    {
      "name": "left1",
      "translation": [
        -10.00146198272705,
        -0.0022213917691260576,
        -0.018537046387791634
      ]
    },
    {
      "name": "top1",
      "rotation": [
        -0.5,
        0.5,
        -0.5,
        0.5
      ],
      "translation": [
        -0.01985221542418003,
        10.001887321472168,
        -0.01976175047457218
      ]
    },
    {
      "children": [
        8
      ],
      "name": "car1",
      "rotation": [
        1.0,
        -0.0,
        0.0,
        -6.123234262925839e-17
      ],
      "scale": [
        -1.0,
        -1.0,
        -1.0
      ],
      "translation": [
        -0.0004900984931737185,
        0.0,
        0.0
      ]
    },
    {
      "name": "transform2"
    },
    {
      "mesh": 1,
      "name": "car2"
    },
    {
      "mesh": 2,
      "name": "whell1",
      "rotation": [
        0.0,
        0.0,
        0.9999473094940186,
        0.010266035795211792
      ],
      "scale": [
        1.1298835277557373,
        1.1298835277557373,
        1.1298835277557373
      ],
      "translation": [
        -0.04651660472154617,
        -0.006341072265058756,
        0.024206874892115593
      ]
    },
    {
      "mesh": 3,
      "name": "whell2",
      "rotation": [
        0.0,
        0.0,
        0.9999473094940186,
        0.010266035795211792
      ],
      "scale": [
        1.1298835277557373,
        1.1298835277557373,
        1.1298835277557373
      ],
      "translation": [
        -0.04651660472154617,
        -0.007076605688780546,
        0.06183166801929474
      ]
    },
    {
      "mesh": 4,
      "name": "whell3",
      "rotation": [
        0.9999472498893738,
        0.010268819518387318,
        -2.455554977132124e-06,
        -0.00023911468451842666
      ],
      "scale": [
        1.1298835277557373,
        1.1298835277557373,
        1.1298835277557373
      ],
      "translation": [
        0.04552244395017624,
        -0.00705542741343379,
        -0.026107050478458405
      ]
    },
    {
      "mesh": 5,
      "name": "whell4",
      "rotation": [
        0.9999472498893738,
        0.010268819518387318,
        -2.455554977132124e-06,
        -0.00023911468451842666
      ],
      "scale": [
        1.1298835277557373,
        1.1298835277557373,
        1.1298835277557373
      ],
      "translation": [
        0.04552244395017624,
        -0.006319894455373287,
        -0.0637318417429924
      ]
    }
  ],
  "scenes": [
    {
      "nodes": [
        0,
        1,
        3,
        4,
        5,
        6,
        7,
        9,
        10,
        11,
        12,
        13
      ]
    }
  ]
}